<?xml version="1.0" encoding="utf-8"?>
<!-- Generator: Adobe Illustrator 26.0.0, SVG Export Plug-In . SVG Version: 6.00 Build 0)  -->
<svg version="1.1" id="Layer_1" xmlns="http://www.w3.org/2000/svg" xmlns:xlink="http://www.w3.org/1999/xlink" x="0px" y="0px"
	 viewBox="0 0 595.3 595.3" style="enable-background:new 0 0 595.3 595.3;" xml:space="preserve">
<style type="text/css">
	.st0{fill:#818281;}
	.st1{fill:#D0D1D2;}
	.st2{opacity:0.3;fill:#9A9A9A;}
	.st3{fill:#4C4B4B;}
	.st4{fill:#9A9A9A;}
	.st5{opacity:0.6;fill:#9A9A9A;}
	.st6{fill:#F6C8A3;}
	.st7{opacity:0.7;fill:#F6C8A3;}
	.st8{fill:#D6906E;}
	.st9{fill:#AB4943;}
	.st10{fill:#FFFFFF;}
	.st11{opacity:0.7;}
	.st12{fill:#46201C;}
	.st13{fill:#1D1E1B;}
	.st14{fill:#606156;}
	.st15{opacity:0.7;fill:#606156;}
	.st16{fill:#010101;}
	.st17{fill:#757575;}
	.st18{fill:#898989;}
	.st19{fill:#403F40;}
</style>
<g>
	<g>
		<g>
			<g>
				<g>
					<path class="st0" d="M485.6,493c-7.3-9.1-19.6-10.3-30.7-11.5c-12.7-1.4-10.5-1-19.5-5.7c-5.6-2.9-10.7-6.3-16.9-8.2
						c-9.1-2.8-15.7,2.9-20.8,9.2c-0.2,0.2-0.1,0.4,0,0.4c-2.3,2.9-4.6,5.7-8.1,7.6c-3.9,2.2-7.7,4.3-11.4,6.8
						c-3.3,2.2-2.7,5.6-1.3,8.6c0,0,0,0,0,0.1c3.6,6.6,6.5,14.3,13.6,18.4c8.8,5,20.6-3.3,29-5.3c13.4-3.2,27.8-1.2,41.3,0.1
						c6.9,0.6,21.1,3.7,26.7-2.1C493,505.9,490,498.4,485.6,493z"/>
					<path class="st1" d="M485.3,511.9c-2.7,1.9-7.1,1.9-10.3,1.9c-19.3-0.2-38.3-5.5-57.4-0.6c-8.6,2.2-17.6,9-26.6,5
						c-5.8-2.6-9.1-9-11.9-14.5c0,0,0-0.1,0-0.1c-1.9-3.5-3.3-8.9,0.6-11.5c3.3-2.2,6.6-4.1,10.1-5.9c4.3-2.2,7-5.7,9.3-9.6
						c3.6-4.4,7.7-7.9,14-8c4.9-0.1,9.7,2.5,13.8,4.6c8.3,4.4,15.4,8.2,25.1,9.5c10.3,1.4,20.2,1.8,28.7,8.1
						c3.5,2.6,5.9,6.3,7.4,10.1C489.5,504.7,489.2,509,485.3,511.9z"/>
					<path class="st2" d="M488.1,500.8c-1.4-3.5-3.5-6.8-6.5-9.3c1.7,4.5,2.9,9.7-1.7,12.4c-6.8,3.9-15.2,1.5-22.2-0.7
						c-9.8-3.1-20.2-6.4-30.5-7.1c-6.2-0.4-11.7,0.3-17.4,2.9c-3.9,1.8-7.8,3.6-12.1,3.8c-0.9,0-0.9-1-0.4-1.4
						c9.3-7.2,21.1-19.1,21.8-31.8c-1.9-0.6-3.9-1.1-5.9-1c-6.4,0.2-10.4,3.7-14.1,8c-2.2,3.9-5,7.4-9.3,9.6
						c-3.5,1.8-6.9,3.7-10.2,5.9c-3.9,2.6-2.5,8-0.6,11.5c0,0,0,0.1,0,0.1c2.9,5.5,6.1,11.9,11.9,14.5c9.1,4,18-2.8,26.6-5
						c19.1-4.8,38.1,0.4,57.4,0.6c3.2,0,7.6,0,10.3-1.9C489.3,509,489.7,504.7,488.1,500.8z"/>
				</g>
				<g>
					<path class="st3" d="M266.7,561.1h-0.1c-11.2,0-27.8-0.7-41.9-6.2c-7.9-3.1-16.2-7.4-25.3-13.2c-3.6-1.1-7.4-1.8-11.4-2.5
						c-11.2-2.1-22.8-4.3-29.6-14.4c-6.8-10.1-5-23.5,4.9-36.8c9.6-12.9,22.6-21.4,36.3-29.8c13.9-8.5,26.9-15.1,39.6-20.2
						c16.2-8.7,35.7-12.7,61.6-12.7c12.2,0,24.3,0.9,35.7,1.8c8.2,0.6,17.8,1.6,27.1,3.9c1.7,0.4,3.4,0.8,5.1,1.2
						c6.9,1.6,14,3.2,20.1,6.2c2.6,1.3,4.7,2.8,7,4.5c0.8,0.6,1.6,1.2,2.4,1.8c0.9,0.6,1.8,1.2,2.8,1.9c2.2,1.5,4.5,3,6.5,4.9
						c1.6,1.5,2.8,3.2,3.7,4.6l0.2,0.3l-0.1,0.3c0.8,1.1,1.5,2.3,2.1,3.7l0.1,0.2l0,0.2c0,0.1,0,0,0-0.1c0.2,1.8,0.1,3.5,0,5.3
						l0,0.4l-0.2,0.1c-1.9,9.8-9.9,18.9-13.3,22.4c-3.2,3.3-6.9,6.3-10.9,9.1c4.9,5.2,6.5,13.1,7.4,19.5c0.4,3.4,1.2,9.6-3.1,11.9
						c-3.1,1.6-6.5,1.8-9.7,1.8l0,0h-0.8h0c-5.8,0-11.2,0.9-16.2,1.9c-6.7,1.3-12.6,3.9-18.8,6.7c-2,0.9-4,1.8-6.1,2.6
						c-10.9,5.4-21.1,9.3-31.2,11.7l-0.9,0.2C295.6,557.6,281.1,561.1,266.7,561.1z"/>
					<path class="st4" d="M300.8,426.8c-25.6,0-45,4-61,12.6c-12.7,5-25.5,11.6-39.4,20.1c-13.5,8.3-26.5,16.8-35.9,29.4
						c-4.5,6-13.9,21.5-4.9,35c6.5,9.6,17.7,11.7,28.6,13.8c3.9,0.7,8,1.5,11.7,2.6l0.2,0.1c9.1,5.8,17.3,10.1,25.1,13.1
						c13.8,5.4,30.2,6.1,41.3,6.1l0.1,0.8v-0.8c14.2,0,28.6-3.5,42.6-6.8l0.9-0.2c10-2.4,20.1-6.2,30.9-11.6
						c2.1-0.9,4.1-1.7,6.1-2.6c6-2.7,12.3-5.4,19.1-6.8c5-1,10.5-2,16.3-2h0.9l0,0c3.1,0,6.2-0.1,8.9-1.6c3.2-1.7,2.9-6.2,2.3-10.4
						c-0.9-6.5-2.5-14.5-7.6-19.3l-0.7-0.7l0.8-0.5c4.3-2.9,8.1-6,11.4-9.4c3.4-3.4,11.4-12.4,13-21.9l0.1-0.6h0.1
						c0.1-1.6,0.1-2.9-0.1-4.3l0-0.1v0c-0.6-1.2-1.2-2.3-1.9-3.3c-0.2-0.3-0.2-0.6-0.2-0.9c-0.9-1.4-2-2.8-3.3-4.1
						c-1.9-1.8-4.1-3.3-6.3-4.7c-0.9-0.6-1.9-1.2-2.8-1.9c-0.8-0.6-1.7-1.2-2.5-1.8c-2.2-1.6-4.2-3.2-6.7-4.4
						c-5.9-2.9-13-4.5-19.8-6c-1.7-0.4-3.5-0.8-5.1-1.2c-9.2-2.2-18.7-3.2-26.9-3.8C325,427.7,312.9,426.8,300.8,426.8z"/>
					<path class="st5" d="M411.8,460.8l0-0.1v0c-0.6-1.2-1.2-2.3-1.9-3.3c-0.2-0.3-0.2-0.6-0.2-0.9c-0.9-1.4-2-2.8-3.3-4.1
						c-1.9-1.8-4.1-3.3-6.3-4.7c-0.9-0.6-1.9-1.2-2.8-1.9c-0.8-0.6-1.7-1.2-2.5-1.8c-2.2-1.6-4.2-3.2-6.7-4.4
						c-5.9-2.9-13-4.5-19.8-6c-1.7-0.4-3.5-0.8-5.1-1.2c-9.2-2.2-18.7-3.2-26.9-3.8c-11.3-0.9-23.4-1.8-35.5-1.8
						c-25.6,0-45,4-61,12.6c-6.3,2.5-12.7,5.4-19.3,8.8c9.9-0.4,18.8,1.9,27.8,6.7c5.6,3,11.2,5.9,17.6,7c6.4,1.1,40.9,9.6,40.5,9.8
						c-6.8,3.7-14,6.5-20.7,10.3c-6.9,4-13.9,8.1-20.1,13.2c-3.5,3-7.7,6.2-10,10.2c-1.7,3.1-1,6.4,3.2,5.9c2-0.2,4-0.7,6-0.9
						c0.6-0.1,0.9,0.7,0.7,1.2c-1.8,3.7-10.3,11.3-6.9,15.7c3.1,4,10.5,2.1,14.6,1.4c13.2-2.5,24.4-9.7,37.2-13.3
						c0.8-0.2,1.2,0.7,0.8,1.3c-5.5,6.3-13.1,9.8-20.3,13.7c-7.7,4.2-16,7.6-24.5,9.6c-13.7,3.3-26.8,2.7-39.9-2.6
						c-4.5-1.8-9.6-4.5-11.9-9c-2.5-4.9,0.9-12.1,3.3-16.4c3.4-6.4,7.7-13.1,12.9-18.3c6-5.9,13.4-10.1,19.5-15.9
						c-4.9,0.4-9.6,3.5-13.6,6c-4.5,2.9-9.1,5.8-13.6,8.6c-9.7,6-19.5,11.2-30.9,12.9c-12,1.8-25.7,0.5-32.2-9
						c-3.8,7.5-6.7,18-0.3,27.6c6.5,9.6,17.7,11.7,28.6,13.8c3.9,0.7,8,1.5,11.7,2.6l0.2,0.1c9.1,5.8,17.3,10.1,25.1,13.1
						c13.8,5.4,30.2,6.1,41.3,6.1l0.1,0.8v-0.8c14.2,0,28.6-3.5,42.6-6.8l0.9-0.2c10-2.4,20.1-6.2,30.9-11.6
						c2.1-0.9,4.1-1.7,6.1-2.6c6-2.7,12.3-5.4,19.1-6.8c5-1,10.5-2,16.3-2h0.9c3.1,0,6.2-0.1,8.9-1.6c3.2-1.7,2.9-6.2,2.3-10.4
						c-0.9-6.5-2.5-14.5-7.6-19.3l-0.7-0.7l0.8-0.5c4.3-2.9,8.1-6,11.4-9.4c3.4-3.4,11.4-12.4,13-21.9l0.1-0.6h0.1
						C412,463.6,412,462.2,411.8,460.8z"/>
					<path class="st5" d="M206.7,529.5c1.1-13.5,9.4-26.7,19.6-36.4c-10.1,6.5-19.6,14.3-25.4,24.9c-1.9,3.5-3.7,7.1-5.6,10.6
						c-0.4,0.7-0.8,1.7-1.7,1.9c-4.1,1-8.1,1.2-12.3,0.6c-7.7-1.1-19.2-3.9-23.8-11.3c0.6,1.3,1.3,2.7,2.1,4
						c6.5,9.6,17.7,11.7,28.6,13.8c3.9,0.7,8,1.5,11.7,2.6l0.2,0.1c4.8,3.1,9.4,5.7,13.8,8C209.2,543,206.1,536.5,206.7,529.5z"/>
					<path class="st5" d="M296.3,543.5c3.7-2.5,4.5-5.7,5.4-9.3c-6.6,5.4-13.4,10.3-20.7,14.8C286.4,548,292,546.4,296.3,543.5z"/>
					<path class="st5" d="M411.8,460.8l0-0.1v0c-0.6-1.2-1.2-2.3-1.9-3.3c-0.2-0.3-0.2-0.6-0.2-0.9c-0.9-1.4-2-2.8-3.3-4.1
						c-1.9-1.8-4.1-3.3-6.3-4.7c-0.9-0.6-1.9-1.2-2.8-1.9c-0.8-0.6-1.7-1.2-2.5-1.8c-2.2-1.6-4.2-3.2-6.7-4.4
						c-5.9-2.9-13-4.5-19.8-6c-1.7-0.4-3.5-0.8-5.1-1.2c-9.2-2.2-18.7-3.2-26.9-3.8c-11.3-0.9-23.4-1.8-35.5-1.8
						c-25.6,0-45,4-61,12.6c-2,0.8-4.1,1.7-6.1,2.6c1.4,0.2,2.8,0.4,4.2,0.9c5.4,1.7,10.6,4.3,15.5,7c5.5,3,10.7,6.3,16.5,8.6
						c5.1,2,10.3,3.6,15.5,5c12.2,3.4,24.5,6.6,37.1,8.5c12.5,1.9,25,1.1,37.5,2.7c0.8,0.1,1.1,1,0.4,1.4
						c-11.4,8-24.5,13.5-36.8,19.9c-6.5,3.4-13.2,6.8-18.9,11.6c-4,3.4-7.3,7.5-10.9,11.4c6.7-3.2,13.5-6.3,20.1-9.8
						c3.1-1.7,6.4-3.4,9.9-4.3c3.9-1,7.8-1.5,11.7-2.4c8.9-2.1,16.7-6.3,24.9-10.3c7.4-3.6,14.9-7,22.7-9.5c0.8-0.2,1.2,0.7,0.8,1.3
						c-10.1,12.8-24.8,20.4-39.6,26.5c-16.5,6.8-33.1,13.2-50.1,18.5c5.7-0.3,11.4-1.7,17-2.8c6.9-1.3,13.7-1.4,20.6-2.1
						c14.8-1.4,29.2-5,43.1-10.3c0.4-0.2,0.8,0.2,1,0.5c1.6,3.8,1.7,7.7,1,11.7c-0.1,0.5-0.7,0.7-1.1,0.5c-2.1-1.6-4.1-3.5-6.2-5.1
						c-1.5,3.7-4.8,5.9-8.5,7.5c-5.6,2.4-11.2,4.8-16.7,7.3c-13.3,6-26.6,12.4-40.5,16.7c-7.1,2.2-14.4,4.1-21.8,5.5
						c9.2-1.3,18.4-3.5,27.4-5.6l0.9-0.2c10-2.4,20.1-6.2,30.9-11.6c2.1-0.9,4.1-1.7,6.1-2.6c6-2.7,12.3-5.4,19.1-6.8
						c5-1,10.5-2,16.3-2h0.9c3.1,0,6.2-0.1,8.9-1.6c3.2-1.7,2.9-6.2,2.3-10.4c-0.9-6.5-2.5-14.5-7.6-19.3l-0.7-0.7l0.8-0.5
						c4.3-2.9,8.1-6,11.4-9.4c3.4-3.4,11.4-12.4,13-21.9l0.1-0.6h0.1C412,463.6,412,462.2,411.8,460.8z"/>
					<path class="st5" d="M393.8,493.4c-1.1,1.2-3.1,2.2-4.6,3c-2.1,1.1-3.9,2.5-6,3.5c-4.8,2.1-9.3,4.7-14.2,6.5
						c-9.1,3.3-17.5,8.3-26.7,11.2c-9.8,3.1-19.6,5.5-29.8,6.4c-9.7,0.8-18.2,3.7-26.7,8.1c-0.2,0.1-0.4,0.7,0,0.5
						c4.6-1.5,8.8-3.6,13.6-4.8c4.6-1.1,9.2-1.5,13.9-1.9c-2.3,3.9-4.6,7.4-8.1,10.3c-1,0.8-10.6,7.1-10.5,7.5
						c-0.1-0.3-0.5,0.1-0.5,0.2c0,0.1,0,0.2,0,0.3c0,0.2,0.1,0.2,0.3,0.2c4.5-1.1,8.9-4.9,12.4-7.8c3.2-2.7,6.7-6.8,8.1-10.9
						c0.4,0,0.9-0.1,1.3-0.1c10.1-0.9,20.3-4,29.7-7.4c9.5-3.5,19-7.9,28.2-12.2c4.2-2,8.5-3.9,12.3-6.5c2.3-1.5,6.2-3.6,7.7-6
						C394,493.3,393.9,493.3,393.8,493.4z"/>
				</g>
				<path class="st5" d="M275.9,465.4c-16.1,5.9-31.2,12.6-44.7,23.5c-12.6,10.3-21.3,24.3-22.4,40.7c-0.1,0.9,1.1,0.1,1.2-0.4
					c1-7.9,2.9-15.3,6.8-22.3c3.8-6.9,9.7-12.8,15.8-17.9c12.9-10.7,27.8-17,43.2-23.2C276,465.8,276.1,465.3,275.9,465.4z"/>
			</g>
			<path class="st4" d="M415.1,461.2L415.1,461.2c-1-16.9-6.3-33.8-13-49.2c-1.8-4.1-3.7-8-3.8-12.5c-0.1-3.7,0.8-7.4,0.9-11.2
				c0.1-7.8-6.6-12.9-7.9-20.3c1.8-12.1,1.9-24.9,0-36.6c-0.8-11.5-2.5-22.9-5.1-34c-2.1-8.7,19.9-11.9,15.4-19.7
				c-4.9-8.5-32-15.2-37.6-16.7c0-0.1-0.1-0.2-0.2-0.2c-6.4-1.9-13.1-3.5-19.7-4.1c-0.9-2.1-1.9-4.2-2.9-6.2c-1-2.1-1.8-4.3-3.1-6.2
				c-2.4-3.5-7-2.3-10.1-0.5c0,0,0,0-0.1,0c-0.3-1-0.5-2-0.7-3v0c0,0,0,0,0,0c0-0.2-0.1-0.4-0.1-0.7c0,0,0,0.1,0,0.1
				c-2.4-7.2-22,2-23.7,7.5c0,0.1-0.1,0.3,0,0.4c0.5,0.6,0.5,0.6,0.8,0.8c0.6,0.8,1,1.7,1.5,2.7c-2.6,1.8-5.5,3-7,5.9
				c-0.8,1.6-1,3.9-0.8,6.2c-2.6,1.4-5.5,2.5-8.2,3.7c-8.9,3-17.3,6.7-23.8,13.9c-7.1,7.8-8.4,19.4-8.9,29.4
				c-1.2,21.4,2.3,42.9,4.8,64.2c-0.1,0.2-0.2,0.5-0.3,0.8c0.2,5.5,0.6,11.1,1,16.5c0.5,7.7,1.7,15.4,3.6,22.9
				c-1.5,0.1-2.6,0-3.6,1.5c-0.6,0.9-0.8,2-1,3.1c-5.4,7.3-13.1,10-21,14c-2.3,1.1-7.4,5-2.6,6.6c0.2,0,0.4,0,0.5-0.2
				c7,1.7,14.1,4.2,21,6.3c7,2.1,13.1,5.8,19.5,9.2c12.6,6.7,24.6,11.7,39.2,10.7c8.3-0.6,16.2-1.6,24.4-0.6
				c8.1,1,13.8,4.5,20.3,8.9c7.1,4.8,11.9-4.7,13.8-10.5c0.4,3.7,1.3,8.7,4.4,10.6c4.3,2.7,10.1,0.8,14.6-0.4
				c5.9-1.6,11.7-4.4,17.1-7.3c0.6-0.3,1.2-0.7,1.6-1.1c0.1-0.2,0.2-0.4,0.3-0.6C415.3,464,415,462.7,415.1,461.2z"/>
			<path class="st6" d="M304.8,249.2c0-0.1,0.1-0.1,0-0.2c-2.2-3.2,5.4-6.2,6.9-7c3.3-1.8,12.6-6.4,14.7-0.7c0,0.1,0.1,0.1,0.2,0.1
				c0.2,1.3,0.5,2.6,0.8,3.9c0.4,1.8,0.9,3.9,2.1,5.4c-2.7,3.7-7.3,5.7-11.6,7.5c-1.5,0.6-3,1.2-4.6,1.8c-1.7,0.7-3.1,0.8-4.4,0.6
				c-0.1-2.4-1-4.7-2-6.8C306.4,252.2,305.8,250.6,304.8,249.2z"/>
			<path class="st7" d="M304.8,249.2c0-0.1,0.1-0.1,0-0.2c-2.2-3.2,5.4-6.2,6.9-7c3.3-1.8,12.6-6.4,14.7-0.7c0,0.1,0.1,0.1,0.2,0.1
				c0.2,1.3,0.5,2.6,0.8,3.9c0.4,1.8,0.9,3.9,2.1,5.4c-2.7,3.7-7.3,5.7-11.6,7.5c-1.5,0.6-3,1.2-4.6,1.8c-1.7,0.7-3.1,0.8-4.4,0.6
				c-0.1-2.4-1-4.7-2-6.8C306.4,252.2,305.8,250.6,304.8,249.2z"/>
			<path class="st7" d="M327.5,245.3c-0.3-1.3-0.6-2.6-0.8-3.9c-0.1,0-0.2,0-0.2-0.1c-2.2-5.7-11.4-1-14.7,0.7
				c-1.6,0.8-9.2,3.8-6.9,7c0,0.1,0,0.1,0,0.2c0.2,0.3,0.4,0.7,0.6,1c4.3,0.6,8.9-1.7,13.4-0.6c1,0.2,1.5,1.3,1.8,2.1
				c0.6,1.5,1.1,3.1,1.5,4.6c2.9-1.4,5.6-3.2,7.4-5.7C328.4,249.2,328,247.1,327.5,245.3z"/>
			<path class="st1" d="M299.1,258.6c0.4-3.2,4.6-4.6,6.7-6.6c1.1,2.8,1.8,5.8,2.5,8.5c-1.4-0.4-2.8-1.2-4.2-2.1
				c0.2,0.5,0.5,1,0.8,1.5c1.5,1.4,2.9,2.2,5.5,2.1c3.2-0.1,6.7-2.2,9.5-3.4c3.9-1.7,8.1-3.9,10.6-7.3c0.1,0,0.1-0.1,0.1-0.1
				c0.5-0.8,1-1.6,1.3-2.4c0.1-0.8,0.1-1.7,0-2.5c-0.1,0.1-0.1,0.2-0.2,0.3c-0.3,1.4-0.8,2.6-1.5,3.7c-0.8-1.9-1.5-3.8-2.1-5.8
				c0,0,0,0,0,0c1.9-0.6,3.7-1.2,5.7-1.1c2.9,0.1,4.3,3.1,5.3,5.4c1.6,3.7,3.2,7.6,5.3,11c0.5,3.8-7.8,9-9.6,10.3
				c-4.2,3-9.3,4.8-14.2,6.2c-9.2,2.6-18.3,0.9-21.3-8.5C298.8,264.6,298.7,261.5,299.1,258.6z"/>
			<path class="st1" d="M339,248.5c-1-2.2-2.4-5.3-5.3-5.4c-2-0.1-3.8,0.5-5.7,1.1c0,0,0,0,0,0c0.6,2,1.3,3.9,2.1,5.8
				c0.7-1.1,1.2-2.3,1.5-3.7c0-0.1,0.1-0.2,0.2-0.3c0.1,0.8,0.1,1.7,0,2.5c-0.3,0.9-0.8,1.7-1.3,2.4c0,0-0.1,0.1-0.1,0.1
				c-2.5,3.4-6.7,5.6-10.6,7.3c-2.8,1.2-6.3,3.4-9.5,3.4c-2.6,0-4-0.8-5.5-2.1c-0.3-0.5-0.5-1-0.8-1.5c1.5,0.9,2.8,1.7,4.2,2.1
				c-0.7-2.6-1.3-5.7-2.5-8.5c-1.7,1.7-4.8,2.9-6.1,5.1c0.2,3,5.6,5,7.8,5.5c6.6,1.5,14.1,0.6,19.5-3.6c0.6-0.5,1.7,0.1,1.2,0.9
				c-2.4,3.7-4.9,7.3-8.5,9.6c1.9-0.3,3.7-0.7,5.5-1.3c0.4-0.1,0.8,0.2,0.9,0.6c0.8,3.2-0.6,5.2-2.9,6.1c0,0.1,0,0.1,0.1,0.2
				c4-1.3,7.9-2.9,11.3-5.3c1.8-1.3,10.1-6.6,9.6-10.3C342.1,256.1,340.6,252.2,339,248.5z"/>
			<path class="st1" d="M392.3,474.2c-3.9,0.9-8.3,1.9-11.5-1c-2.5-2.2-3.1-7-3.9-10.1c0-0.1,0-0.1,0.1-0.2c0.1-0.4-0.5-0.2-0.6,0
				c-1,2.7-1.9,5.4-3.4,7.8c-1.7,2.9-4.5,4.1-8.3,3.7c-1.5-0.5-3-1.9-4.2-2.9c-4-3.2-8.9-4.8-13.8-6c-12.8-3.1-25.5,1.1-38.4-0.1
				c-12.6-1.2-24.2-7.8-35-13.9c-5.5-3.1-11.1-5.2-17.2-6.9c-5.6-1.6-11.6-4.2-17.5-4.8c0-0.1-0.1-0.1-0.2-0.2
				c-4.6-2.6,5-6.4,6.6-7.2c2.4-1.1,4.8-2.2,7-3.5c3.5-2,7.1-4.4,9.2-8c0,0.4-0.1,0.7-0.1,1.1c-0.1,0.4,0.4,0.2,0.5-0.1
				c0.5-1.1,0.8-2.4,1.1-3.6c0.3-1.1,0.7-2.2,2.1-2.4c0.5-0.1,1-0.1,1.4-0.3c0.8,2.7,1.6,5.5,2.6,8.1c0.1,0.2,0.3-0.1,0.3-0.2
				c-0.9-2.8-1.6-5.5-2.2-8.3c0.1-0.1,0.1-0.2-0.1-0.2c-1.7-7.6-2.7-15.4-3.3-23.3c-0.3-3.2-0.5-6.5-0.8-9.7c0.2,0,0.4-0.3,0.4-0.4
				c0.1-10-1.3-19.8-2.4-29.7c-1.2-11-2-21.9-2.3-33c-0.2-10.9,0.3-23,5.5-32.8c4.5-8.5,14.1-13,22.8-16.9c-0.1,0.2-0.1,0.4-0.2,0.6
				c2.5-0.9,4.9-2,7.3-3.2c1.3-0.6,2.8-1.2,4.1-2.1c0.6,3.6,2,7,4.2,9.8c1,0.9,2.1,1.8,3.4,2.6c5.2,3,13.1,0.4,18.2-1.2
				c5.8-1.8,11.1-4.6,15.8-8.5c2.7-2.3,7.3-5.4,5.1-9.2c0,0,0,0,0,0c-0.1-0.3-0.2-0.6-0.4-0.8c6.2,1.8,12.6,3,18.9,4.6
				c0.1,0,0.3,0,0.4-0.1c13.1,6.5,39.5,12.3,42.7,25.4c4.5,18.8-14.4,52-15,71.2l0,0c-0.5,7.4-1.5,14.8-2.9,22
				c-0.1,0.3,0.4,0.1,0.4-0.1c0.9-3.5,1.7-7.1,2.3-10.8c1,6.5,6.2,11.2,6.9,17.9c0.4,3.6-0.7,7.4-0.9,11.1c-0.2,3.7,0.6,5.9,2.2,9.2
				c8.1,16.9,13.6,36.6,15.3,55.3C413.5,468.9,396.1,473.3,392.3,474.2z"/>
			<path class="st1" d="M260.9,296.5c2.6-6.9,6.4-13.5,12.4-18c4.5-3.3,9.9-5.8,14.5-9.2c-0.4,0.2-0.9,0.3-1.3,0.5
				c0.1-0.2,0.1-0.4,0.2-0.6c-8.7,3.9-18.3,8.5-22.8,16.9c-2.7,5.1-4.1,10.8-4.9,16.6C259.5,300.6,260.2,298.6,260.9,296.5z"/>
			<path class="st1" d="M297.8,264.6c-0.4,0.3-0.8,0.5-1.3,0.7c-0.5,2.6-0.4,5.3,0.3,7.8c2.7,9.2,13,11.9,21.6,10.3
				c13.7-2.5,21.7-14.3,29.6-25.2c-1.3-0.3-2.7-0.7-4-1.1c0.1,0.3,0.2,0.5,0.3,0.8c0,0,0,0,0,0c2.2,3.8-2.4,6.9-5.1,9.2
				c-4.7,3.9-9.9,6.7-15.8,8.5c-5.1,1.6-13.1,4.2-18.2,1.2c-1.3-0.8-2.4-1.6-3.4-2.6C299.8,271.6,298.4,268.2,297.8,264.6z"/>
			<path class="st1" d="M399.3,407.6c-1.6-3.3-2.4-5.5-2.2-9.2c0.2-3.6,1.3-7.4,0.9-11.1c-0.7-6.8-6-11.4-6.9-17.9
				c-0.6,3.7-1.4,7.3-2.3,10.8c-0.1,0.2-0.5,0.4-0.4,0.1c1.3-7.2,2.3-14.6,2.9-22l0,0c0.6-19.3,19.5-52.5,15-71.2
				c-1.8-7.2-10.6-12.2-20.3-16.3c-2.3,0.6-4.4,1.5-6.4,2.9c-9.1,6.7-12.5,19.5-14.5,30.1c-3.5,18.5-4.1,37.5-8,55.9
				c-3.2,15-9.4,31.2-23.6,38.9c-14.5,7.9-33.5,4.6-46.6-4.7c-14.2-10.1-22.3-27.2-26.3-43.8c0.1,0.6,0.1,1.2,0.2,1.8
				c1.1,9.9,2.5,19.7,2.4,29.7c0,0.1-0.2,0.4-0.4,0.4c0.2,3.2,0.5,6.5,0.8,9.7c0.7,7.9,1.6,15.6,3.3,23.3c0.1,0,0.1,0.1,0.1,0.2
				c0.6,2.8,1.4,5.6,2.2,8.3c0,0.1-0.2,0.3-0.3,0.2c-1-2.7-1.9-5.4-2.6-8.1c-0.5,0.1-0.9,0.2-1.4,0.3c-1.4,0.2-1.8,1.3-2.1,2.4
				c-0.3,1.2-0.5,2.5-1.1,3.6c-0.1,0.2-0.6,0.4-0.5,0.1c0.1-0.4,0.1-0.7,0.1-1.1c-2.1,3.5-5.6,5.9-9.2,8c-2.3,1.3-4.7,2.3-7,3.5
				c-1.6,0.7-11.1,4.6-6.6,7.2c0.1,0,0.1,0.1,0.2,0.2c5.9,0.7,11.8,3.2,17.5,4.8c6.1,1.7,11.7,3.8,17.2,6.9
				c10.8,6.1,22.4,12.7,35,13.9c12.9,1.3,25.5-3,38.4,0.1c4.9,1.2,9.8,2.8,13.8,6c1.2,1,2.7,2.4,4.2,2.9c3.8,0.4,6.6-0.8,8.3-3.7
				c1.5-2.5,2.3-5.1,3.4-7.8c0.1-0.3,0.8-0.5,0.6,0c0,0.1,0,0.1-0.1,0.2c0.9,3.1,1.5,7.9,3.9,10.1c3.2,2.9,7.7,2,11.5,1
				c3.8-0.9,21.1-5.3,22.2-11.3C412.9,444.3,407.4,424.5,399.3,407.6z"/>
			<path class="st1" d="M283.2,437.6c-6.6-9-11.4-19.2-15.1-29.7c-1.5-4-3-8.2-4.4-12.3c0.6,6.6,1.5,13.1,3,19.6
				c0.1,0,0.1,0.1,0.1,0.2c0.2,0.8,0.4,1.6,0.6,2.4C271.2,425.3,276.4,432,283.2,437.6z"/>
			<path class="st1" d="M399.3,407.6c-1.6-3.3-2.4-5.5-2.2-9.2c0.2-3.6,1.3-7.4,0.9-11.1c-0.7-6.8-6-11.4-6.9-17.9
				c-0.6,3.7-1.4,7.3-2.3,10.8c-0.1,0.2-0.5,0.4-0.4,0.1c1.3-7.2,2.3-14.6,2.9-22l0,0c0.6-19.3,19.5-52.5,15-71.2
				c-1.8-7.2-10.6-12.2-20.3-16.3c-2.3,0.6-4.4,1.5-6.4,2.9c-9.1,6.7-12.5,19.5-14.5,30.1c-3.5,18.5-4.1,37.5-8,55.9
				c-3.2,15-9.4,31.2-23.6,38.9c-8.8,4.8-19.2,5.4-28.9,3.2c18.1,6.9,40.8,1,55.1-12.7c0.5-0.5,1.3-0.1,1.3,0.5
				c1.1,12.2-5.6,22.5-13.9,30.8c-10.2,10.1-21.4,19.4-32.9,28c-4.8,3.6-10.2,5.9-16.3,5c-6.4-1-11.7-4.1-17.3-7.3
				c-6.7-3.8-13.8-7.5-21.4-8.9c-7.1-1.3-14.2-0.4-21.4-0.5c-0.7,1-0.7,1.9,0.7,2.8c0.1,0,0.1,0.1,0.2,0.2
				c5.9,0.7,11.8,3.2,17.5,4.8c6.1,1.7,11.7,3.8,17.2,6.9c10.8,6.1,22.4,12.7,35,13.9c12.9,1.3,25.5-3,38.4,0.1
				c4.9,1.2,9.8,2.8,13.8,6c1.2,1,2.7,2.4,4.2,2.9c3.8,0.4,6.6-0.8,8.3-3.7c1.5-2.5,2.3-5.1,3.4-7.8c0.1-0.3,0.8-0.5,0.6,0
				c0,0.1,0,0.1-0.1,0.2c0.9,3.1,1.5,7.9,3.9,10.1c3.2,2.9,7.7,2,11.5,1c3.8-0.9,21.1-5.3,22.2-11.3
				C412.9,444.3,407.4,424.5,399.3,407.6z"/>
			<g>
				<g>
					<path class="st4" d="M423.5,367.1c-1.9-11.7-3.4-23.5-5.6-35.2c-1.1-5.7-2.1-11.5-3.5-17.3c-0.4-2-0.7-4-1.1-6
						c-1.1-6.2-1.9-12.5-3.7-18.5c-1.7-5.8-5.7-11.2-10.2-15.1c-7-6.2-14.8-4.5-21.1,0.6c3.2-1.1,6.6-1.3,10.3,0.2
						c0.6,0.2,0.8,1.1,0.2,1.4c-11.1,5.9-18.5,19.4-20.8,31.5c-0.9,5-1.3,10.1-1.4,15.2c0.2,1.6,0.4,3.2,0.7,4.8
						c2.1,12.6,4.2,25.3,6.7,37.9c1.2,6,2.2,12.1,3.1,18.1c0.9,6.2,0.8,12.3,1.1,18.6c-3.6,1.7-6.7,4.2-9.4,7.4
						c-8.7,4.7-16.2,12.3-23,19c-6.6,6.4-12.8,13.2-19.4,19.6c-3.2,3.1-6.7,6.3-10.6,8.7c-2.2,1.3-4.8,2.4-5.9,5
						c-4.8,12,7.6,21.8,17.4,25.3c6.2,2.3,14,4.4,20.5,2.5c2.8-0.8,4.3-3.1,5-5.7c6.2-6.4,14-11.8,21-17.3
						c8.3-6.4,16.7-12.7,24.6-19.6c7.1-6.2,13.9-13.1,19.2-20.9c2.1-3.1,4.2-6.7,5.7-10.5c0.7-3.9,1-7.9,1.2-11.4
						c0.6-7.1,0.6-14.3,0.6-21.4C425,378.2,424.4,372.6,423.5,367.1z"/>
					<path class="st1" d="M423.8,403.7c-0.1,3-0.5,6-1,8.9c-0.5,3-1.8,5.8-2.7,8.7c-6.2,11.5-16.8,21.1-26.4,29.2
						c-7.3,6.1-15,11.7-22.4,17.6c-5.8,4.6-12.3,9.1-17.6,14.3c0.1-0.9,0.2-1.9,0.2-2.8c0-0.2-0.1-0.3-0.2-0.3
						c-0.4,0.9-0.8,1.8-1.2,2.7c-0.1,0.7-0.2,1.3-0.3,2c-0.3,0.3-0.3,0.7-0.3,1c-0.5,1.7-1.5,3.2-3.5,4.1c-3.4,1.5-7.9,0.5-11.3-0.2
						c-5.2-1.1-10.4-2.7-15-5.3c-4.5-2.5-8.1-6.3-10.1-11.1c-1.6-4-2-9.3,2.2-12c2.3-1.5,4.6-2.8,6.7-4.5
						c20-15.9,34.9-42.5,60.9-48.9c0.4-0.3,0.8-0.6,1.2-0.9c-3.9,0.3-7.6,1.4-11,3c6.2-5,12.9-7.3,21.3-6.6
						c6.1,0.5,11.7,2.5,16.8,5.6c-1.2-1.3-2.4-2.6-3.8-3.7c-0.4-0.3-0.8-0.6-1.2-0.9c-4.2-1.8-9-2.7-13.7-2.9
						c-4.3-0.2-8.3,0.6-12,2.2c1-10.5-0.6-21.4-2.4-31.8c-2-11.6-4.3-23.1-6.3-34.7c-1.8-10.8-3.2-21.2-3.1-32.1
						c0.9-5.9,1.8-11.9,4-17.3c1.1-2.2,2.4-4.6,3.9-6.7c0.2-0.3,0.5-0.6,0.7-0.9c3.9-4.6,9.6-7.8,15.7-6.2
						c5.6,1.5,9.7,6.6,12.8,11.2c3.1,4.6,4.3,9.8,5.2,15.2c1,5.9,2.1,11.7,3.3,17.5c2,9.8,3.4,19.9,5.7,29.7
						c0.9,6.1,1.8,12.2,2.8,18.3c1.5,8.9,2,17.7,2.6,26.7C424,395.8,423.9,399.8,423.8,403.7z"/>
					<path class="st1" d="M376.8,371.1c1.8,10.3,3.4,21.2,2.4,31.8c1.4-0.6,2.9-1.1,4.5-1.5c0.8-3.2,0.2-7.6,0-10.7
						c-0.3-3.8-0.7-7.6-1.3-11.4c-1.1-6.8-2.6-13.5-4.1-20.1c-2.4-10.6-4.9-21.2-6.7-32c-2.3-13.4-3.9-28.6,0.7-41.5
						c-0.2,0.5-0.5,1-0.8,1.5c-2.3,5.4-3.2,11.4-4,17.3c-0.1,10.9,1.2,21.3,3.1,32.1C372.5,348.1,374.7,359.6,376.8,371.1z"/>
					<path class="st1" d="M335.9,442.8c7.7-6.9,15.2-14.1,23.2-20.8c7.9-6.7,23.4-17.5,34.6-12.4c-1.8-1.7-4-3-6.5-3.9
						c-0.7-0.3-0.8-1.3,0-1.5c2.6-0.7,5.2-1.1,7.8-1.3c-0.6-0.1-1.2-0.1-1.8-0.2c-8.4-0.7-15.2,1.7-21.3,6.6c3.5-1.6,7.2-2.7,11-3
						c-0.4,0.3-0.8,0.6-1.2,0.9c-21.8,5.3-35.8,24.9-51.6,40.4C332.1,446,334,444.4,335.9,442.8z"/>
					<path class="st1" d="M421.5,365.1c-1-6.1-1.9-12.2-2.8-18.3c-2.2-9.8-3.7-19.8-5.7-29.7c-1.2-5.8-2.3-11.7-3.3-17.5
						c-0.9-5.4-2.1-10.6-5.2-15.2c-3-4.6-7.2-9.7-12.8-11.2c-6.1-1.6-11.8,1.6-15.7,6.2c-0.3,0.3-0.5,0.6-0.7,0.9
						c-0.1,0.1-0.2,0.3-0.2,0.4c2.2-2,4.8-3.6,7.7-3.9c6.7-0.8,10.1,4.8,12.1,10.3c3.2,8.6,5.7,17.3,6.9,26.5
						c2.9,21.3,5,42.6,6.8,64c0.4,4.7,0.9,9.4,1.2,14.1c0.2,3.2,0.1,6.2-2.6,8.3c-2.1,1.6-5.5,1.2-7.9,1.1c-1.5,0-2.9,0-4.4,0
						c3.4,0.4,6.8,1.2,9.9,2.6c0.4,0.3,0.8,0.6,1.2,0.9c1.4,1.1,2.6,2.4,3.8,3.7c-5.1-3.1-10.7-5.1-16.8-5.6
						c-0.7-0.1-1.4-0.1-2.1-0.1c6.5,2.1,11.7,6.7,15,13.5c0.4,0.8-0.6,1.6-1.2,0.9c-4.1-4.3-9.5-6.6-15.1-7.8
						c6.6,4.4,10.5,12.2,5,19.7c-8.4,11.5-19.3,20.1-29.4,29.9c-4.6,4.4-12.5,16.4-20,11c-2.5-1.8-4.7-4.2-7.5-5.4
						c-3.5-1.6-6.8-2.6-10.6-3.2c-5.6-0.9-11-1.4-15.4,1.6c-1.7,2.8-1.2,6.7,0.1,9.7c1.9,4.8,5.5,8.6,10.1,11.1
						c4.7,2.6,9.8,4.2,15,5.3c3.4,0.7,7.9,1.8,11.3,0.2c2-0.9,3-2.4,3.5-4.1c-0.1-0.3,0-0.7,0.3-1c0.1-0.7,0.3-1.3,0.3-2
						c0.4-0.9,0.8-1.8,1.2-2.7c0.1,0,0.2,0.1,0.2,0.3c0,0.9,0,1.8-0.2,2.8c5.3-5.3,11.8-9.7,17.6-14.3c7.4-5.9,15.1-11.5,22.4-17.6
						c9.6-8.1,20.2-17.7,26.4-29.2c1-2.9,2.2-5.7,2.7-8.7c0.5-2.9,0.9-5.9,1-8.9c0.1-4,0.2-8,0.3-11.9
						C423.5,382.9,423,374,421.5,365.1z"/>
				</g>
				<g>
					<path class="st8" d="M343.3,480.1c-4.4-5.2-10-9.5-16.1-11.9c-4.4-1.7-12-4.8-13.1,0.9c-6.2,4.3-13.7,6.6-20,10.7
						c-0.6,0.4-1.2,0.8-1.7,1.2c-2.8,1.9-10.9,8.4-11.6,9c-2.7,2.2-5.4,4.3-8.3,6.2c-2.2,1.4-4.8,2.3-6.8,3.9
						c-2.2,1.7-3.7,3.7-1.5,6.1c2.2,2.5,6,0.7,8.4-1c-0.9,1.5-1.7,3-2.5,4.6c-1.4,2.7-2.8,5.5-4.2,8.3c-0.8,1.6-1.6,3-1.3,4.8
						c0.6,3.3,5.5,0,7.4-1.5c-0.1,0.8-0.1,1.6,0.2,2.2c1.2,2.4,4,1.5,6.1,0.4c0.1,0.6,0.5,1.1,1.3,1.5c2.3,1,4.8-1.1,6.6-3.1l0,0
						c3.2,4.2,10-1.8,12.4-4.1c2.3-2.2,4.3-4.8,6.4-7.2c0.4-0.5,0.9-0.9,1.3-1.3c1.4-1.6,2.9-2.9,4.8-3.8c1.7-0.8,3.3-1.4,5-2.1
						c0.4-0.2,0.8-0.4,1.3-0.6c4-1.8,7.9-2.8,11.5-5.5c3.4-2.5,6.7-6.8,7.9-11.2c0.5-0.5,0.9-1,1.4-1.4c1.4-1.2,3.1-2.2,4.5-3.4
						c0.9,0.9,1.7,1.9,2.6,2.9C344.5,483.1,343.8,481.6,343.3,480.1z"/>
					<path class="st6" d="M341.6,481.8c-0.6,0.3-1.2,0.7-1.7,1c-0.9,0.6-1.8,1.3-2.6,2c0,0,0,0-0.1,0.1c-1.5,3.5-3.6,7.3-6.6,9.6
						c-2.7,2.6-5.5,4.5-9.1,6.1c-1.3,0.6-2.6,1.1-4,1.7c-4.3,1.4-8.1,3.2-11.5,6.4c-4,3.7-6.9,8.5-11.5,11.7c-1.9,1.4-3.8,2.2-6.3,2
						c-1.3-0.1-1.3-0.9-0.9-1.8c0.1-0.1,0.2-0.2,0.2-0.3c0-0.1,0.1-0.1,0.1-0.2c0.8-1.2,2.1-2.5,2-2.4c2-2.2,4-4.4,5.8-6.7
						c1-1.3,1.9-2.6,2.8-3.8c0.9-0.9,1.7-1.8,2.6-2.6c2.3-2,5.5-3.2,8.3-4.6c-4.6,1.2-8.7,3.5-11.8,7c-0.4,0.6-0.9,1.2-1.3,1.8
						c-0.4,0.5-0.8,1-1.2,1.4c0,0,0,0.1,0,0.1c-2.1,2.7-4.5,5.1-6.7,7.7c-0.4,0.4-2,2.1-2.3,3.4c-0.9,0.8-1.8,1.6-2.9,2.3
						c-2.6,1.5-3.5,0.1-2.6-4c0.4-0.8,0.9-1.6,1.3-2.4c1.6-2.8,3-5.7,4.5-8.7c0.3-0.6,0.7-1.2,1-1.8c0.4-0.5,0.8-1,1.3-1.4
						c1.4-1.3,3.1-2.5,4.7-3.6c1.3-0.9,2.7-1.8,4.1-2.7c-1.6,0.8-3.2,1.4-4.6,2.3c-0.8,0.5-1.6,1-2.5,1.5c-0.1,0.1-0.3,0.2-0.4,0.3
						c0,0,0.1-0.1,0.1-0.1c-1.1,0.7-2.1,1.4-3,2.3c-2.7,3.9-4.5,8.7-6.7,12.7c-0.6,1.2-1.9,3.1-2.1,4.7c-1.1,0.5-2.2,0.8-3.6,0.6
						c-2.9-0.3-0.2-5.6,0.1-6.6c1.1-2.9,2.2-5.8,3.4-8.7c0.3-0.8,0.7-1.6,1.2-2.3c2.6-3.9,6.5-6.9,10.3-9.7c-2.6,1.4-5,2.9-7.3,4.7
						c-1.3,1.3-2.5,2.7-3.3,4.2c-1.6,2.4-2.7,5-3.9,8c-0.6,1.6-2.5,4.7-3.1,7.3c-1.7,0.9-7.4,3.9-6.2-0.2c0.6-2.2,2.2-4.5,3.3-6.6
						c1.9-3.6,3.6-7.3,5.8-10.8c0.2-0.4,0.5-0.8,0.8-1.2c2.9-3.6,6.4-6.4,10.1-9c-1.1,0.4-2.2,0.9-3.1,1.5c-1.9,1.3-3.7,2.6-5.4,4.1
						c-1.3,1.7-2.6,3.5-3.8,5.4c-2.2,1.6-4.2,2.7-7.1,2.2c-0.8-0.1-1.3-0.4-1.6-0.8c-0.8-0.4-1.2-1.3-0.5-2.5
						c1.3-2.2,3.5-3.3,5.8-4.4c2.4-1.3,4.6-2.8,6.8-4.5c2.9-2.2,5.7-4.4,8.5-6.7c1.7-1.6,3.6-3.2,5.6-4.3c2.6-2.1,5.6-3.8,8.6-5.1
						c5.1-2.2,10.3-4.2,14.4-7.7c0,0.1,0,0.2,0,0.3c0.6-1.3,1.5-2,2.6-2.2c2.3-1.5,4.6-0.4,7.5,0.7c3.3,1.2,6.3,2.7,9.2,4.7
						c3.3,2.3,6.3,4.9,9,7.8C342.1,481.6,341.8,481.7,341.6,481.8z"/>
					<path class="st6" d="M267.2,500.8c3.7-2.1,7.3-3.4,10.5-6.2c2.4-2.1,4.6-4.5,6.9-6.8c-2.6,2.1-5.2,4.1-7.8,6.1
						c-2.2,1.7-4.5,3.1-6.8,4.5c-2.3,1.1-4.6,2.2-5.8,4.4c-0.2,0.3-0.3,0.6-0.3,0.9C264.6,502.4,265.9,501.5,267.2,500.8z"/>
					<path class="st6" d="M275.2,502.4c1.3-1.2,2.7-2.3,4.1-3.5c2.3-1.8,4.4-3.8,6.5-5.8c-1.1,0.6-2.1,1.2-3.1,1.9
						c-2.6,2-5,4.1-7.1,6.8C275.5,502,275.3,502.2,275.2,502.4z"/>
					<path class="st6" d="M306.4,502.4c1.8-0.6,3.4-1.8,4.8-3.2c-1.8,0.4-3.5,1-5.1,1.8c1-0.4,2.1-0.8,3.2-1c-2.1,1-4.4,1.9-6.3,3.2
						C304.1,502.9,305.3,502.7,306.4,502.4z"/>
					<path class="st6" d="M295.4,500.4c-0.7,0.5-1.4,0.9-2.1,1.4c-0.5,0.3-1,0.7-1.5,1.1c2.9-1.2,5.5-2.9,8-4.7
						C298.2,498.9,296.8,499.6,295.4,500.4z"/>
					<path class="st6" d="M290.8,495.5c-0.5,0.3-1,0.6-1.5,0.9c0.1,0,0.1-0.1,0.2-0.1c-2.1,1.6-4.3,3.2-6.2,5
						c0.3-0.2,0.5-0.3,0.8-0.5C286.6,499.2,288.7,497.4,290.8,495.5z"/>
					<path class="st7" d="M273.3,503.8c1.2-1.9,2.4-3.7,3.8-5.4c1.6-1.4,3.3-2.6,5-3.8c-2.1,1-4.2,2.2-6.2,3.5c-2.5,1.6-5,4-8,4.4
						c-1.6,0.2-2.3-0.4-2.4-1.3c-0.5,0.4-0.9,1-1.2,1.5c-0.7,1.2-0.3,2,0.5,2.5c0.3,0.4,0.8,0.6,1.6,0.8
						C269.2,506.5,271.2,505.5,273.3,503.8z"/>
					<path class="st7" d="M278.9,505.2c0.8-1.5,2-2.9,3.3-4.2c1.1-0.9,2.2-1.6,3.4-2.4c-2.5,1.2-4.9,2.6-6.6,4.7
						c-3.4,4-4.4,10.2-8.3,13.8c-0.9,0.8-3.2,2.5-4.2,1.4c-0.3,0.6-0.5,1.2-0.7,1.8c-1.2,4.1,4.6,1.2,6.2,0.2
						c0.6-2.6,2.5-5.7,3.1-7.3C276.2,510.2,277.3,507.6,278.9,505.2z"/>
					<path class="st7" d="M286.9,505.5c0.9-0.9,1.9-1.6,3-2.3c0,0-0.1,0.1-0.1,0.1c0.1-0.1,0.3-0.2,0.4-0.3c0.8-0.5,1.7-1,2.5-1.5
						c1.2-0.8,2.6-1.4,4-2c0-0.1,0-0.3,0.1-0.4c-2.2,0.5-4.5,1-6.5,1.9c-4.2,1.7-6.4,4.1-8,8.2c-1.3,3.5-2.6,8.7-6.8,9.7
						c-0.4,0.1-0.9-0.1-1-0.5c0-0.3-0.1-0.6-0.1-0.9c-0.7,1.6-2.5,5.8,0.1,6.1c1.5,0.2,2.5-0.1,3.6-0.6c0.2-1.6,1.5-3.6,2.1-4.7
						C282.5,514.2,284.3,509.4,286.9,505.5z"/>
					<path class="st7" d="M295,510.3c0,0,0-0.1,0-0.1c0.4-0.5,0.8-1,1.2-1.4c0.4-0.6,0.9-1.2,1.3-1.8c2.5-2.7,5.6-4.7,9-6.1
						c-4.1,0.8-8.2,2-11.2,4.9c-2.6,2.5-4.2,5.7-6.4,8.5c-0.8,1.1-3,3.8-4.8,2.8c-1-0.6-1.2-1.6-1-2.7c-0.5,1-1,2-1.6,2.9
						c-0.4,0.8-0.9,1.6-1.3,2.4c-0.9,4.1,0,5.5,2.6,4c1.1-0.7,2-1.5,2.9-2.3c0.3-1.3,2-2.9,2.3-3.4C290.5,515.4,292.9,513,295,510.3
						z"/>
					<path class="st7" d="M333.2,473.6c-2.9-2-5.9-3.5-9.2-4.7c-2.9-1.1-5.1-2.1-7.5-0.7c-1.1,0.2-2,0.8-2.6,2.2c0-0.1,0-0.2,0-0.3
						c-0.7,0.6-1.4,1.1-2.2,1.6c2.8-0.2,5.5,0.2,8.1,1.1c6,2.2,9.2,9.2,6.9,15.2c-1.5,3.9-4,7-7.2,9.6c-3.5,2.8-8,3.7-11.8,6.1
						c-5.2,3.4-8.4,12.5-15.1,13.1c-0.5,0-0.8-0.5-0.8-1c0-0.3,0.1-0.6,0.2-0.9c-0.7,0.9-1.5,1.7-2.3,2.6c0.1-0.1-1.2,1.2-2,2.4
						c0,0,0,0.1-0.1,0.2c-0.1,0.1-0.2,0.2-0.2,0.3c-0.4,0.9-0.4,1.7,0.9,1.8c2.5,0.2,4.4-0.7,6.3-2c4.5-3.2,7.4-8,11.5-11.7
						c3.4-3.1,7.2-4.9,11.5-6.4c1.3-0.6,2.6-1.1,4-1.7c3.6-1.6,6.5-3.5,9.1-6.1c3-2.3,5.1-6.1,6.6-9.6c0,0,0,0,0.1-0.1
						c0.8-0.7,1.7-1.4,2.6-2c0.6-0.3,1.1-0.7,1.7-1c0.2-0.1,0.4-0.2,0.7-0.4C339.5,478.6,336.6,475.9,333.2,473.6z"/>
				</g>
			</g>
			<g>
				<path class="st4" d="M260.4,348.7c0-0.9-0.1-1.7-0.1-2.6c-0.3-3.1-0.6-6.2-0.8-9.4c-0.2-2-0.3-4-0.4-6
					c-1.9-9.8-3.2-19.8-1.2-29.6c1.9-9.5,6.5-20,15.2-25c0.3-0.3,0.6-0.6,0.9-0.9c0-0.1-0.1-0.2-0.3-0.3c-0.2-0.1-0.5,0.3-0.5,0.5
					c-8.6,2-17.4,7.7-23.2,14c-7.7,8.3-11.2,19.5-14.3,30.1c-3.5,12-6.1,24.4-7.9,36.8c-0.9,6.1-1.5,12.3-2.3,18.5
					c-0.4,2.7-0.7,5.6-1.2,8.4c-0.2,0.8-0.4,1.5-0.6,2.3c-0.1,2.6-0.5,5.2-1.2,7.7c-0.3,1-1,1.9-1.8,2.7c0,0.1,0,0.1,0,0.2
					c-1,1.2-2,2.5-2.9,3.8c-1.5,1.9-1.3,3.8,0.2,5.4c-1.6,2.2-3,4.6-3.9,7.2c-1,2.7-1.5,5.7-2.1,8.5c-0.8,3.4-2,6.7-3.2,9.9
					c-1.2,3.2-2.4,6.4-3.8,9.6c-0.7,1.7-1.3,3.3-2.4,4.8c-0.7,1-1.8,1.8-2.4,2.9c-4.5,8.8,11,14.6,17.1,16.2
					c6.3,1.6,15.3,1.1,13.7-6.5c2.9-3.8,4.7-8.9,7-13.2c2.9-5.5,5.5-11.3,7.9-17.1c0.7-1.7,1.4-3.5,2-5.2c1.1-2.5,2.3-5.1,3.3-7.6
					c0-0.1,0-0.1,0-0.2c3.7-7.7,8.1-14.6,10.3-23c1.1-4,1.4-7.9,1.7-11.9c0.1-1.5,0.3-5.2-0.7-6.8
					C261.7,364.7,260.7,356.8,260.4,348.7z"/>
				<path class="st1" d="M258.8,327.7c-0.4-5.8-0.6-11.7-0.1-17.5c1-12.4,5-23.9,13.3-33c0.2-0.4,0.4-0.7,0.6-1
					c-4.6,1.6-9.4,4.3-13.2,6.8c-5.2,3.4-9.7,7.7-13,13c-5.9,9.5-8.9,20.8-11.6,31.6c-2.9,11.6-5,23.4-6.4,35.2
					c-0.7,5.6-1.4,11.2-2.2,16.8c-0.1,0.5-0.1,1-0.2,1.5c-0.1,1.2-0.3,2.4-0.6,3.6c-0.2,1.3-0.5,2.6-0.7,3.8
					c-0.1,1.6-0.2,3.3-0.6,4.9c2.1-1.7,4.6-2.9,7-4.2c0.4-0.1,0.8-0.3,1.2-0.4c2.8-0.6,5.5-0.1,8.2,0.8c-3.4-0.3-6.7-0.1-9.8,1.2
					c-3.9,1.7-7.2,3.4-9.7,7c-1.2,1.8-2.6,3.4-1.6,5.5c0.7-0.8,1.4-1.6,2.1-2.3c1.6-1.5,3.2-2.9,5-4.2c-3.1,2.8-6,5.8-8,9.3
					c-1.2,1.8-2.2,3.7-2.9,5.9c-1.3,4.2-2,8.6-3.4,12.8c-1.4,4.2-2.9,8.4-4.6,12.5c-1.2,2.9-2.2,6-4.1,8.5c2.1-0.6,4.8-0.5,6.6-0.4
					c4.4,0.1,8.5,0.6,12.5,2.7c0.2,0.1-0.2,0.7-0.4,0.6c-3.2-1.5-6.9-2-10.4-2c-2.4,0-5.8-0.2-8.5,0.6c-0.9,0-1.8,0.3-2.4,0.9
					c-0.7,0.7-0.8,1.7-0.5,2.7c0.3,7.7,12.8,10.8,18.8,12c3.1,0.6,7.7,1.6,10.1-1.1c0.7-0.8,0.9-1.9,0.7-3c0.4-1,0.4-2.2,0.6-3.2
					c0,0,0,0,0.1,0.1c0.1,0.1,0.1,0.2,0.1,0.3c1-1.6,1.9-3.6,2.7-5.1c1.2-2.3,2.3-4.6,3.5-6.8c2.9-5.4,5.4-11,7.7-16.6
					c0.9-2.3,1.9-4.6,2.8-6.9c0.6-1.9,1.3-3.8,2.1-5.6c1.1-1.8,2.1-3.7,3.2-5.5c0,0,0,0.1,0,0.1c0.2-0.3,0.3-0.7,0.5-1
					c0.6-1,1.1-2.1,1.6-3.1c1.6-3.1,3.3-6.3,4.3-9.7c1.2-3.8,2.2-7.8,2.6-11.8c0.1-1.7,0.3-3.3,0.5-5c0.1-0.5,0.2-1.3,0.3-2.3
					C259.2,360.4,258.1,344.1,258.8,327.7z"/>
				<path class="st1" d="M224.8,395.7c0.9-1.5,2.1-2.8,3.6-3.8c-0.1,0-0.2,0.1-0.3,0c-2.8,1.4-5.2,3-7.2,5.9
					c-1.2,1.8-2.6,3.4-1.6,5.5c0.7-0.8,1.4-1.6,2.1-2.3c1.6-1.5,3.2-2.9,5-4.2c-3.1,2.8-6,5.8-8,9.3c-1.2,1.8-2.2,3.7-2.9,5.9
					c-1.3,4.2-2,8.6-3.4,12.8c-1.4,4.2-2.9,8.4-4.6,12.5c-1.2,2.9-2.2,6-4.1,8.5c0.6-0.2,1.3-0.3,2-0.3c2.6-1.6,3.8-4.2,4.9-7.3
					c2.2-5.9,4.3-11.9,6.4-17.9c3.4-9.5,6.4-18.7,14.2-25.1c-1.8,0.4-3.6,1-5.3,1.6C225,397.1,224.4,396.3,224.8,395.7z"/>
				<path class="st1" d="M227.3,390.9c2.4-5.7,3-11.8,3.8-17.9c0.7-5.7,1.5-11.5,2.2-17.2c1.3-10.9,2-21.9,4-32.7
					c1.9-9.8,4.6-19.6,10.3-27.9c1.9-2.7,3.9-5.3,6.1-7.7c-2.8,2.5-5.2,5.3-7.2,8.6c-5.9,9.5-8.9,20.8-11.6,31.6
					c-2.9,11.6-5,23.4-6.4,35.2c-0.7,5.6-1.4,11.2-2.2,16.8c-0.1,0.5-0.1,1-0.2,1.5c-0.1,1.2-0.3,2.4-0.6,3.6
					c-0.2,1.3-0.5,2.6-0.7,3.8c-0.1,1.6-0.2,3.3-0.6,4.9c1-0.8,2.1-1.5,3.3-2.2C227.3,391.1,227.3,391,227.3,390.9z"/>
				<path class="st1" d="M258.7,342.6c-0.1-5-0.1-9.9,0.1-14.9c-0.3-4.2-0.4-8.5-0.3-12.7C257.5,324.1,257.9,333.4,258.7,342.6z"/>
				<path class="st1" d="M258.8,327.7c-0.4-5.8-0.6-11.7-0.1-17.5c0.4-5.3,1.4-10.3,3-15.1c-0.5,0.8-1,1.5-1.5,2.3
					c-5.2,8.2-7.7,17.1-9.1,26.6c-1.6,11-2.1,22-1.5,33.1c0.5,9.9,2.8,20,2.3,29.9c0,0.6-0.7,1-1.2,0.7c-3.4-2.3-6.9-4.4-10.8-5.6
					c1.5,1.4,2.9,2.8,3.9,4.6c0.3,0.5-0.1,1.2-0.7,1.2c-2.7-0.1-5.7,0.2-8.6,0.9c2,0,3.9,0.4,5.8,1.1c-3.4-0.3-6.7-0.1-9.8,1.2
					c-1.3,0.6-2.5,1.1-3.6,1.7c3.7-1.3,7.8-1.3,11.6,0.2c10.2,4.1,4.9,14.4,2.3,21.8c-2.6,7.5-5.3,15-8.2,22.4
					c-1.4,3.5-2.4,7.9-6,9.8c-3.6,1.9-9.1-1.6-12.8-1.8c-2.9-0.2-6.1-0.5-9,0.4c-0.5,0.1-0.9,0.3-1.3,0.5c2.1-0.6,4.7-0.5,6.5-0.4
					c4.4,0.1,8.5,0.6,12.5,2.7c0.2,0.1-0.2,0.7-0.4,0.6c-3.2-1.5-6.9-2-10.4-2c-2.4,0-5.8-0.2-8.5,0.6c-0.9,0-1.8,0.3-2.4,0.9
					c-0.7,0.7-0.8,1.7-0.5,2.7c0.3,7.7,12.8,10.8,18.8,12c3.1,0.6,7.7,1.6,10.1-1.1c0.7-0.8,0.9-1.9,0.7-3c0.4-1,0.4-2.2,0.6-3.2
					c0,0,0,0,0.1,0.1c0.1,0.1,0.1,0.2,0.1,0.3c1-1.6,1.9-3.6,2.7-5.1c1.2-2.3,2.3-4.6,3.5-6.8c2.9-5.4,5.4-11,7.7-16.6
					c0.9-2.3,1.9-4.6,2.8-6.9c0.6-1.9,1.3-3.8,2.1-5.6c1.1-1.8,2.1-3.7,3.2-5.5c0,0,0,0.1,0,0.1c0.2-0.3,0.3-0.7,0.5-1
					c0.6-1,1.1-2.1,1.6-3.1c1.6-3.1,3.3-6.3,4.3-9.7c1.2-3.8,2.2-7.8,2.6-11.8c0.1-1.7,0.3-3.3,0.5-5c0.1-0.5,0.2-1.3,0.3-2.3
					C259.2,360.4,258.1,344.1,258.8,327.7z"/>
				<path class="st8" d="M223,455.1c-3.4-2.2-7.3-3.9-11-5c-2.8-0.9-6.1-2-8.8-1.1c-0.2,0.2-0.4,0.5-0.6,0.7
					c-0.2,0.2-0.4,0.4-0.6,0.5c0.2-0.1,0.4-0.2,0.6-0.3c-0.1,0.2-0.2,0.3-0.4,0.4c-0.6,0.7-1.2,1.4-1.8,2.1
					c-6.4,3.7-11.4,8.7-16.4,14.4c-3,3.6-6,7.1-8.5,11.1c-1.7,2.8-3.9,6.5-2.2,9.7c-0.2,0.9-0.4,1.8-0.6,2.8
					c-0.4,2.4,0.9,10.1,4.1,9.6c0.2,0.7,0.4,1.2,0.8,1.5c1.8,1.2,3.2,0.7,4.5-0.8c0.7,0.1,2.3,0.1,2.7-0.1c2-0.9,2.9-2.8,4-4.6
					c0.6-1.1,1.1-2.3,1.4-3.5c0.5-3.1,0.9-6.3,2.7-8.7c0,0,0.1-0.1,0.1-0.1c0.9-1.3,2.1-2.5,3.4-3.6c-0.5,0.5-1,1.1-1.5,1.6
					c1.7-1.6,3.6-2.8,5.4-4.2c1.6-1.5,3.2-3,4.9-4.4c0.4,2.9-0.3,5.4-1.3,8.5c-0.6,1.7-1.3,4.3-0.5,6c1.3,2.6,4.8,3.3,6.3,0.4
					c1.1-2.1,1.4-4.3,2.1-6.5c1.2-4.1,3.8-7.3,6.2-10.7c2-2.9,3.3-5.9,3.1-9c0.1-0.1,0.2-0.2,0.3-0.3c0.5-1.1,0.9-2.2,1.6-3.2
					c0.2-0.4,0.5-0.9,0.7-1.4c0.8,0.6,1.6,1.2,2.4,1.8C225.3,457.3,224.2,456.2,223,455.1z"/>
				<path class="st6" d="M221.1,460.5c-0.1-0.7-0.3-1.5-0.6-2.2c-0.1,1-0.1,1.9-0.3,2.9c0.1,4.4-2,8-5,12c-2.2,3-3.7,6-4.8,9.5
					c-0.1,0.5-0.3,0.9-0.4,1.4c-0.7,2.8-4.6,7.6-5.8,1.6c-0.5-2.5,1.1-5.7,1.8-8.1c0.2-0.9,0.4-1.7,0.4-2.5c-0.2-0.7-0.4-1.4-0.6-2
					c-0.2-0.6-0.5-1.2-0.9-1.7c0.1,0.3,0.2,0.6,0.2,1c-0.5,0.3-0.9,0.6-1.2,0.8c-0.7,0.6-1.4,1.2-2.1,1.8c-3.2,2.2-7.3,4.8-9.4,8.1
					c-0.8,1.3-1.4,2.7-1.9,4.1c0,0,0,0,0,0c-0.3,1.1-0.6,2.2-0.9,3.4l0,0c-0.2,0.6-0.3,1.3-0.5,1.9c-0.2,0.8-0.5,1.6-0.8,2.3
					c-0.6,2-1.4,3.1-2.2,3.6c-0.6,0.6-1.3,1.1-2.2,1.1c-1.4,0-2-1.8-1.6-2.9c0.6-1.8,1.3-3.6,1.9-5.3c0-0.2,0.1-0.3,0.1-0.5
					c0.7-3.4,0.5-6.9,2.2-10.1c2.8-5.2,7.9-9.3,11.4-14.1c0.1-0.1,0-0.2-0.1-0.1c-2.5,2.7-4.9,5.5-7.3,8.2c-1.9,2-4.1,4.2-5.2,6.8
					c-1.3,3-1.2,6.3-1.8,9.5c-0.4,2.1-1.6,4.7-1.9,7c0.1,0.5,0.1,1,0.2,1.6c0.1,0.4-0.1,0.8-0.5,0.9c-5.3,1.7-4.5-6-2.9-11.9
					c0.1-1.3,0.3-2.5,0.6-3.9c1.2-4.6,4.1-8.8,6.3-12.9c0,0.1,0.1,0.1,0.1,0c0.1-0.1,0.2-0.3,0.3-0.4c0.1-0.1-0.1-0.1-0.1,0
					c-4.9,5.2-8.6,13.2-8.6,20.4c0,1.1-0.5,4.5-0.3,6.9c-2-0.8-2.9-5.6-3.1-6.9c-0.3-2.3,0.8-5.2,1.5-7.3c1-3.1,2.5-5.9,4.1-8.6
					c0.4-0.9,0.8-1.8,1.3-2.7c-2.7,4.1-5.3,8.3-6.8,13c-0.6-4.2,3.5-9.5,5.7-12.4c0.6-0.8,8.1-9.6,8.1-9.6
					c3.9-4.3,8.2-7.6,12.8-10.8c0.1,0,0.2-0.1,0.3-0.2c0,0,0,0,0,0c1-0.7,2.1-1.5,3.2-2.2c0.1-0.1,0.2-0.4,0-0.3
					c-0.7,0.3-1.4,0.7-2.1,1.1c0.3-0.4,0.7-0.9,1-1.3c0.1-0.1,0.4-0.4,0.6-0.7c3.2-0.6,7.2,1,10.1,2c2.5,0.9,4.8,2,7.1,3.1
					c0.9,0.5,1.8,1.1,2.6,1.7C222.6,457.7,221.6,459,221.1,460.5z"/>
				<path class="st6" d="M188.6,469c-2.1,2.2-4,4.6-5.6,7.1c-0.8,1.4-1.5,2.8-2.2,4.2c0.6-0.7,1.2-1.5,1.8-2.2
					C184.8,475.4,186.9,472.3,188.6,469z"/>
				<path class="st6" d="M195.4,469.8c-2.4,2.7-5,5.3-7,8.2c0.7-0.8,1.5-1.6,2.3-2.3C192.6,473.8,194.2,472,195.4,469.8z"/>
				<path class="st6" d="M180.6,473.1c-0.4,0.9-0.9,1.8-1.3,2.7c-0.7,1.1-1.3,2.2-1.9,3.3c1.5-2.8,3.2-5.5,5.2-8
					c4.2-5.5,9.3-10.2,14.1-15.2c-3.2,2.4-6.2,5-9.1,8.1c0,0-7.6,8.8-8.1,9.6c-2.2,3-6.3,8.3-5.7,12.4
					C175.4,481.4,177.9,477.2,180.6,473.1z"/>
				<path class="st7" d="M220.8,454.8c-2.3-1.2-4.7-2.3-7.1-3.1c-1.7-0.6-3.7-1.4-5.8-1.8c1.2,0.5,2.3,1.1,3.2,2
					c2.4,2.3,3.7,4.7,3.3,8.1c-0.7,4.6-2.1,9.3-3.4,13.7c-0.7,2.2-1.4,4.4-2.5,6.4c-1.4,2.6-1.8,5.2-1.6,8.1c0,0.1,0,0.2,0,0.3
					c1.4-0.5,2.8-2.8,3.2-4.3c0.1-0.5,0.3-1,0.4-1.4c1.1-3.5,2.6-6.5,4.8-9.5c2.9-4,5.1-7.6,5-12c0.1-1,0.2-1.9,0.3-2.9
					c0.3,0.7,0.5,1.5,0.6,2.2c0.5-1.4,1.4-2.8,2.2-4C222.5,455.9,221.7,455.3,220.8,454.8z"/>
				<path class="st7" d="M204,473.2c0.3-0.3,0.7-0.5,1.2-0.8c-0.1-0.3-0.1-0.6-0.2-1c0.2,0.3,0.3,0.6,0.5,0.8
					c1.1-2.2,0.9-3.1-0.8-2.6c-0.6,0.2-1.2,0.4-1.7,0.7c-0.7,0.3-1.4,0.7-2,1.1c-2.8,1.8-6.5,4-8.3,6.8c-2.1,3.2-2.7,6.9-4.2,10.4
					c-0.7,1.6-1.8,3.9-3.9,3.3c-0.1,0-0.2-0.1-0.3-0.2c-0.6,1.6-1.2,3.2-1.8,4.9c-0.4,1.1,0.3,2.9,1.6,2.9c0.9,0,1.6-0.4,2.2-1.1
					c0.8-0.4,1.6-1.6,2.2-3.6c0.3-0.8,0.6-1.6,0.8-2.3c0.2-0.6,0.3-1.3,0.5-1.9l0,0c0.3-1.1,0.7-2.2,0.9-3.4c0,0,0,0,0,0
					c0.5-1.4,1-2.8,1.9-4.1c2.1-3.3,6.2-5.9,9.4-8.1C202.7,474.3,203.3,473.7,204,473.2z"/>
				<path class="st7" d="M185.4,481.5c1.1-2.6,3.3-4.8,5.2-6.8c1.2-1.3,2.4-2.7,3.6-4c-3.8,2.3-8,4.3-9.8,8.2
					c-2.3,5.2-0.3,12.1-5,16.2c-0.4,0.3-1.2,0.3-1.3-0.3c-0.2-1.2-0.3-2.4-0.3-3.6c-1.1,5.4-1.1,11,3.5,9.5c0.4-0.1,0.6-0.5,0.5-0.9
					c-0.1-0.5-0.2-1.1-0.2-1.6c0.3-2.4,1.5-5,1.9-7C184.2,487.8,184.1,484.5,185.4,481.5z"/>
				<path class="st7" d="M182.6,475.1c-1,1.1-1.9,2.2-2.5,3.5c-1.1,2.5-1.6,5.3-3.5,7.3c-0.3,0.4-1,0.3-1.2-0.2
					c-0.2-0.3-0.3-0.6-0.4-0.9c-0.7,2.1-1.7,4.7-1.4,6.8c0.2,1.3,1,6.1,3.1,6.9c-0.2-2.5,0.3-5.8,0.3-6.9
					C177,486.2,179.3,480,182.6,475.1z"/>
			</g>
			<g>
				<g>
					<path class="st8" d="M437.9,154c0-0.1-0.1-0.1-0.2-0.1c-2.1,0.8-3.5,1.6-5.8,1.1h0c-5.3-3.4-2.9-14.7-2.9-19.9
						c0.1-7.2-1.2-14.4-3-21.4c-1.9-7.3-6.7-20.2-14.9-23.8c-4.9-10.6-12.2-20.1-22.1-26.7c-15.7-10.4-34.7-13.7-53.2-14
						c-19.3-0.3-39.1,1.5-57.3,8.5c-7.7,3-14.7,7.2-20.7,12.9c-3.1,3-8.2,7.7-10.5,12.6c-5.6,1.2-10.5,4.2-12.1,10.5
						c-1.7,6.5,0.9,13.8,5.8,18.2c-4.6,9.2-8.4,18.7-13,28c-5.5,11.2-15.1,19.5-19.7,31.3c-7.7,19.5,0.5,40.7,13.8,55.5
						c14.8,16.5,35.9,24.3,57.7,25c20.9,0.6,40.2-4.6,58.2-14.3c4.7,2.7,11.9,1.1,16.8-0.5c3.9-1.3,7.4-3.1,10.7-5.3
						c-0.6,0.6-1.2,1.2-1.8,2c-0.1,0.1-0.2,0.4,0,0.5c3.7,1.8,8.5-0.9,11.8-2.7c1.6-0.9,3.2-2,4.6-3.3c5.3,0,13.3-1.8,15.1-7.5
						c4.1,2.9,12.2,0.2,14.5-3.9c0.1-0.1-0.1-0.2-0.2-0.2c-1.7,0.8-3.9,0.3-4.5-1.8c2.6-1.8,5.9-5.1,7.6-8.7c0,0.3,0,0.7,0.1,1
						c0,0.3,0.4,0.3,0.6,0.1c3.7-2.9,7.1-8.1,8.4-13.3c0,0.3,0.1,0.7,0.1,1c0,0.4,0.5,0.1,0.7,0c4.1-5.2,5.6-12.3,6.5-18.7
						c0.5-3.4,1.1-7.7-0.8-10.7C434.2,165.6,438.3,159.5,437.9,154z"/>
					<path class="st6" d="M385.6,178.8c-2.1-4.2-6.2-6.1-10.7-3.9c-3.9,1.9-5.6,5-7.2,8.8c0,0.1-0.3,0.2-0.2,0c0.4-1.4,1-3,1.8-4.5
						c-1.2,1.6-2.3,3.2-3.2,5.1c-0.1,0.2-0.4,0.5-0.6,0.3c-5.3-3.4-7.5-11.9-8.2-17.7c-0.5-4.3-0.5-8.7,0.8-12.8
						c-2.2,2.7-4.6,4.6-8.1,5.8c-1,0.3-2.2,0-1.7-1.3c2.7-6.9,2.9-13.4,2.3-20.7c-0.3-3.5-0.3-7.3-1.4-10.6c-0.3-1-1-2-1.3-3.1
						c0.6,4.2,0.4,8.5-1.4,12.5c-1,2.2-2.3,5.2-5.2,5.1c-0.1,0-0.1-0.1-0.1-0.2c-0.5-11.6-9.5-23.4-19.4-28.8
						c-6.4-3.5-15.1-6.8-19.6-13.1c0.7,2.7,1.8,5.5,4,7.4c1.3,1.1,2.5,2.1,3.4,3.6c0.1,0.2-0.2,0.5-0.4,0.5
						c-4.4,0.5-9.3-1.2-13.6-2.2c-4.6-1-9.3-2.4-13.6-4.4c-5.1-2.5-9.3-5.4-11.1-9.7c0,0,0,0.1,0,0.2c-3.4,8.3,3.2,13.7,6.6,20.3
						c0.1,0.2-0.2,0.5-0.3,0.5c-7.3,1.6-16.1-5.2-20.5-10.5c-2.2-2.6-3.6-5.4-3.9-8.2c-5.6,4.6-7.8,10.3-5.9,17.4
						c0.1,0.2-0.1,0.4-0.3,0.3c-1.9-0.7-3.6-1.7-5.1-3c-4.1,8.6-7.8,17.5-11.9,26.2c-4.6,9.8-12.6,17.2-17.4,26.8
						c-10.2,20-4.2,43,10.3,59.3c14.5,16.3,34.4,25.5,56.2,26.1c11.8,0.3,24.1-0.7,35.5-4c8.4-2.4,16-5.9,23.5-10
						c0.1-0.2,0.2-0.3,0.4-0.4c0.4-0.2,0.9-0.3,1.3-0.6c1.1-0.6,2.1-1.2,3.2-1.8c3.6-2.5,6.9-5.9,9.6-9c3.5-4.1,8.3-9.6,9.3-15.1
						c0,0,0-0.1,0-0.1c-1.3-1.2-2.1-2.8-2.9-4.6c0.1-0.3,0.1-0.7,0.2-1c0.9,2.3,2.1,5,4.5,5.9c3.5,1.4,7.2,0.9,10.7-0.4
						c5.6-2.2,10.7-6.3,12.7-12.3C388.4,191.6,388.4,184.3,385.6,178.8z"/>
					<path class="st6" d="M224.5,159.8c1.2,2.2,2,4.6,2.6,7c-0.6-4-1.9-7.8-2.5-11.9c-0.4-2.6-0.5-5.1-0.4-7.6
						c-4.1,5.9-8.8,11.4-12.1,17.9c-4.7,9.3-5.9,19.1-4.5,28.7c-0.1-9.1,2.2-18.5,5.7-25.9C215,164.3,220.2,152.2,224.5,159.8z"/>
					<path class="st6" d="M234.8,204.6c-0.3-0.2-0.6-0.4-0.9-0.6c-0.7-0.4-1.4-0.9-2-1.3c-2.2-1.5-4.5-2.9-6.6-4.6
						c0.4,0.9,0.9,1.7,1.5,2.5c5.3,5.1,12,8.4,19.3,9.5C242.1,208.6,238.2,206.9,234.8,204.6z"/>
					<path class="st6" d="M250.6,216.8c-2.5-0.4-5.7-0.4-8.4,0.2c1.8,1.6,4.6,2.7,6.8,2.6C251,219.6,253.8,217.3,250.6,216.8z"/>
					<path class="st6" d="M291.6,186c4-6,9-11.1,14.8-15.2C299.6,173.4,294.2,178.8,291.6,186z"/>
					<path class="st6" d="M254.1,123.5c2.1,2.9,2.9,6.3,3.8,9.7c0.2-1.4,0.4-2.8,0.4-4.2c0-1.1,0.1-2.7-0.5-3.7
						C257.2,124.3,255.5,123.1,254.1,123.5z"/>
					<path class="st6" d="M247.7,171.1c-1.9-2.6-4.3-4.8-7.8-4.7c-3.9,0.1-6.4,1.9-7.6,4.7C236.2,168.3,242.8,168.5,247.7,171.1z"/>
					<path class="st7" d="M231.1,173.2c0.3,5.1,1.7,10.8,7,11.6c7.6,1.1,11.1-6.2,13.2-12.5C245.1,176,234,179.2,231.1,173.2z"/>
					<path class="st7" d="M229.7,161.8c11,6,22-1.3,25.1-12.4c2.2-7.8,1.8-17.3-2.8-24.2c-3.1-4.6-7.9-6.9-13.1-7.6
						c-3.1,6.9-6.1,13.8-9.3,20.7c-1.2,2.5-2.6,4.9-4.1,7.2C225,151.7,224,158.7,229.7,161.8z"/>
					<path class="st7" d="M276.9,107.6c3.6,3.1,8.3,4.3,12.9,5.4c8.8,2,18,3.5,27.1,4.1c-0.9-1-1.7-2-2.5-3.1
						c-0.4-0.6,0.3-1.3,0.9-1.1c5,1.5,9.5,5.9,13.2,9.4c4.2,4.1,8.1,8.7,10.7,14c0.8,1.6,1.5,3.2,2.2,4.8
						c-0.9-11.3-9.6-22.7-19.4-28c-6.4-3.5-15.1-6.8-19.6-13.1c0.7,2.7,1.8,5.5,4,7.4c1.3,1.1,2.5,2.1,3.4,3.6
						c0.1,0.2-0.2,0.5-0.4,0.5c-4.4,0.5-9.3-1.2-13.6-2.2c-4.6-1-9.3-2.4-13.6-4.4c-5.1-2.5-9.3-5.4-11.1-9.7c0,0,0,0.1,0,0.2
						c-0.7,1.7-1,3.3-0.9,4.9C272.4,102.6,274.3,105.4,276.9,107.6z"/>
					<path class="st7" d="M276.2,203.4c-1.1,0.6-2.2,1.2-3.3,1.8c-2.3,1.3-4.6,2.6-7.1,3.4c-5.7,1.8-11.6,2.5-17.5,1.9
						c-5.3-0.6-10.7-1.7-15.6-4.1c-2.2-1.1-4.5-2.2-6.3-3.9c-0.7-0.6-2.6-2.8-4-2.5c3.5,2.8,6,7,9.8,9.3c5.3,3.2,12,4.9,18.3,4.4
						c6.2-0.5,12.6-2.4,18.2-5.2c3.5-1.8,6.5-3.8,10.3-4.1C278.2,203.5,277.8,202.5,276.2,203.4z"/>
					<path class="st7" d="M241.1,218.5c1,6,7.1,10.4,13.2,10c6.6-0.4,10.7-5.1,13.1-10.8C258.9,220.9,248.9,223.9,241.1,218.5z"/>
					<path class="st7" d="M387.7,191.7c-0.2-3-1.2-5.7-3.2-7.4c-8.7-7.4-16.3,8.3-16.5,15.2c0,0.9-1.3,1.1-1.5,0.2
						c-1.2-4.8-1.2-10.9,0.3-16.4c-0.2,0.3-0.4,0.7-0.6,1.1c-0.1,0.2-0.4,0.5-0.6,0.3c-5.3-3.4-7.5-11.9-8.2-17.7
						c-0.5-4.3-0.5-8.7,0.8-12.8c-2.2,2.7-4.6,4.6-8.1,5.8c-1,0.3-2.2,0-1.7-1.3c2.7-6.9,2.9-13.4,2.3-20.7
						c-0.3-3.5-0.3-7.3-1.4-10.6c-0.3-1-1-2-1.3-3.1c0.6,4.2,0.4,8.5-1.4,12.5c-1,2.2-2.3,5.1-5,5.1c1.4,3.8,2.4,7.8,2.3,11.9
						c-0.1,4.5-1.1,8.9-2.4,13.2c2.2-1.9,4.3-3.8,6.1-6c0.3-0.3,0.8-0.3,1.1,0c5.6,5.3,3.8,14.5,1.9,21.1c-4.6,16-13,32-25.6,43.1
						c-14.3,12.6-33,17.4-51.9,16.2c-18.9-1.2-38.7-7.7-51.7-22.1c-5.6-6.2-10.3-13.6-13.1-21.5c2.2,9.7,7.2,18.8,14,26.5
						c14.5,16.3,34.4,25.5,56.2,26.1c11.8,0.3,24.1-0.7,35.5-4c8.4-2.4,16-5.9,23.5-10c0.1-0.2,0.2-0.3,0.4-0.4
						c0.4-0.2,0.9-0.3,1.3-0.6c1.1-0.6,2.1-1.2,3.2-1.8c3.6-2.5,6.9-5.9,9.6-9c3.5-4.1,8.3-9.6,9.3-15.1c0,0,0-0.1,0-0.1
						c-1.3-1.2-2.1-2.8-2.9-4.6c0.1-0.3,0.1-0.7,0.2-1c0.9,2.3,2.1,5,4.5,5.9c3.5,1.4,7.2,0.9,10.7-0.4c5.6-2.2,10.7-6.3,12.7-12.3
						C387.1,195.6,387.5,193.7,387.7,191.7z"/>
					<path class="st7" d="M258.5,108.8c0.9,0.6,1.9,1.2,2.9,1.7c-1.9-1.5-3.5-3.2-4.8-4.7c-2.2-2.6-3.6-5.4-3.9-8.2
						c-0.8,0.7-1.6,1.4-2.2,2.1C252.6,103.2,255.1,106.5,258.5,108.8z"/>
					<path class="st7" d="M309.6,165.3c-0.6,0-0.9-0.7-0.7-1.2c5.6-10.5,11.4-27.3,2-37.4c-5.9-6.3-13.9-6.1-21.2-3.4
						c-2.2,1.5-4.1,3.3-5.8,5.2c-5.2,6.1-9,14.2-9.3,22.3c-0.4,9.5,3.5,26.3,16.3,23.5c0.7-0.2,1.2,0.5,0.9,1.1
						c-1.7,3.5-3.2,6.8-3.7,10.5c3.5-6,8.2-11.5,14.5-14.4c6.6-3,13.7-3.3,20.7-1.9C320.9,165.7,313.6,165.3,309.6,165.3z"/>
					<path class="st9" d="M428,164.8c0,0-0.1,0-0.1,0.1c-0.3-0.4-0.7-0.8-1.1-1.2c1,2.4,2.2,4.5,2.1,7.5c-0.1,2.5-0.6,4.9-1.3,7.2
						c-0.3,3.2-0.8,6.3-2,9.3c-0.6,1.6-2.5,8.2-3.5,3.7c0-0.1,0-0.1-0.1-0.1c0.1-1.4,0.1-2.8-0.2-4.1c-0.2,0.6-0.4,1.2-0.6,1.8
						c-0.2,3.8-1.4,7.4-3.5,10.8c-0.9,1.3-1.8,2.7-2.7,4c-2,3.1-1.9,1.5-1.8-0.1c0.4-1.4,0.5-2.8,0.1-4.2c-0.1,1.4-0.6,2.8-1.2,4.1
						c-1.2,4.1-4.6,7.9-7.5,10.6c-0.2-1.2,0.3-2.6,1-3.8c-0.9,0.9-1.6,1.9-1.7,3.1c0,0.2-0.1,0.4-0.1,0.7c0,0.5,0,0.9,0.1,1.4
						c0.1,0.3,0.2,0.7,0.4,0.9c0.1,0,0.1,0.1,0.2,0.1c0.3,0,0.5,0.2,0.4,0.5c0.9,0.5,2.1,0.6,3,0.2c1.9-0.7-1,1.3-1.5,1.5
						c-1.5,1-3.2,1.4-4.9,1.7c-1.7,0.2-3.2,0-4.6-0.6c-0.7-0.2-1.4-0.4-2-0.8c-0.8-0.5-1.6-1-2.2-1.6c0.3,1.1,0.9,1.9,1.6,2.6
						c-2.6,5-8.4,6.7-13.8,7.1c1.7-1.8,3-3.8,3.9-6c-1.3,1.6-2.7,3.3-4.2,4.8c-2.2,2.4-4.8,4.3-7.9,5.7c-2.4,1.1-4.8,1.9-7.4,1.8
						c0,0,0.8-1.7,1.2-2.5c1.7-1.2,3.3-2.6,4.8-4c0.4-0.6,0.7-1.2,1.1-1.8c-5,4.9-10.5,8.8-17.4,10.8c-3.1,0.9-6.6,1.4-9.9,1.6
						c-1.3,0.1-2.5,0-3.8-0.1c-2-0.2-2.3-0.3-2-0.6c0.1-0.1,0.2-0.1,0.4-0.2c0.3-0.1,0.7-0.3,1.1-0.6c0.1-0.1,0.2-0.1,0.3-0.2
						c0.2-0.1,0.4-0.2,0.6-0.4c0.6-0.7,1.3-1.1,2.1-1.6c0.6-0.3,1.1-0.8,1.7-1.2c0,0,0,0,0-0.1c3.5-2.9,6.6-6.2,9.4-9.6
						c2.6-3.1,7-8.4,7.1-12.8c0.6,0.5,1.3,1,2.1,1.3c3.1,1.3,7-0.1,10-1c7.3-2.4,12.5-8.7,14.3-16c1.5-6.5,0.9-18-6-21.2
						c-4.6-2.1-8.7,0.4-11.5,4c-0.1,0-0.2,0-0.3,0.1c-1.8,1.7-3.1,3.5-4.3,5.7c-1,1.8-2.7-2.7-3.1-3.5c-1.1-2-1.9-4-2.6-6.1
						c-2.8-8.3-3.2-17.5,1.4-25.2c0.1-0.2-0.1-0.2-0.2-0.1c-1,1.2-1.8,2.6-2.4,3.9c-0.1,0-0.2,0.1-0.4,0.2c-1.5,1.7-3,3.4-4.7,4.8
						c0,0-6.2,3.6-4.6,0.2c1.5-3.1,2.2-7.4,2.4-10.8c0.5-8.1,0.4-16.3-3.8-23.4c-0.1-0.1-0.2,0-0.2,0.1c0,0.1,0,0.2,0,0.3
						c-0.2-0.9-0.3-1.7-0.6-2.6c-0.1-0.4-0.8,0.1-0.7,0.4c0.8,4.2,1.1,8,0.2,12.2c-0.3,1.4-0.9,2.9-1.5,4.2
						c-0.4,1.8-1.6,2.6-3.5,2.3c-0.1-1-0.2-2.1-0.4-3.1c-0.9-5.4-4-10.7-7.2-15.1c-3.7-5.1-8.8-8.7-14.4-11.5
						c-2.7-1.4-5.7-2.8-8.6-4.5c-0.5-0.3-1-0.5-1.5-0.8c-2.4-1.4-4.8-2.9-6.7-4.9c-0.6-0.7-1-1.5-1.5-2.4c0,0.3-0.1,0.5-0.1,0.8
						c0,0,0,0,0,0.1c0.6,4,2.3,7.3,5.3,10c3.5,3.1-1.1,1.7-3,1.3c-3.1-0.6-6.1-1.2-9.2-1.9c-9.1-2.2-20.5-6.1-23.6-15.2
						c-0.5-0.9-0.9-1.8-1.2-2.8c0,1.9,0.4,3.5,1.1,5c-0.1-0.1-0.4,0-0.5,0.2c-1.9,4.3-1.4,7.7,0.5,11.9c0.8,1.9,2.2,3.6,3.4,5.2
						c0.2,0.3,3.3,3.4,0.4,3.3c-1.6-0.1-3.3-0.8-4.8-1.4c-8.5-3.2-18.7-12.7-15.8-22.1c0.1-0.9,0.4-1.8,0.7-2.7
						c-1.6,2.4-2.3,4.9-2.2,7.4c-3.5,2.1-5.8,4.8-7.1,8.7c-0.6,1.8-0.6,3.6-0.4,5.5c0.1,0.8,0.5,2,0.7,2.8c0.6,1.8-3.6-1.5-4.1-1.9
						c-0.1,0-0.1-0.1-0.2-0.2c0,0,0,0,0,0c-0.2-0.1-0.4-0.3-0.7-0.5c-0.1,0-0.1-0.1-0.1-0.2c-4.3-4.2-5.9-10.4-4.9-16.3
						c0.9-5.8,5.2-8.8,10.2-10.4c1.5-0.8,3.2-1.3,4.8-1.7c-0.8,0.1-1.7,0.2-2.5,0.3c1.9-3.1,4.7-5.9,6.6-8c2.9-3.2,6.1-6.1,9.6-8.6
						c7.3-5.2,16-8.3,24.5-10.7c17.5-4.8,36.4-5.7,54.4-4.6c16.4,1,33.3,5.4,46.7,15.2c8.2,6,14.4,14.1,19.1,23
						c-0.5-0.1-1-0.2-1.5-0.3c0.6,0.4,1.2,0.8,1.8,1.2c0.1,0,0.1,0,0.1,0.1l0,0c0.7,0.4,1.4,0.9,2.1,1.4c0-0.1-0.1-0.1-0.1-0.2
						c3.7,2.7,6.5,6.9,8.7,10.8c3.9,6.9,5.6,15,6.7,22.7c1.2,7.7,0.2,15.2,0.4,22.9c0,0.5,0.1,1,0.1,1.5c0.1,0.1,0.2,0.3,0.2,0.6
						c0.1,0.8,0.2,1.6,0.5,2.4c0.1,0.3,0.2,0.6,0.3,0.8c0,0,0-0.1-0.1-0.1c0.3,0.9,0.8,1.6,1.5,2.2l0,0c0.3,0.2,0.6,0.3,0.9,0.4
						c0.7,0.4,1.4,0.6,2.4,0.7c0.2,0,0.4,0,0.6-0.1c0-0.1,0.1-0.1,0.1-0.2c0.5-0.1,1-0.2,1.5-0.3c0.6-0.2,1.3-0.6,1.8-1.1
						c0.4-0.4-0.4,3.2-0.6,3.6C435.6,162.2,432,164.5,428,164.8z"/>
					<path class="st9" d="M256.6,92.6c0,2.1,0.2,4.2,0.7,5.9c1.4,5.4,5,10.7,9.5,14.3c0.3,0.2,0.7,0.3,1,0.5
						C262.2,108.3,257.4,100.2,256.6,92.6z"/>
					<path class="st9" d="M283.2,99.3c3.4,2.1,7.4,4.5,11.5,5.1c-5.6-3.8-12.1-6.8-17.2-11.2C278.8,95.6,280.6,97.8,283.2,99.3z"/>
					<path class="st9" d="M323.1,100.1c-2.9-1.3-5.9-1.8-9.1-2.2c3.7,1.5,7.5,3.1,10.7,5.3c2.5,1.8,4.8,3.8,6.8,6
						C329.5,105.5,326.9,101.9,323.1,100.1z"/>
					<path class="st9" d="M357.8,121.8c3.1,6.2,4.4,13.3,3,19.9c2.8-4.4,4.4-9.2,1.2-14.4C360.8,125.4,359.4,123.5,357.8,121.8z"/>
					<path class="st9" d="M369.2,149c1.5-2.5,2.9-5.3,3-8.2c0.1-2.2-0.6-4.1-1.4-5.9C370.4,139.6,369.7,144.3,369.2,149z"/>
					<path class="st9" d="M237.6,93.5c2.2-5.6,8.5-8.5,14.1-10c-0.5-0.3-1.1-0.4-1.6-0.6c-1.3,0.4-2.6,0.8-3.9,1.4
						c-5,1.6-9.3,4.6-10.2,10.4c-0.8,5,0.2,10.3,3.2,14.4C236.9,104.2,235.5,98.6,237.6,93.5z"/>
					<path class="st9" d="M256.4,85.4c-9.6,3.8-14.9,13.8-14.4,24.1c0,0.8-1.1,1-1.4,0.4c-2.4-3.9-4.1-8.4-4.8-13.1
						c-0.3,5.2,1.3,10.5,5.2,14.2c0,0.1,0.1,0.1,0.1,0.2c0.2,0.2,0.4,0.3,0.7,0.5c0,0,0,0,0,0c0.1,0.1,0.1,0.1,0.2,0.2
						c0.5,0.4,4.6,3.8,4.1,1.9c-0.2-0.7-0.7-2-0.7-2.8c-0.2-1.9-0.2-3.7,0.4-5.5c1.3-3.9,3.7-6.6,7.1-8.7c-0.1-1.8,0.2-3.5,1-5.3
						C254.2,89.3,255,87.2,256.4,85.4z"/>
					<path class="st9" d="M437.5,154.7c-0.5,0.5-1.1,0.9-1.8,1.1c-0.5,0.2-1,0.3-1.5,0.3c0,0.1-0.1,0.1-0.1,0.2
						c-0.2,0.1-0.4,0.1-0.6,0.1c-0.9-0.1-1.7-0.3-2.4-0.7c-0.3-0.1-0.6-0.3-0.9-0.4l0,0c-0.7-0.6-1.1-1.4-1.5-2.2
						c0,0,0.1,0.1,0.1,0.1c-0.1-0.3-0.2-0.5-0.3-0.8c-0.2-0.8-0.4-1.7-0.5-2.4c0-0.3-0.1-0.5-0.2-0.6c0-0.5-0.1-1-0.1-1.5
						c-0.3-7.7,0.7-15.2-0.4-22.9c-1.2-7.7-2.9-15.8-6.7-22.7c-2.2-3.9-4.9-8.1-8.7-10.8c0,0.1,0.1,0.1,0.1,0.2
						c-0.7-0.5-1.4-1-2.1-1.4l0,0c-0.1,0-0.1,0-0.1-0.1c-0.6-0.4-1.2-0.8-1.8-1.2c0.5,0.1,1,0.1,1.5,0.3c-4.7-8.9-10.8-17-19.1-23
						C376.9,56.4,360.1,52,343.6,51c-18-1.1-36.9-0.2-54.4,4.6c-8.5,2.4-17.2,5.5-24.5,10.7c-3.5,2.5-6.7,5.4-9.6,8.6
						c-0.8,0.9-1.9,2-2.9,3.2c7.2-1.2,14.5-1.7,21.8-1.4c9.7,0.5,19.2,2.4,28.6,4.8c18.8,4.8,37.2,11.6,54.2,21.2
						c23.8,13.4,50.2,34.4,43.1,65c-0.2,0.8-1.2,0.7-1.5,0c-2-5.3-3.1-10.4-6.3-15.3c-0.6-0.9-1.2-1.7-1.8-2.6
						c-0.3,5.5-2.1,11.1-4.4,15.9c-0.3,0.6-1.2,0.4-1.4-0.2c-1.7-5.4-2.1-11.1-3.5-16.6c-0.5-1.9-0.9-3.8-1.3-5.7c-0.6,2-1.3,4-2,6
						c-1.8,4.7-4.3,8.9-6.3,13.5c-1,2.3-4,8.7-6.3,3.3c-4-9.1-2.4-19.7,2.2-28.4c-1.2,1-2.3,2-3.3,3.2c-2.9,3.1-4.7,6.9-7.9,9.6
						c-0.5,0.4-1.4,0.2-1.3-0.5c0.4-4.4,2.2-8.8,1.7-13.3c-0.6-5-2.6-9.7-5.2-14.1c-4.1-6.8-9.8-12.5-16.9-15.8
						c2.7,3.6,3.9,8.1,4.8,12.5c0.2,0.9-0.9,1.3-1.4,0.6c-3.2-4.2-6.6-8.4-11-11.4c-3.7-2.6-7.8-4.5-12-6.4
						c-7.2-3.3-14.3-6.9-19.2-13.1c-0.1,4.9,1.6,9.4,3.7,13.9c0.2,0.3,0.1,0.9-0.3,1c-6,2.6-12.1,1.3-17.8-1.1
						c0.4,0.3,0.8,0.6,1.2,0.9c0.1,0.1,0.1,0.1,0.2,0.2c3.9,1.8,8.3,3.1,12.2,4.1c3,0.7,6.1,1.3,9.2,1.9c1.9,0.4,6.5,1.7,3-1.3
						c-3-2.7-4.7-6-5.3-10c0,0,0,0,0-0.1c0-0.3,0-0.5,0.1-0.8c0.4,0.8,0.8,1.7,1.5,2.4c1.9,2,4.3,3.5,6.7,4.9c0.5,0.3,1,0.6,1.5,0.8
						c2.9,1.7,6,3.2,8.6,4.5c5.6,2.8,10.7,6.4,14.4,11.5c3.1,4.4,6.2,9.7,7.2,15.1c0.2,1,0.3,2,0.4,3.1c1.9,0.3,3.1-0.5,3.5-2.3
						c0.6-1.3,1.2-2.8,1.5-4.2c0.9-4.2,0.6-8.1-0.2-12.2c-0.1-0.3,0.6-0.8,0.7-0.4c0.2,0.9,0.4,1.7,0.6,2.6c0-0.1,0-0.2,0-0.3
						c0,0,0.1-0.2,0.2-0.1c4.2,7,4.4,15.3,3.8,23.4c-0.2,3.4-0.9,7.6-2.4,10.8c-1.7,3.4,4.6-0.2,4.6-0.2c1.8-1.5,3.2-3.2,4.7-4.8
						c0.1-0.1,0.2-0.2,0.4-0.2c0.6-1.4,1.4-2.7,2.4-3.9c0.1-0.1,0.3-0.1,0.2,0.1c-4.5,7.8-4.1,16.9-1.4,25.2
						c0.7,2.1,1.5,4.1,2.6,6.1c0.4,0.7,2.2,5.3,3.1,3.5c1.2-2.2,2.4-4,4.3-5.7c0.1-0.1,0.2-0.1,0.3-0.1c2.7-3.6,6.8-6.1,11.5-4
						c6.9,3.1,7.5,14.7,6,21.2c-1.8,7.4-7,13.6-14.3,16c-2.9,1-6.9,2.4-10,1c-0.8-0.3-1.5-0.8-2.1-1.3c-0.1,4.4-4.5,9.7-7.1,12.8
						c-2.8,3.4-6,6.7-9.4,9.6c0,0,0,0,0,0.1c-0.5,0.4-1.1,0.8-1.7,1.2c-0.7,0.5-1.5,0.9-2.1,1.6c-0.2,0.1-0.4,0.2-0.6,0.4
						c-0.1,0.1-0.2,0.1-0.3,0.2c-0.4,0.2-0.8,0.4-1.1,0.6c-0.1,0.1-0.2,0.1-0.4,0.2c-0.3,0.2,0.1,0.4,2,0.6c1.3,0.1,2.5,0.2,3.8,0.1
						c3.3-0.2,6.7-0.7,9.9-1.6c6.9-2,12.3-5.9,17.4-10.8c-0.4,0.6-0.7,1.2-1.1,1.8c-1.5,1.5-3.1,2.8-4.8,4c-0.4,0.8-1.3,2.5-1.2,2.5
						c2.6,0.1,5-0.7,7.4-1.8c3.1-1.5,5.8-3.3,7.9-5.7c1.6-1.5,3-3.2,4.2-4.8c-0.8,2.2-2.2,4.2-3.9,6c5.4-0.4,11.1-2.1,13.8-7.1
						c-0.7-0.6-1.3-1.5-1.6-2.6c0.6,0.6,1.4,1.1,2.2,1.6c0.7,0.4,1.3,0.7,2,0.8c1.4,0.6,2.9,0.8,4.6,0.6c1.7-0.2,3.4-0.7,4.9-1.7
						c0.4-0.3,3.3-2.3,1.5-1.5c-0.8,0.3-2.1,0.3-3-0.2c0-0.2-0.1-0.4-0.4-0.5c-0.1,0-0.2,0-0.2-0.1c-0.2-0.2-0.4-0.6-0.4-0.9
						c-0.1-0.5-0.1-0.9-0.1-1.4c0-0.3,0.1-0.5,0.1-0.7c0.1-1.1,0.8-2.2,1.7-3.1c-0.7,1.2-1.2,2.6-1,3.8c2.9-2.7,6.3-6.5,7.5-10.6
						c0.6-1.3,1-2.7,1.2-4.1c0.4,1.4,0.3,2.8-0.1,4.2c-0.1,1.6-0.2,3.2,1.8,0.1c0.9-1.3,1.8-2.7,2.7-4c2.1-3.4,3.3-6.9,3.5-10.8
						c0.2-0.6,0.4-1.2,0.6-1.8c0.3,1.3,0.3,2.7,0.2,4.1c0,0,0,0.1,0.1,0.1c0.9,4.5,2.9-2.1,3.5-3.7c1.1-3.1,1.7-6.1,2-9.3
						c0.7-2.3,1.1-4.7,1.3-7.2c0.1-2.9-1.1-5-2.1-7.5c0.4,0.4,0.8,0.7,1.1,1.2c0,0,0.1-0.1,0.1-0.1c4-0.3,7.5-2.6,8.9-6.5
						C437.1,157.9,438,154.2,437.5,154.7z"/>
					<path class="st9" d="M437.5,154.7c-0.5,0.5-1.1,0.9-1.8,1.1c-0.5,0.2-1,0.3-1.5,0.3c0,0.1-0.1,0.1-0.1,0.2
						c-0.2,0.1-0.4,0.1-0.6,0.1c-0.9-0.1-1.7-0.3-2.4-0.7c-0.3-0.1-0.6-0.3-0.9-0.4l0,0c-0.7-0.6-1.1-1.4-1.5-2.2
						c0,0,0.1,0.1,0.1,0.1c-0.1-0.3-0.2-0.5-0.3-0.8c-0.2-0.8-0.4-1.7-0.5-2.4c0-0.3-0.1-0.5-0.2-0.6c0-0.5-0.1-1-0.1-1.5
						c-0.3-7.7,0.7-15.2-0.4-22.9c-1.2-7.7-2.9-15.8-6.7-22.7c-2.2-3.9-4.9-8.1-8.7-10.8c0,0.1,0.1,0.1,0.1,0.2
						c-0.7-0.5-1.4-1-2.1-1.4l0,0c-0.1,0-0.1,0-0.1-0.1c-0.6-0.4-1.2-0.8-1.8-1.2c0.5,0.1,1,0.1,1.5,0.3c-4.7-8.9-10.8-17-19.1-23
						C376.9,56.4,360.1,52,343.6,51c-18-1.1-36.9-0.2-54.4,4.6c-8.5,2.4-17.2,5.5-24.5,10.7c-1.3,0.9-2.6,2-3.8,3c0.2,0,0.4,0,0.7,0
						c2.8,0.1,5.7,0.4,8.5,0.7c4.8,0.6,9.6,1.2,14.4,2.1c10.7,2,21.3,4.8,31.5,8.4c19,6.5,37.2,15.6,53.9,26.8
						c7.8,5.2,15.5,10.7,22.7,16.7c6.5,5.3,13.2,11.4,17.1,19c3.7,7.4,4.9,15.9,6,24.1c0.4,2.9,2.3,9.9-0.1,12.4
						c-0.4,0.5-1.1,0.2-1.3-0.3c-0.7-2-1.5-3.9-2.4-5.8c0.3,9.4-1.6,18.8-7.3,26.4c-0.5,0.7-1.6,0.3-1.4-0.6c1-5.6,1.5-11.3,0.5-17
						c-2.4,9.9-6.3,19.5-14.1,26.5c-0.6,0.5-1.5,0-1.3-0.8c2.4-9.2,5.9-17.5,3.7-27.3c-0.8-3.6-2.1-7.8-5.2-10.2
						c-5.2-4.1-11.6-1.9-16.1,2.2c-2.2,1.9-4.9,6.4-8,6.6c0.1,0.1,0.1,0.3,0.2,0.4c0.4,0.7,2.2,5.3,3.1,3.5c1.2-2.2,2.4-4,4.3-5.7
						c0.1-0.1,0.2-0.1,0.3-0.1c2.7-3.6,6.8-6.1,11.5-4c6.9,3.1,7.5,14.7,6,21.2c-1.8,7.4-7,13.6-14.3,16c-2.9,1-6.9,2.4-10,1
						c-0.8-0.3-1.5-0.8-2.1-1.3c-0.1,4.4-4.5,9.7-7.1,12.8c-2.8,3.4-6,6.7-9.4,9.6c0,0,0,0,0,0.1c-0.5,0.4-1.1,0.8-1.7,1.2
						c-0.7,0.5-1.5,0.9-2.1,1.6c-0.2,0.1-0.4,0.2-0.6,0.4c-0.1,0.1-0.2,0.1-0.3,0.2c-0.4,0.2-0.8,0.4-1.1,0.6
						c-0.1,0.1-0.2,0.1-0.4,0.2c-0.3,0.2,0.1,0.4,2,0.6c1.3,0.1,2.5,0.2,3.8,0.1c3.3-0.2,6.7-0.7,9.9-1.6c6.9-2,12.3-5.9,17.4-10.8
						c-0.4,0.6-0.7,1.2-1.1,1.8c-1.5,1.5-3.1,2.8-4.8,4c-0.4,0.8-1.3,2.5-1.2,2.5c2.6,0.1,5-0.7,7.4-1.8c3.1-1.5,5.8-3.3,7.9-5.7
						c1.6-1.5,3-3.2,4.2-4.8c-0.8,2.2-2.2,4.2-3.9,6c5.4-0.4,11.1-2.1,13.8-7.1c-0.7-0.6-1.3-1.5-1.6-2.6c0.6,0.6,1.4,1.1,2.2,1.6
						c0.7,0.4,1.3,0.7,2,0.8c1.4,0.6,2.9,0.8,4.6,0.6c1.7-0.2,3.4-0.7,4.9-1.7c0.4-0.3,3.3-2.3,1.5-1.5c-0.8,0.3-2.1,0.3-3-0.2
						c0-0.2-0.1-0.4-0.4-0.5c-0.1,0-0.2,0-0.2-0.1c-0.2-0.2-0.4-0.6-0.4-0.9c-0.1-0.5-0.1-0.9-0.1-1.4c0-0.3,0.1-0.5,0.1-0.7
						c0.1-1.1,0.8-2.2,1.7-3.1c-0.7,1.2-1.2,2.6-1,3.8c2.9-2.7,6.3-6.5,7.5-10.6c0.6-1.3,1-2.7,1.2-4.1c0.4,1.4,0.3,2.8-0.1,4.2
						c-0.1,1.6-0.2,3.2,1.8,0.1c0.9-1.3,1.8-2.7,2.7-4c2.1-3.4,3.3-6.9,3.5-10.8c0.2-0.6,0.4-1.2,0.6-1.8c0.3,1.3,0.3,2.7,0.2,4.1
						c0,0,0,0.1,0.1,0.1c0.9,4.5,2.9-2.1,3.5-3.7c1.1-3.1,1.7-6.1,2-9.3c0.7-2.3,1.1-4.7,1.3-7.2c0.1-2.9-1.1-5-2.1-7.5
						c0.4,0.4,0.8,0.7,1.1,1.2c0,0,0.1-0.1,0.1-0.1c4-0.3,7.5-2.6,8.9-6.5C437.1,157.9,438,154.2,437.5,154.7z"/>
					<path class="st9" d="M271,107.2c-1.9-4.2-2.4-7.6-0.5-11.9c0.1-0.2,0.4-0.3,0.5-0.2c-0.6-1.5-1-3.1-1.1-5
						c0.3,1,0.7,1.9,1.2,2.8c0.7,1.9,1.7,3.6,3,5.1c-1.1-1.5-2.1-3.2-2.7-5c-1.3-4.1-1.2-8.2-0.3-12.3c-3.8,4.2-6.8,8.6-7.1,14.6
						c-0.4,6.7,2.5,11.9,5.5,17.6c0.2,0.4,0,0.9-0.3,1c0.3,0.1,0.5,0.2,0.8,0.3c1.5,0.6,3.2,1.3,4.8,1.4c2.9,0.1-0.2-3-0.4-3.3
						C273.2,110.8,271.8,109,271,107.2z"/>
					<path class="st8" d="M251.5,134.2c0-2.3-0.6-4.5-1.9-6.4c-0.7-1.1-1.6-1.9-2.7-2.3c0,0-0.1,0-0.1-0.1
						c-3.6-1.7-9.2,2.1-11.5,4.3c-6.8,6.4-12.8,17.2-10.8,26.9c-0.3-0.4-0.7-0.9-1.1-1.3c0-0.1-0.2,0-0.1,0.1c0.6,1,1.2,2,1.7,3
						c0.2,0.8,0.5,1.6,0.9,2.3c0.2,0.3,0.3,0.6,0.5,0.9c0.7,1.9,1.3,3.9,1.9,5.8c0.1,0.3,0.6-0.1,0.6-0.3c-0.1-1.2-0.3-2.3-0.6-3.4
						c4.9,3.7,12.8-1,16-5.4C248.7,152.4,252.5,142.5,251.5,134.2z"/>
					<path class="st10" d="M250.5,139.9c0,0.1,0,0.2-0.1,0.3c-0.2,1-0.4,2-0.6,2.9c-0.6,2.8-1.5,5.4-2.5,8.1
						c-1.8,4.7-4.7,9.5-9.2,11.8c-4.1,2.1-8.8,0.9-11.2-3c-4.5-7.1,0.1-18.3,4.3-24.4c2.9-4.1,8.1-9.5,13.6-9.4
						c1.7,0,3.5,1.9,4.3,3.2c0,0,0,0.1,0.1,0.1c1.2,1.6,1.6,3.8,1.7,6c0.1,1.2,0,2.4-0.1,3.6C250.5,139.4,250.5,139.7,250.5,139.9z"
						/>
					<path class="st1" d="M245.1,128c3.9,2.4,5.2,6.6,5.5,11c0.1-1.1,0.2-2.2,0.1-3.4c0-2.2-0.4-4.4-1.7-6c0,0,0-0.1-0.1-0.1
						c-0.8-1.3-2.6-3.2-4.3-3.2c-1.2,0-2.3,0.2-3.5,0.6C242.5,126.8,243.8,127.1,245.1,128z"/>
					<path class="st8" d="M314.9,166.8c-4.6-0.2-9,0.2-13.2,1.7c3.3-2.2,5.2-6.2,6.7-9.7c0.7-1.7,1.3-3.5,1.8-5.3
						c3.2-8.5,3.9-17.7-2.5-24.9c-8-9.1-22.3,0.3-27.7,7.5c-6,8.2-8.1,22.2-2.5,31.1c3.9,6.3,11.5,6.8,18.1,4.4
						c-3.2,2.6-5.7,6.4-7.9,9.6c-0.2,0.2,0.1,0.3,0.2,0.1c3.6-4.3,7-8.6,12.1-11.1c4.6-2.2,9.7-2.7,14.7-3.1
						C314.9,167.2,315.1,166.9,314.9,166.8z"/>
					<path class="st10" d="M277.3,164.9c-4.4-8.2-1.7-19.8,2.8-27.3c5.3-8.8,19.2-16.5,27.4-7.1c3.3,3.8,4,9.5,3.7,14.6
						c-0.5,3.6-1.3,7.3-2.5,10.8c-1,2.6-2.3,5.1-3.7,7.6c-0.9,1.4-1.9,2.6-3.1,3.8C292.8,174.8,282.6,174.8,277.3,164.9z"/>
					<path class="st1" d="M282.2,136.4c4.1-4.7,10.4-10.1,17.2-8.7c8.3,1.8,11.2,9.1,11.6,17.1c0.3-5-0.4-10.6-3.7-14.3
						c-8.2-9.4-22.1-1.7-27.4,7.1c-0.9,1.4-1.7,3-2.3,4.7C279.1,140.2,280.6,138.2,282.2,136.4z"/>
					<path class="st8" d="M253.5,151.6c0.1-0.1-0.2-0.1-0.2,0c-1.8,5.4-4.3,10.7-9.5,13.5c-3.3,1.8-8.4-0.2-11.3,2.3
						c-5.7,4.9-1.3,15,2.8,19.4c0.1,0.1,0.3-0.1,0.2-0.2c-3.6-3.9-4.3-8.7-4.3-13.9c0-4.2,3.4-4.9,6.9-5.4c2.6,0,5.1,0.4,7.8,0.8
						c0.1,0,0.2-0.2,0.1-0.2c-1.2-0.4-2.6-0.9-3.9-1.2c0.7-0.2,1.3-0.3,1.9-0.6C249.3,163.6,252,156.9,253.5,151.6z"/>
					<path class="st8" d="M279.9,205.6c-0.2-1.1-0.9-1.8-1.8-2.3c-1.1-0.6-2.2,0.1-3.2,0.3c-0.2,0-0.3,0.4-0.1,0.3
						c0.7-0.1,1.4,0.2,2,0.6c-5.2,1.7-9.9,4.4-15.2,6.1c-7,2.2-14.6,2.3-21.6,0.4c-5.7-1.5-11.7-5.2-15.2-10
						c-1.8-2.5-1.8-1.3-3.6-0.5c-0.1,0-0.2,0.3-0.1,0.3c2.8,0.4,5,3.5,7.4,5.3c4.2,3.2,9,5.3,14.2,6.4c5.7,1.2,11.7,0.7,17.3-0.6
						c6.2-1.4,11.6-5,17.7-6.7c0.5,0.4,1,0.9,1.5,1.2C279.6,206.6,280,205.9,279.9,205.6z"/>
					<path class="st8" d="M259,220.1c-5.1,0.5-11.2,2.2-16-0.7c-0.1-0.1-0.3,0.1-0.2,0.2c4.1,4.6,11.1,4,16.1,1.7
						C259.4,221.2,259.9,220,259,220.1z"/>
					<g class="st11">
						<path class="st6" d="M310.9,124.6c-2.3-3.1-4.5-5.5-8-7.3c-5.3-2.7-12.1,0.2-16.7,3.8c-1.6,1-3,2.3-3.6,4.1c0,0,0,0.1,0,0.1
							c0,0.1,0.1,0.3,0.1,0.4c0.6,0.7,0.6,0.8,1.7,0.6c2.8-0.6,5.5-2.1,8.3-2.7c7.7-1.7,13.7,1.4,19.7,6.1c0.2,0.2,0.5-0.1,0.6-0.3
							C313.4,127.3,312,126,310.9,124.6z"/>
					</g>
					<path class="st8" d="M381.9,184.5c-2.5-1.1-5-0.5-7,1.4c-4.5,4.6-7.2,12-6,18.4c0.1,0.3,0.4,0,0.4-0.2c0-2.4,0.1-4.6,0.5-6.8
						c0.7,0.8,2.4,1,3.3,0.9c1.5-0.1,2.9-0.9,3.5-2.3c0.1-0.2-0.2-0.2-0.3,0c-0.7,1.3-2.1,1.8-3.5,1.7c-0.6,0-1.2-0.2-1.7-0.5
						c-0.4-0.2-0.7-0.6-1-0.8c0.2-0.9,0.4-1.8,0.8-2.8c0.6-1.7,1.5-3.3,2.5-4.8c0.8-1.1,1.7-2.1,2.8-3c4.9-1.4,7.1-0.3,6.5,3.5
						c-0.1,0.2,0.2,0.1,0.3,0C383.7,187.8,383.7,185.3,381.9,184.5z"/>
					<path class="st12" d="M437.9,154c0-0.1-0.1-0.1-0.2-0.1c-2.1,0.8-3.5,1.6-5.8,1.1h0c-5.3-3.4-2.9-14.7-2.9-19.9
						c0.1-7.2-1.2-14.4-3-21.4c-1.9-7.3-6.7-20.2-14.9-23.8c-4.9-10.6-12.2-20.1-22.1-26.7c-15.7-10.4-34.7-13.7-53.2-14
						c-19.3-0.3-39.1,1.5-57.3,8.5c-7.7,3-14.7,7.2-20.7,12.9c-3.6,3.5-8.2,7.8-10.5,12.6c-5.6,1.2-10.5,4.2-12.1,10.5
						c-1.6,6,0.5,12.7,4.8,17.2c0,0,0,0,0,0c0.6,0.5,1.1,1,1.6,1.5c0.1,0.1,0.2,0.1,0.3,0.2c0.4,0.3,0.8,0.5,1.3,0.7
						c0.2,0.1,0.2,0.2,0.2,0.4c0.9,0.6,2,1.1,3,1.5c0.2,0.1,0.4-0.1,0.3-0.3c-1.9-7.1,0.3-12.8,5.9-17.4c0.3,2.8,1.7,5.5,3.9,8.2
						c4.4,5.2,13.2,12,20.5,10.5c0.2,0,0.4-0.3,0.3-0.5c-3.3-6.6-10-12-6.6-20.3c0-0.1,0-0.1,0-0.2c1.9,4.3,6,7.2,11.1,9.7
						c4.3,2.1,9,3.4,13.6,4.4c4.3,0.9,9.2,2.7,13.6,2.2c0.2,0,0.5-0.3,0.4-0.5c-0.8-1.5-2.1-2.5-3.4-3.6c-2.2-1.9-3.3-4.7-4-7.4
						c4.5,6.3,13.1,9.7,19.6,13.1c10,5.5,18.9,17.2,19.4,28.8c0,0.1,0.1,0.1,0.1,0.2c2.9,0.1,4.1-2.9,5.2-5.1c1.8-4,2-8.3,1.4-12.5
						c0.3,1,0.9,2.1,1.3,3.1c1.2,3.3,1.2,7.1,1.4,10.6c0.6,7.3,0.4,13.8-2.3,20.7c-0.5,1.3,0.7,1.6,1.7,1.3c3.5-1.2,5.9-3.1,8.1-5.8
						c-1.3,4-1.3,8.5-0.8,12.8c0.7,5.8,2.9,14.3,8.2,17.7c0.2,0.1,0.5-0.2,0.6-0.3c0.9-1.9,1.9-3.5,3.2-5.1c-0.8,1.5-1.5,3-1.8,4.5
						c0,0.1,0.2,0.1,0.2,0c1.6-3.8,3.3-6.9,7.2-8.8c4.5-2.2,8.6-0.2,10.7,3.9c2.8,5.6,2.8,12.9,0.9,18.6c-2,6-7,10.1-12.7,12.3
						c-3.5,1.4-7.1,1.8-10.7,0.4c-2.4-1-3.6-3.6-4.5-5.9c-0.1,0.3-0.1,0.7-0.2,1c0.7,1.7,1.6,3.3,2.9,4.6c0,0,0,0.1,0,0.1
						c-1.1,5.5-5.8,11-9.3,15.1c-2.7,3.1-5.9,6.6-9.6,9c-1.1,0.6-2.1,1.2-3.2,1.8c-0.4,0.2-0.7,0.3-1.1,0.5c-0.1,0.4,0,0.8,0,1.2
						c4.8,2.6,11.8,1,16.6-0.6c3.9-1.3,7.4-3.1,10.7-5.3c-0.6,0.6-1.2,1.2-1.8,2c-0.1,0.1-0.2,0.4,0,0.5c3.7,1.8,8.5-0.9,11.8-2.7
						c1.6-0.9,3.2-2,4.6-3.3c5.3,0,13.3-1.8,15.1-7.5c4.1,2.9,12.2,0.2,14.5-3.9c0.1-0.1-0.1-0.2-0.2-0.2c-1.7,0.8-3.9,0.3-4.5-1.8
						c2.6-1.8,5.9-5.1,7.6-8.7c0,0.3,0,0.7,0.1,1c0,0.3,0.4,0.3,0.6,0.1c3.7-2.9,7.1-8.1,8.4-13.3c0,0.3,0.1,0.7,0.1,1
						c0,0.4,0.5,0.1,0.7,0c4.1-5.2,5.6-12.3,6.5-18.7c0.5-3.4,1.1-7.7-0.8-10.7C434.2,165.6,438.3,159.5,437.9,154z M428,164.8
						c0,0-0.1,0-0.1,0.1c-0.3-0.4-0.7-0.8-1.1-1.2c1,2.4,2.2,4.5,2.1,7.5c-0.1,2.5-0.6,4.9-1.3,7.2c-0.3,3.2-0.8,6.3-2,9.3
						c-0.6,1.6-2.5,8.2-3.5,3.7c0-0.1,0-0.1-0.1-0.1c0.1-1.4,0.1-2.8-0.2-4.1c-0.2,0.6-0.4,1.2-0.6,1.8c-0.2,3.8-1.4,7.4-3.5,10.8
						c-0.9,1.3-1.8,2.7-2.7,4c-2,3.1-1.9,1.5-1.8-0.1c0.4-1.4,0.5-2.8,0.1-4.2c-0.1,1.4-0.6,2.8-1.2,4.1c-1.2,4.1-4.6,7.9-7.5,10.6
						c-0.2-1.2,0.3-2.6,1-3.8c-0.9,0.9-1.6,1.9-1.7,3.1c0,0.2-0.1,0.4-0.1,0.7c0,0.5,0,0.9,0.1,1.4c0.1,0.3,0.2,0.7,0.4,0.9
						c0.1,0,0.1,0.1,0.2,0.1c0.3,0,0.5,0.2,0.4,0.5c0.9,0.5,2.1,0.6,3,0.2c1.9-0.7-1,1.3-1.5,1.5c-1.5,1-3.2,1.4-4.9,1.7
						c-1.7,0.2-3.2,0-4.6-0.6c-0.7-0.2-1.4-0.4-2-0.8c-0.8-0.5-1.6-1-2.2-1.6c0.3,1.1,0.9,1.9,1.6,2.6c-2.6,5-8.4,6.7-13.8,7.1
						c1.7-1.8,3-3.8,3.9-6c-1.3,1.6-2.7,3.3-4.2,4.8c-2.2,2.4-4.8,4.3-7.9,5.7c-2.4,1.1-4.8,1.9-7.4,1.8c0,0,0.8-1.7,1.2-2.5
						c1.7-1.2,3.3-2.6,4.8-4c0.4-0.6,0.7-1.2,1.1-1.8c-5,4.9-10.5,8.8-17.4,10.8c-3.1,0.9-6.6,1.4-9.9,1.6c-1.3,0.1-2.5,0-3.8-0.1
						c-2-0.2-2.3-0.3-2-0.6c0.1-0.1,0.2-0.1,0.4-0.2c0.3-0.1,0.7-0.3,1.1-0.6c0.1-0.1,0.2-0.1,0.3-0.2c0.2-0.1,0.4-0.2,0.6-0.4
						c0.6-0.7,1.3-1.1,2.1-1.6c0.6-0.3,1.1-0.8,1.7-1.2c0,0,0,0,0-0.1c3.5-2.9,6.6-6.2,9.4-9.6c2.6-3.1,7-8.4,7.1-12.8
						c0.6,0.5,1.3,1,2.1,1.3c3.1,1.3,7-0.1,10-1c7.3-2.4,12.5-8.7,14.3-16c1.5-6.5,0.9-18-6-21.2c-4.6-2.1-8.7,0.4-11.5,4
						c-0.1,0-0.2,0-0.3,0.1c-1.8,1.7-3.1,3.5-4.3,5.7c-1,1.8-2.7-2.7-3.1-3.5c-1.1-2-1.9-4-2.6-6.1c-2.8-8.3-3.2-17.5,1.4-25.2
						c0.1-0.2-0.1-0.2-0.2-0.1c-1,1.2-1.8,2.6-2.4,3.9c-0.1,0-0.2,0.1-0.4,0.2c-1.5,1.7-3,3.4-4.7,4.8c0,0-6.2,3.6-4.6,0.2
						c1.5-3.1,2.2-7.4,2.4-10.8c0.5-8.1,0.4-16.3-3.8-23.4c-0.1-0.1-0.2,0-0.2,0.1c0,0.1,0,0.2,0,0.3c-0.2-0.9-0.3-1.7-0.6-2.6
						c-0.1-0.4-0.8,0.1-0.7,0.4c0.8,4.2,1.1,8,0.2,12.2c-0.3,1.4-0.9,2.9-1.5,4.2c-0.4,1.8-1.6,2.6-3.5,2.3c-0.1-1-0.2-2.1-0.4-3.1
						c-0.9-5.4-4-10.7-7.2-15.1c-3.7-5.1-8.8-8.7-14.4-11.5c-2.7-1.4-5.7-2.8-8.6-4.5c-0.5-0.3-1-0.5-1.5-0.8
						c-2.4-1.4-4.8-2.9-6.7-4.9c-0.6-0.7-1-1.5-1.5-2.4c0,0.3-0.1,0.5-0.1,0.8c0,0,0,0,0,0.1c0.6,4,2.3,7.3,5.3,10
						c3.5,3.1-1.1,1.7-3,1.3c-3.1-0.6-6.1-1.2-9.2-1.9c-9.1-2.2-20.5-6.1-23.6-15.2c-0.5-0.9-0.9-1.8-1.2-2.8c0,1.9,0.4,3.5,1.1,5
						c-0.1-0.1-0.4,0-0.5,0.2c-1.9,4.3-1.4,7.7,0.5,11.9c0.8,1.9,2.2,3.6,3.4,5.2c0.2,0.3,3.3,3.4,0.4,3.3c-1.6-0.1-3.3-0.8-4.8-1.4
						c-8.5-3.2-18.7-12.7-15.8-22.1c0.1-0.9,0.4-1.8,0.7-2.7c-1.6,2.4-2.3,4.9-2.2,7.4c-3.5,2.1-5.8,4.8-7.1,8.7
						c-0.6,1.8-0.6,3.6-0.4,5.5c0.1,0.8,0.5,2,0.7,2.8c0.6,1.8-3.6-1.5-4.1-1.9c-0.1,0-0.1-0.1-0.2-0.2c0,0,0,0,0,0
						c-0.2-0.1-0.4-0.3-0.7-0.5c-0.1,0-0.1-0.1-0.1-0.2c-4.3-4.2-5.9-10.4-4.9-16.3c0.9-5.8,5.2-8.8,10.2-10.4
						c1.5-0.8,3.2-1.3,4.8-1.7c-0.8,0.1-1.7,0.2-2.5,0.3c1.9-3.1,4.7-5.9,6.6-8c2.9-3.2,6.1-6.1,9.6-8.6c7.3-5.2,16-8.3,24.5-10.7
						c17.5-4.8,36.4-5.7,54.4-4.6c16.4,1,33.3,5.4,46.7,15.2c8.2,6,14.4,14.1,19.1,23c-0.5-0.1-1-0.2-1.5-0.3
						c0.6,0.4,1.2,0.8,1.8,1.2c0.1,0,0.1,0,0.1,0.1l0,0c0.7,0.4,1.4,0.9,2.1,1.4c0-0.1-0.1-0.1-0.1-0.2c3.7,2.7,6.5,6.9,8.7,10.8
						c3.9,6.9,5.6,15,6.7,22.7c1.2,7.7,0.2,15.2,0.4,22.9c0,0.5,0.1,1,0.1,1.5c0.1,0.1,0.2,0.3,0.2,0.6c0.1,0.8,0.2,1.6,0.5,2.4
						c0.1,0.3,0.2,0.6,0.3,0.8c0,0,0-0.1-0.1-0.1c0.3,0.9,0.8,1.6,1.5,2.2l0,0c0.3,0.2,0.6,0.3,0.9,0.4c0.7,0.4,1.4,0.6,2.4,0.7
						c0.2,0,0.4,0,0.6-0.1c0-0.1,0.1-0.1,0.1-0.2c0.5-0.1,1-0.2,1.5-0.3c0.6-0.2,1.3-0.6,1.8-1.1c0.4-0.4-0.4,3.2-0.6,3.6
						C435.6,162.2,432,164.5,428,164.8z"/>
					<path class="st13" d="M433.9,83.4c-0.7-1.2-1.5-2.3-2.3-3.4c0.1-0.1,0.1-0.2,0.1-0.3c-12.7-19.5-37.9-29.2-58.9-36.7
						c-16.7-6-33.8-10.8-51.4-11.9c-11.4-1.9-23.5-1.7-33.3,4.7c-12.9,8.4-22.4,21.1-30,33.5c-0.3,0.7-0.5,1.3-0.7,2
						c1.5,0,3,0,4.5,0.1c4,0.1,8.1,0.1,12.1,0.3c9.1,0.5,18.1,2.4,26.8,4.7c16.5,4.4,32.4,11.3,47.6,18.9
						c15.7,7.9,30.9,16.5,44.8,27.3c6.7,5.1,13,10.6,19.3,16.2c5.4,4.8,11.3,10,17.4,13.9c0.3,0.2,0.9-0.4,0.7-0.7
						c5.6-14.4,7.8-31.1,8.1-46.5C439,97.8,437.8,90.2,433.9,83.4z"/>
					<path class="st14" d="M430.2,151.7c-2.9-2.1-5.4-4.7-8.3-6.9c-3.4-2.6-6.6-5.2-9.8-8c-6.8-5.9-13.7-11.8-20.8-17.3
						c-14-10.8-29.7-19.2-45.4-26.9c-15.8-7.8-32.4-14.5-49.6-18.6c-8.4-2-16.9-3.2-25.5-3.5c-3.9-0.2-8.6-0.7-12.9-0.1
						c3.8-4.5,6.9-9.7,10.6-14.3c5-6.3,10.5-12.1,16.9-17c7.2-5.5,14.3-7.4,23.3-7.4c1.2,0,2.4,0,3.6,0.1c1.9,0,3.8,0,5.6,0.2
						c5.2,0.4,10.7,0.5,15.6,2c13,2.5,25.8,6.6,38,10.8c15.7,5.5,33.2,12.5,47,23.2c2.3,1.2,4.1,3.4,5.9,5.1
						c2.4,2.2,4.8,4.6,6.6,7.4c1.5,2.3,2.7,4.8,3.5,7.4c2.5,5.7,3,12.2,3,18.4C437.6,121.6,433.9,136.8,430.2,151.7z"/>
					<path class="st14" d="M263.3,70c8-14.8,20-30.5,36.3-35.3c8.8-2.6,18.4-3,27.6-2.3c-3.1-0.4-6.2-0.5-9.2-0.7
						c-1.9-0.2-3.8-0.2-5.6-0.2c-1.2-0.1-2.4-0.1-3.6-0.1c-9,0.1-16.1,1.9-23.3,7.4c-6.4,4.9-11.8,10.7-16.9,17
						c-3.7,4.6-6.8,9.8-10.6,14.3C259.7,70,261.5,70,263.3,70z"/>
					<path class="st15" d="M434.6,87.7c-0.8-2.6-2-5.1-3.5-7.4c-1.8-2.8-4.2-5.1-6.6-7.4c-1.8-1.7-3.7-4-5.9-5.1
						c-13.8-10.7-31.3-17.7-47-23.2c-2.5-0.9-5-1.7-7.5-2.6c3.5,1.5,6.9,3,10.3,4.6c7.3,3.4,15.9,7.4,19.7,15
						c3.4,6.9,1.9,16.2,0.8,23.6c-0.9,5.5-2.7,14-9.1,15.8c-9.1,2.6-18.8-0.7-27.2-4.1c-8.5-3.5-16.8-7.5-25.5-10.3
						c4.3,1.9,8.6,3.9,12.8,6c15.8,7.8,31.4,16.2,45.4,26.9c7.1,5.5,14,11.3,20.8,17.3c3.2,2.8,6.4,5.4,9.8,8
						c2.9,2.2,5.4,4.8,8.3,6.9c3.7-14.9,7.4-30.1,7.4-45.6C437.6,99.9,437.1,93.4,434.6,87.7z"/>
					<path class="st15" d="M434.6,87.7c-0.8-2.6-2-5.1-3.5-7.4c-1.8-2.8-4.2-5.1-6.6-7.4c-1.8-1.7-3.7-4-5.9-5.1
						c-3.8-3-7.9-5.6-12.2-8.1c9.7,9.7,15.3,21.4,14.9,35.4c-0.2,7.4-1.2,15.1-3.9,22c-1.6,4.1-4.3,8.3-9,9.1
						c-3.3,0.5-6.6,0-9.8-0.9c4.6,3.8,9.1,7.6,13.6,11.5c3.2,2.8,6.4,5.4,9.8,8c2.9,2.2,5.4,4.8,8.3,6.9c3.7-14.9,7.4-30.1,7.4-45.6
						C437.6,99.9,437.1,93.4,434.6,87.7z"/>
					<g class="st11">
						<path class="st6" d="M245.4,114.4c-4.9-0.6-7.9,5.9-8.7,9.7c-0.1,0.4,0.4,0.4,0.6,0.1c0,0,0-0.1,0.1-0.1c0,0,0.1,0,0.1,0
							c1.3-1.2,2.4-2.5,4.2-3.1c1.6-0.4,3.4,0.5,4.8,1.3c2.1,1.1,3.6,3,5.7,4c0.2,0.1,0.3-0.1,0.4-0.2
							C253.3,121.1,250.8,115.1,245.4,114.4z"/>
					</g>
					<g>
						<path class="st9" d="M310.8,122c-2.3-3.1-4.5-5.5-8-7.3c-5.3-2.7-12.1,0.2-16.7,3.8c-1.6,1-3,2.3-3.6,4.1c0,0,0,0.1,0,0.1
							c0,0.1,0.1,0.2,0.1,0.4c0.6,0.7,0.6,0.8,1.7,0.6c2.8-0.6,5.5-2.1,8.3-2.7c7.7-1.7,13.7,1.4,19.7,6c0.2,0.2,0.6-0.1,0.6-0.3
							C313.2,124.8,311.9,123.4,310.8,122z"/>
					</g>
					<g>
						<path class="st9" d="M245.4,112.8c-4.9-0.7-7.9,5.9-8.7,9.6c-0.1,0.4,0.4,0.4,0.6,0.2c0,0,0,0,0.1-0.1c0,0,0.1,0,0.1,0
							c1.3-1.2,2.4-2.5,4.2-3c1.6-0.5,3.4,0.5,4.8,1.2c2.1,1.1,3.6,3.1,5.7,4c0.2,0.1,0.3-0.1,0.4-0.3
							C253.3,119.5,250.8,113.5,245.4,112.8z"/>
					</g>
					<g>
						<path class="st9" d="M300.8,117.9c-7-1.8-12.3,2-18.1,5.3c0.5,0.5,0.6,0.6,1.6,0.4c2.8-0.6,5.5-2.1,8.3-2.7
							c7.6-1.7,13.6,1.4,19.5,5.9C309.5,122.7,305.7,119.2,300.8,117.9z"/>
					</g>
					<g>
						<path class="st9" d="M246.8,118.7c-4.7-2.9-7.8,0.2-9.8,4.1c0.1,0,0.3-0.1,0.3-0.2c0,0,0,0,0.1-0.1c0,0,0.1,0,0.1,0
							c1.3-1.2,2.4-2.5,4.2-3c1.6-0.5,3.4,0.5,4.8,1.2c1.9,1,3.3,2.7,5.1,3.7C250.4,122.2,248.9,120,246.8,118.7z"/>
					</g>
				</g>
				<g>
					<path class="st16" d="M301.5,154.7c-4.4,9-12.8,13.9-18.7,10.9c-5.9-2.9-7.1-12.6-2.7-21.5c4.4-9,12.8-13.9,18.7-10.9
						C304.8,136.2,306,145.7,301.5,154.7z"/>
					<g>
						<path class="st17" d="M300.4,154.5c-4,8.1-11.6,12.5-16.9,9.9c-5.3-2.6-6.4-11.4-2.4-19.5c4-8.1,11.6-12.5,16.9-9.9
							C303.3,137.7,304.4,146.4,300.4,154.5z"/>
						<path class="st18" d="M287,162.1c-2.6-2.3-4.1-4.6-4.6-8c-0.5-3.5,1.1-6.8,1.5-10.2c0-0.1-0.1,0-0.2,0
							c-5.7,5-6.8,17.8,2.7,18.8C286.7,162.6,287.3,162.3,287,162.1z"/>
						<path class="st19" d="M295.1,151.3c-2.6,5.2-7.5,8.1-10.9,6.4c-3.4-1.7-4.1-7.3-1.6-12.5c2.6-5.2,7.4-8.1,10.9-6.4
							C297,140.5,297.7,146.1,295.1,151.3z"/>
						<path class="st16" d="M294.5,151c-2.3,4.7-6.7,7.2-9.8,5.7c-3.1-1.5-3.7-6.5-1.4-11.2c2.3-4.7,6.7-7.2,9.8-5.7
							C296.1,141.3,296.8,146.3,294.5,151z"/>
						<path class="st10" d="M300.7,146.3c-1,2.4-3,3.8-4.6,3.1c-1.6-0.7-2-3.1-1.1-5.4c1-2.3,3-3.7,4.6-3.1
							C301.2,141.5,301.7,143.9,300.7,146.3z"/>
						<path class="st10" d="M297.5,152.5c-0.4,0.9-1.1,1.4-1.7,1.2c-0.6-0.2-0.8-1.2-0.4-2c0.4-0.9,1.1-1.4,1.7-1.2
							C297.7,150.7,297.9,151.6,297.5,152.5z"/>
					</g>
				</g>
			</g>
			<g>
				<path class="st16" d="M246.5,148.5c-3.7,7.6-10.8,11.7-15.8,9.2c-5-2.5-6-10.6-2.3-18.1c3.7-7.6,10.8-11.7,15.8-9.2
					C249.3,132.8,250.3,140.9,246.5,148.5z"/>
				<g>
					<path class="st17" d="M245.5,148.3c-3.4,6.8-9.8,10.6-14.3,8.3c-4.5-2.2-5.4-9.6-2.1-16.4c3.4-6.8,9.8-10.6,14.3-8.3
						S248.9,141.4,245.5,148.3z"/>
					<path class="st18" d="M234.3,154.6c-2.2-1.9-3.4-3.9-3.9-6.8c-0.5-3,0.9-5.7,1.3-8.6c0-0.1-0.1,0-0.1,0
						c-4.8,4.2-5.8,15,2.3,15.8C234,155.1,234.5,154.9,234.3,154.6z"/>
					<path class="st19" d="M241.1,145.6c-2.2,4.4-6.3,6.8-9.2,5.4c-2.9-1.4-3.5-6.2-1.3-10.6c2.2-4.4,6.3-6.8,9.2-5.4
						C242.7,136.5,243.3,141.2,241.1,145.6z"/>
					<path class="st16" d="M240.5,145.3c-1.9,3.9-5.6,6.1-8.2,4.8c-2.6-1.3-3.1-5.5-1.2-9.5c1.9-4,5.6-6.1,8.2-4.8
						C242,137.1,242.5,141.4,240.5,145.3z"/>
					<path class="st10" d="M245.8,141.3c-0.8,2-2.5,3.1-3.9,2.6c-1.3-0.5-1.7-2.6-0.9-4.6c0.8-2,2.6-3.2,3.9-2.6
						C246.2,137.3,246.6,139.3,245.8,141.3z"/>
					<path class="st10" d="M243.1,146.6c-0.3,0.7-1,1.2-1.4,1c-0.5-0.2-0.7-1-0.3-1.7c0.3-0.7,1-1.2,1.5-1
						C243.3,145,243.5,145.8,243.1,146.6z"/>
				</g>
			</g>
		</g>
	</g>
</g>
</svg>
