<?xml version="1.0" encoding="utf-8"?>
<!-- Generator: Adobe Illustrator 26.0.0, SVG Export Plug-In . SVG Version: 6.00 Build 0)  -->
<svg version="1.1" id="Layer_1" xmlns="http://www.w3.org/2000/svg" xmlns:xlink="http://www.w3.org/1999/xlink" x="0px" y="0px"
	 viewBox="0 0 595.3 595.3" style="enable-background:new 0 0 595.3 595.3;" xml:space="preserve">
<style type="text/css">
	.st0{fill:#DA99C2;}
	.st1{fill:#F9D5E4;}
	.st2{fill:#111F3C;}
	.st3{fill:#1C779E;}
	.st4{opacity:0.6;fill:#1C779E;}
	.st5{fill:#3A8690;}
	.st6{fill:#9BD7D3;}
	.st7{fill:#52B8C2;}
	.st8{fill:#D6906E;}
	.st9{fill:#F6C8A3;}
	.st10{opacity:0.7;fill:#F6C8A3;}
	.st11{fill:#C28263;}
	.st12{fill:#542C23;}
	.st13{fill:#FFFFFF;}
	.st14{fill:#E4E4E4;}
	.st15{fill:#F6CFB1;}
	.st16{clip-path:url(#SVGID_00000137837318516022818950000001431847661573816230_);}
	.st17{fill:#352B20;}
	.st18{fill:#64513F;}
	.st19{fill:#C0BEBE;}
	.st20{fill:#171413;}
	.st21{clip-path:url(#SVGID_00000174576803645042570560000013849331581642549892_);}
	.st22{fill:#31797F;}
	.st23{fill:#E0DEDD;}
	.st24{fill:#A1A1A0;}
	.st25{fill:#BABCA5;}
	.st26{fill:#EF5733;}
	.st27{fill:#F6893A;}
	.st28{opacity:0.4;fill:#AB4226;}
	.st29{fill:#7D2C19;}
	.st30{fill:#F4AA72;}
	.st31{fill:#FBEDA8;}
	.st32{fill:#010101;}
	.st33{opacity:0.6;fill:#F6C8A3;}
</style>
<g>
	<g>
		<g>
			<path class="st0" d="M507.1,466.6c-1.8-5.3-4.4-10-8-13.8c-1.6-1.4-3.2-2.7-4.9-3.8c-3.2-2.1-6.6-3.7-10.1-5.1
				c-9.2-1.5-18.4-3.4-26.5-8.8c-9-5.9-16.8-12.9-26.6-17.7c-5.7-2.8-12.2-5.1-17.3-1.2c-0.1,2-0.4,3.9-0.7,5.9
				c-0.6,3.6,1.8,4.1,4,6.1c3.6,3.2,6.5,7.2,9,11.3c3,5,5.6,10.3,8.2,15.6c1.4,2.8,2.6,5.6,3.9,8.4c0.9,1.9,1.4,3.9,2.3,5.8
				c11.3,3.9,22.8,7.2,34,11.5c8.4,3.3,21.5,10.8,30,4.6C510,481.3,509,472.3,507.1,466.6z"/>
			<path class="st1" d="M506.3,474.8c-0.6-4.6-1.8-9.1-3.9-13.2c-3.6-7.2-10.3-12-17.3-15.4c-7.5-0.9-14.9-1.9-21.9-5.2
				c-8.2-3.8-14.8-10.5-22.4-15.5c-7.5-4.9-18.3-12.7-27.2-8.1c-0.1,1.6-0.4,3.2-0.7,4.8c-0.6,3.6,1.8,4.1,4,6.1
				c3.6,3.2,6.5,7.2,9,11.3c3,5,5.6,10.3,8.2,15.6c1.4,2.8,2.6,5.6,3.9,8.4c0.5,1.1,0.9,2.2,1.3,3.3c3.9,0.7,9.2,3.1,11.4,3.8
				c4.1,1.3,8.2,2.5,12.2,3.9c8.4,2.9,16.5,6.7,25,9.1C495.1,485.6,508,487.5,506.3,474.8z"/>
			<path class="st1" d="M487.7,456.8c-1.6,6.1-1.9,12.2-0.9,18.6c0.4,2.6,0.8,5.5,1.6,8.3c1.8,0.5,3.8,0.9,6,1.2
				C489.9,476.3,488.2,466.7,487.7,456.8z"/>
			<path class="st1" d="M438.7,426.2c8.1,6.5,16.5,17,27.2,19c5.5,1,11.2,0.8,16.7,1.9c2.6,0.5,5.1,1.1,7.7,1.9
				c-1.7-1.1-3.4-2-5.2-2.9c-7.5-0.9-14.9-1.9-21.9-5.2c-8.2-3.8-14.8-10.5-22.4-15.5c-6.3-4.2-15-10.3-22.9-9.4
				C425.7,417.3,432.6,421.3,438.7,426.2z"/>
			<path class="st1" d="M480.7,478.5c-8.8-4.4-17.5-11.1-24.2-18.3c-12.2-13.1-17.5-31.1-30.7-43c-4.1-1.4-8.3-1.7-12.2,0.2
				c-0.1,1.6-0.4,3.2-0.7,4.8c-0.6,3.6,1.8,4.1,4,6.1c3.6,3.2,6.5,7.2,9,11.3c3,5,5.6,10.3,8.2,15.6c1.4,2.8,2.6,5.6,3.9,8.4
				c0.5,1.1,0.9,2.2,1.3,3.3c3.9,0.7,9.2,3.1,11.4,3.8c4.1,1.3,8.2,2.5,12.2,3.9c8.4,2.9,16.5,6.7,25,9.1c2,0.6,4.4,1.1,6.8,1.4
				C489.9,483,485.2,480.8,480.7,478.5z"/>
			<path class="st2" d="M467.8,504c-1.1-7.4-4.1-13.5-8.9-19.3c-3-3.6-6.4-6.9-9.5-10.4c-0.5-0.6-1.7-2.1-2.8-3.1
				c-1.3-4.9-2.7-9.7-4.2-14.5c-2.1-5.6-4.7-10.9-7.5-16.2c-5.1-9.7-10.6-19.2-18.3-27.2c-0.4-0.2-1-0.5-1.2-0.8
				c-1.6-2.1-0.4-5.7,0.1-8.5c0,0,0,0.1-0.1,0.1c0.3-9-0.3-18-2.1-27.1c0-0.1-0.2,0-0.2,0.1c0.2,1.5,0.3,3,0.5,4.5
				c-0.8-1-2.2-1.2-4.1-1.6c-4.1-0.7-8.5-0.5-12.6-0.5c-8.7-0.1-17.3-0.5-26-0.4c-18.8,0.3-37.5,1.6-56.2,3.8
				c-18.8,2.1-37.4,5.2-55.9,9.1c-14.5,3-29.5,6.3-43.2,12.2c0-0.1,0-0.3-0.2-0.2c-19.1,7.7-36.3,19.8-51.8,33.3
				C148.2,450.7,135.1,467,127,486c-7.6,17.8-12.6,39.9,3.7,54.2c12.4,11,32,12.6,48.6,12c14.7,5.3,29.7,9.4,45.4,10.4
				c27.4,1.8,55-3.3,81.6-9.5c26.5-6.2,52.6-13.8,78.5-22.1c27.4-8.8,54.1-21.1,83.1-23.6C467.9,506.3,467.9,505.2,467.8,504z"/>
			<path class="st3" d="M445.9,476.4c1.2,4.2,2.3,9.1,4.2,13.5c0.3-0.1,0.6-0.5,0.5-0.7c-1.1-5.2-2.2-10.4-3.5-15.6
				c1,1.6,2,3.3,2.3,3.8c1.9,2.6,4.2,5,6.4,7.4c3,3.4,5.6,7,7.6,11c1.4,2.8,1.7,6.3,2.7,9.4c-25.5,2.7-49.1,12.8-73.3,20.9
				c-25.6,8.6-51.8,15.9-78,22.6c-27.4,7-55.4,12.1-83.8,11.7c-14.5-0.2-28.3-3.4-41.8-7.6c-5.5-1.3-10.9-3.4-16.2-5.1
				c-6.7-2.1-13.4-4.3-20.2-5.9c7.2,3,14.4,6,21.7,8.7c-13.5-0.5-26.9-1.5-38.8-9.4c-21-13.9-13.5-40.8-4.8-59.7
				c15-32.7,47.7-58.4,79.5-74.7c15.3-6.1,31.6-10,47.7-13.4c17-3.6,34.2-6.4,51.5-8.5c17.3-2.1,34.7-3.4,52.1-4
				c8.4-0.3,16.7-0.4,25-0.1c4,0.2,8.1,0.3,12.1,0.3c3.5,0,13.5-1.1,14,3.8c0.1,0.5,0.4,0.3,0.8,0c2.4,33.6-5.3,72-27.2,97.7
				C363.2,510.1,326,526,291.2,533c-0.2,0.1-0.5,0.6-0.2,0.6c7-1.1,14-2.6,21-4.5c-8.2,5.3-16.2,14.1-26,15.7
				c-0.2,0-0.5,0.5-0.2,0.5c5.4-0.2,9.6-3.2,14.1-6c4.9-3,10.2-5.8,13.8-10.4c0.1-0.1,0.1-0.3,0.2-0.4c28.3-8,55.1-22.7,74.6-44.6
				c11.6-13.1,18.3-29.3,22.2-46.2c1.9-8.1,3.3-16.1,4.1-24.1c0,0.1,0.1,0.2,0.2,0.3c0.9,0.7,1.8,1.5,2.5,2.4
				c2.1,2.1,3.9,4.7,5.6,7.2c2.9,3.2,5.4,7.2,7.3,10.6c3.7,6.3,6.7,13.1,9,20C441.9,461.5,443.7,469,445.9,476.4z"/>
			<path class="st3" d="M158.3,450c18.4-17.8,38.9-33.3,60.8-46.4c-2.9,1-5.7,2-8.6,3.1c-31.7,16.3-64.4,42.1-79.5,74.7
				c-5.5,11.9-10.5,27-8.2,40C120.7,493.6,138.7,469,158.3,450z"/>
			<path class="st3" d="M430.4,439.1c3.6,9.8,3.4,19-2.6,27.7c-11.1,16.5-26.2,29.9-43.1,40.3c23.5-11.1,45.6-29.1,54.4-53.6
				c-2.3-6.7-5.2-13.3-8.8-19.4c-2-3.4-4.4-7.3-7.3-10.6c-0.2-0.3-0.5-0.7-0.7-1C425.2,428,428.3,433.3,430.4,439.1z"/>
			<path class="st3" d="M266.2,455.7c-16.3,8.6-30.8,19.8-43.7,32.9c13.9-9.6,26.8-20.6,41.5-28.9c12.2-6.9,24.8-12.8,37.8-18
				c-2.1,0.5-4.1,1.1-6.1,1.7C285.5,446.5,275.6,450.7,266.2,455.7z"/>
			<path class="st4" d="M463.5,495.9c-2-4.1-4.6-7.6-7.6-11c-2.1-2.4-4.5-4.8-6.4-7.4c-0.3-0.4-1.3-2.2-2.3-3.8
				c1.3,5.2,2.5,10.4,3.5,15.6c0,0.2-0.3,0.6-0.5,0.7c-1.9-4.4-3-9.3-4.2-13.5c-2.2-7.4-4.1-14.9-6.5-22.3c-2.3-6.9-5.3-13.7-9-20
				c-2-3.4-4.4-7.3-7.3-10.6c-1.7-2.6-3.5-5.1-5.6-7.2c-0.8-0.9-1.6-1.7-2.5-2.4c-0.1-0.1-0.1-0.2-0.2-0.3c-0.8,8-2.3,16-4.1,24.1
				c-3.9,16.9-10.6,33.1-22.2,46.2c-19.5,21.9-46.3,36.6-74.6,44.6c0,0.1-0.1,0.3-0.2,0.4c-3.6,4.6-8.9,7.4-13.8,10.4
				c-4.5,2.8-8.7,5.7-14.1,6c-0.3,0,0-0.4,0.2-0.5c9.9-1.6,17.8-10.4,26-15.7c-7,1.9-14,3.4-21,4.5c-0.3,0.1,0-0.5,0.2-0.6
				c34.8-7,72-22.9,95.5-50.5c21.9-25.7,29.6-64.1,27.2-97.7c-0.3,0.3-0.7,0.4-0.8,0c-0.5-5-10.5-3.8-14-3.8c-4,0-8.1-0.1-12.1-0.3
				c-8.3-0.3-16.7-0.2-25,0.1c-17.4,0.5-34.8,1.9-52.1,4c-17.3,2.1-34.5,4.9-51.5,8.5c-16.1,3.4-32.3,7.3-47.7,13.4
				c-3.8,2-7.7,4.1-11.5,6.3c14.6-0.8,28.9,2,42,9.2c3.9,2.2,7.8,4.5,11.5,7.1c3.8,2.6,7.5,5.7,11.6,7.6c8.2,4,17.3,3.9,26.2,3.2
				c15.5-1.2,30.9-10.5,46.6-7.3c0.5,0.1,0.7,0.7,0.4,1.1c-6.7,10.4-14.9,19.9-24.6,27.6c-10.5,8.3-22.3,14.5-34.6,19.7
				c-13.5,5.8-27.5,10.5-41.6,14.7c-10.6,3.1-21.7,10.4-33.1,9.7c-0.5,0-0.9-0.5-0.7-0.9c2.7-8.4,9.3-15.1,15.8-20.7
				c7.3-6.3,15-12.1,23.1-17.3c15.4-9.8,31.9-18,49.3-23.5c-7.4,1.2-14.7,2.9-21.9,5.1c-20.8,6.2-40.7,15.4-59,27.1
				c-9.7,6.2-18.3,13.7-27.1,21c-4.2,3.5-8.5,7-12.9,10.2c-3.1,2.2-6.2,4.3-10.1,4.7c-14.7,1.5-29.9-8.7-31.4-23.9
				c0-0.1,0-0.1,0-0.2c-7.4,18.4-11.7,41.5,7.2,54c11.9,7.9,25.2,8.8,38.8,9.4c-7.3-2.7-14.5-5.7-21.7-8.7
				c6.8,1.7,13.5,3.8,20.2,5.9c5.3,1.7,10.7,3.8,16.2,5.1c13.6,4.2,27.4,7.4,41.8,7.6c28.4,0.4,56.4-4.7,83.8-11.7
				c26.2-6.7,52.3-14,78-22.6c24.1-8.1,47.7-18.2,73.3-20.9C465.2,502.1,464.9,498.7,463.5,495.9z"/>
			<path class="st4" d="M198.9,491.2c-6.7,6.2-13,12.9-17.3,21c21.3-20.7,45.5-38.5,71.7-52.4c6.9-3.9,13.9-7.3,21.2-10.4
				c-17.8,3.4-34.7,10.9-49.7,21.3C215.7,476.8,207,483.8,198.9,491.2z"/>
			<path class="st4" d="M463.5,495.9c-2-4.1-4.6-7.6-7.6-11c-2.1-2.4-4.5-4.8-6.4-7.4c-0.3-0.4-1.3-2.2-2.3-3.8
				c1.3,5.2,2.5,10.4,3.5,15.6c0,0.2-0.3,0.6-0.5,0.7c-1.9-4.4-3-9.3-4.2-13.5c-1.1-3.6-2-7.2-3.1-10.9c-0.6,2.2-1.5,4.4-2.7,6.5
				c-3.4,6.1-8.3,11.1-13.2,16c6.4-1,13-1.5,19.2,0.7c0.6,0.2,0.7,1,0.2,1.4c-16.4,11.9-36.3,18.8-55.2,25.6c-10.5,3.8-21,7-31.8,10
				c-7.7,2.1-15.8,5.5-23.9,3.8c-0.8-0.2-0.6-1.2,0-1.4c25.4-10.6,48.8-25.3,66.4-46.7c11.6-14,25-33.6,25-52.9
				c-1.2-1.7-2.5-3.4-3.8-5c-1.7-2.6-3.5-5.1-5.6-7.2c-0.8-0.9-1.6-1.7-2.5-2.4c-0.1-0.1-0.1-0.2-0.2-0.3c-0.8,8-2.3,16-4.1,24.1
				c-3.9,16.9-10.6,33.1-22.2,46.2c-19.5,21.9-46.3,36.6-74.6,44.6c0,0.1-0.1,0.3-0.2,0.4c-3.6,4.6-8.9,7.4-13.8,10.4
				c-4.5,2.8-8.7,5.7-14.1,6c-0.3,0,0-0.4,0.2-0.5c9.9-1.6,17.8-10.4,26-15.7c-7,1.9-14,3.4-21,4.5c-0.3,0.1,0-0.5,0.2-0.6
				c34.8-7,72-22.9,95.5-50.5c21.9-25.7,29.6-64.1,27.2-97.7c-0.3,0.3-0.7,0.4-0.8,0c-0.5-5-10.5-3.8-14-3.8c-2.5,0-4.9-0.1-7.4-0.1
				c0.3,1.6,0.7,3.2,1,4.8c4.1,18.9-1.1,39.7-9.5,56.6c-18.3,37-56.2,58.2-93.2,72.8c-19.2,7.5-38.5,16.2-59.1,19.3
				c-9.3,1.4-18.9,1.8-28.1-0.1c-5-1.1-9.6-2.9-14.1-5.1c-5-2.3-10.3-5.4-15.9-5.8c-10-0.8-20.4,2.8-30.2-0.4c-6-2-11.1-6-14.4-11.4
				c-1.9-3.2-3.3-6.6-4.1-10.1c-3.5,14.9-2.4,30.3,11.9,39.7c11.9,7.9,25.2,8.8,38.8,9.4c-7.3-2.7-14.5-5.7-21.7-8.7
				c6.8,1.7,13.5,3.8,20.2,5.9c5.3,1.7,10.7,3.8,16.2,5.1c13.6,4.2,27.4,7.4,41.8,7.6c28.4,0.4,56.4-4.7,83.8-11.7
				c26.2-6.7,52.3-14,78-22.6c24.1-8.1,47.7-18.2,73.3-20.9C465.2,502.1,464.9,498.7,463.5,495.9z"/>
			<path class="st3" d="M435.9,477.1c-8,9.9-19.3,16.8-29.9,23.4c-11.2,7.1-23.1,13-34.9,19.2c-0.5,0.2-0.8,1.6,0,1.2
				c13-5.6,25.5-12,37.4-19.6c10.3-6.6,20.7-13.8,27.7-23.9C436.5,477,436.2,476.8,435.9,477.1z"/>
			<path class="st3" d="M319,435.7c-54.1,9.4-106.3,43.1-142.2,84c-0.4,0.4,0,1,0.4,0.5c38.8-39.5,86.5-72.3,141.5-83.9
				C319.1,436.3,319.4,435.7,319,435.7z"/>
			<path class="st3" d="M255.4,449.5c-14.4,9.1-29.5,16.5-43.2,26.8c-13.7,10.4-26.5,21.6-37.7,34.8c-0.4,0.5,0,1.2,0.5,0.6
				c11.3-11.6,22.9-22.4,35.6-32.5c14.1-11.2,29.9-19.3,44.8-29.3C255.7,449.9,255.8,449.3,255.4,449.5z"/>
		</g>
		<g>
			<path class="st5" d="M419.2,336c1.2-13.4-1-27.3-3.1-40.4c-2.6-15.9-5.8-31.7-10.2-47.2c-3.7-13.2-9.2-25.6-17.6-36.5
				c-0.2-0.3-0.5-0.6-0.8-0.9c0-0.3,0-0.6-0.1-0.8c-0.3-1.5-0.3-3.1-0.2-4.6c0.1-1.7,0.4-3.5,0.6-5.2l0,0c0.1-1.9,0.2-3.8,1.1-5.4
				c6.3-39.8,3.1-82.5-15.6-118.6c-8.6-16.7-21.1-31.4-37.2-41.3c-18.7-11.6-41.3-15-62.9-11.5c-17.8,2.8-34.7,10.7-48.4,22.4
				c-4.6,4-8.6,8.3-12,13c-2.9,3.5-5.4,7.2-7.7,10.9c-6.2,10.2-9.5,21-10.8,32.6c-0.5,0.7-1,1.5-1.5,2.2c-2.3,3.6-3.7,7.5-2,11.6
				c1,2.3,3.2,4.6,5.6,6.5c-2.5,20.4-2.4,41.3,5.1,60.8c3.4,9,8.4,17.5,14.4,25.2c2,3.7,5.4,7,8.4,9.9c-5.9,6.2-10.8,13.6-15.1,20.7
				c-8,13.5-14.5,28-20.3,42.6c-10.5,26.5-17.9,53.9-24.3,81.6c-1.8,2.3-3.3,4.8-4.5,7.6c-0.9,2.1-3.1,7.2-1,9.3
				c1.7,1.7,4.2,0.6,6-0.4c4.3-2.3,8.5-5,12.7-7.5c10.3-6.3,21.9-8.5,33.6-10.4c11.6-1.9,23.2-3.1,35-3.4c12.1-0.3,24,1.3,36,2.5
				c11.2,1.1,22.3,2.8,33.3,5c11.2,2.2,22.6,3.6,33.7,6.3c10.8,2.6,21.6,1.5,32.6,0.2c13.8-1.7,34.3-8.3,38.3-23.6
				c0.1-0.1,0.2-0.2,0.2-0.3C421.9,345.4,422,339.2,419.2,336z"/>
			<path class="st6" d="M420,344.9c-0.9,10-9,16.6-17.3,20.9c-4.9,2.5-10.2,3.8-15.6,4.6c-6,1-12.1,1.8-18.2,2
				c-11.5,0.5-23-2.6-34.3-4.5c-11.2-1.9-22.1-4.7-33.3-6.4c-22.3-3.3-45-5.6-67.5-3.8c-11.6,0.9-23.3,2.6-34.7,5.2
				c-10.4,2.3-18.7,6.9-27.7,12.4c-1.7,1-3.5,2-5.2,3c-3,1.7-6.1,2.2-6-2.4c0.2-3.6,2.3-7.8,4.5-11.2c-0.7,2.9-1.3,5.9-2,8.8
				c0.5-1,0.9-2,1.4-3c7.5-28.1,14.2-56.2,24.5-83.5c5.5-14.6,11.9-28.9,19.3-42.6c5.1-9.4,11-18.1,18.2-25.7
				c0.2-0.1,0.3-0.3,0.4-0.5c0.7-1.3,1.4-2.6,2.2-3.8c-0.9,0.8-1.8,1.7-2.7,2.5c-0.9-1-1.8-2-2.7-3c-0.9-0.9-1.8-1.8-2.7-2.8
				c-0.3-0.3-0.6-0.6-0.9-0.9c-4.4-5.4-8.5-11-11.6-17.1c-1.5-2.8-2.8-5.8-4-8.8c-0.1-0.3-0.3-0.6-0.4-0.9
				c-7.9-18.8-8.1-39.9-6.4-60.2c1.3,1,2.5,1.9,3.7,2.7c-3.3-3.7-7.7-7.4-8.8-12c-0.1-0.3-0.1-0.6-0.2-0.9c0,0,0-0.1,0-0.1
				c-0.3-2.1,0.2-4.2,1.3-6.3c1.5-3.5,4-6.5,6.4-9.5c2-2.4,4-4.8,6-7.2c-3.8,3.3-7.2,7-10.2,11c0,0,0,0,0,0
				c0.5-3.5,1.2-6.9,2.1-10.3c4-9.5,8-18.9,13.7-27.5c2.9-3.8,6.1-7.3,9.6-10.5c1.1-1.5,2.3-2.9,3.6-4.3c3-3.3,6.5-5.9,10.2-8.1
				c3-2,6.1-3.8,9.3-5.5c21.8-11.2,47.9-13.8,71.4-6.8c40.1,12,62.3,51.6,70.6,90.2c2.5,11.7,3.8,23.7,4.1,35.6
				c0.3,13.5-1.1,26.9-2.6,40.2c-0.9,4.5-2,9-3,13.6c-1.3-1.3-2.7-2.5-4.2-3.6c-1.8-1-3.6-2-5.3-3l0,0c-0.3-0.1-0.6-0.2-0.8-0.3
				c-5.5-1.9-12-0.5-17.7,1c2-0.1,4.1-0.2,6.1-0.2c4-0.4,8-0.2,11.8,1.3c0.1,0,0.2,0.1,0.3,0.1c2,0.6,3.8,1.8,5.3,3.2
				c1.9,1.2,3.6,2.7,5.1,4.5c0.1,0.1,0.2,0.3,0.3,0.4c2.1,2.2,3.9,4.6,5.1,7.3c7.2,10.7,11.5,22.8,14.9,35.2
				c3.9,14.1,6.7,28.6,9.1,43.1c1.5,9.1,2.5,18.1,2.9,27.2c0.6,6.1,0.5,12.1,0,18.2c0.2,0.4,1-0.2,1.1-0.7c0.1-0.8,0.2-1.5,0.3-2.3
				c0.1,0.3,0.3,0.6,0.4,1c0.5,1.6,0.8,3.2,0.8,4.8C420,344.9,420,344.9,420,344.9z"/>
			<path class="st6" d="M349.9,237.1c-3.3,17.3,1.2,36.2,6.9,54c-1.8-9.9-2.6-20-4.5-30C350.7,253.1,349.5,245,349.9,237.1z"/>
			<path class="st6" d="M247.2,63.9c16.8-2.3,36-0.3,52.1,7.1c-8.2-5.9-17.7-9.8-27.9-11.6c-20.4-3.4-41.6,1.4-58.7,12.9
				c-0.5,0.3-1.1-0.3-0.8-0.8c5.7-8.5,11.6-17,19-24.2c7.8-7.6,17.1-13.6,27-18c1-0.4,2-0.8,3-1.2c-5.8,1.7-11.5,3.9-16.9,6.7
				c-3.2,1.6-6.3,3.5-9.3,5.5c-3.7,2.2-7.2,4.8-10.2,8.1c-1.3,1.4-2.4,2.8-3.6,4.3c-3.5,3.2-6.7,6.7-9.6,10.5
				c-5.7,8.6-9.7,18-13.7,27.5c-0.2,0.9-0.5,1.8-0.7,2.8C207.3,76.8,228.8,66.5,247.2,63.9z"/>
			<path class="st6" d="M192.1,113.2c0,0.3,0.1,0.6,0.2,0.9c1,4.6,5.4,8.2,8.8,12c-1.2-0.8-2.4-1.7-3.7-2.7
				c-1,11.7-1.3,23.6,0.1,35.2c-0.5-10.5,0.3-21.1,1.8-31.6c0.1-0.4,0.6-0.5,0.9-0.3c2.1,1.3,4,2.8,5.9,4.4c-1.9-3-4-5.8-6-8.8
				c-2.1-3.2-4.7-7.1-5.3-11c-0.5-3.5,0.2-6.7,1.6-9.7c-1.2,1.6-2.3,3.4-3.1,5.2c-1,2.2-1.5,4.3-1.3,6.3
				C192.1,113.1,192.1,113.2,192.1,113.2z"/>
			<path class="st6" d="M240.3,245.6c5,6.3,10.8,11.8,18.6,14.2c10.3,3.3,20.3,0.5,28.8-5.8c6.3-4.6,13.9-10.8,16.9-18.3
				c-11.7,8.4-23,17.4-38,18.4C256.6,254.9,247.4,252,240.3,245.6z"/>
			<path class="st6" d="M233.5,298.1c-8.4-12.1-12.2-27.3-12.1-42c-1.2,13.3-0.1,27.3,6,39c4.2,8.1,10.5,14.7,19.4,17.4
				c3.5,1,7,1.6,10.6,1.7C247.8,312.3,239.5,306.7,233.5,298.1z"/>
			<path class="st6" d="M208.4,244.9c0.9-2.2,1.9-4.3,3-6.4c-1.2,2-2.4,4-3.5,6c-6.9,12.7-12.9,25.9-18.1,39.4
				c0.8-1.5,1.5-3.1,2.3-4.6c2.6-5.4,5.4-10.8,8.8-15.7c0.3-0.5,1.1-0.3,1.1,0.3c0,16.8,0.8,37.1,11.2,51.2
				c-2.4-6.9-5.8-13.4-7.4-20.5c-1.9-8.5-2.5-17.2-2-25.8C204.3,260.6,205.3,252.4,208.4,244.9z"/>
			<path class="st7" d="M348.1,273.6c-3.1-17.3-3-34.2,4.3-50.5c0.1-0.2-0.2-0.1-0.2,0c-7.3,15.3-8.4,31-6.1,47.6
				c1.2,8.8,3.2,17.7,5.4,26.4c2.4,9.3,4.8,18.6,7,28c0.1,0.4,0.6-0.1,0.6-0.3C355.9,307.5,351.1,290.7,348.1,273.6z"/>
			<path class="st7" d="M333.3,95.6c-4.4-8.3-9.5-16.3-16.3-22.8c-3.7-3.5-8.1-6.2-12.7-8.6c-4.1-2.1-8.1-4.2-12.6-5.1
				c-0.1,0-0.3,0.2-0.2,0.3c8.8,2.7,17.7,8.5,24.4,14.7c7.2,6.7,12.2,15.3,16.7,23.9c9.3,17.7,14.1,37.7,16.5,57.4
				c0,0.3,0.5-0.1,0.5-0.3C348.1,134.3,343.1,114.1,333.3,95.6z"/>
			<path class="st7" d="M257.3,330.2c-17.3-6.5-33.9-20.7-39.1-38.9c-5.4-18.6-3.2-39.8,1.8-58.3c0.1-0.3-0.3-0.1-0.3,0
				c-6.1,19.1-8.3,40.8-2.7,60.3c5.2,18,22.4,32.5,40.1,37.4C257.2,330.8,257.6,330.3,257.3,330.2z"/>
			<path class="st6" d="M419.2,340c-0.1-0.3-0.2-0.6-0.4-1c-0.1,0.8-0.2,1.5-0.3,2.3c-0.1,0.5-0.9,1.1-1.1,0.7
				c0.4-6.1,0.5-12.2,0-18.2c-0.4-9.1-1.4-18.1-2.9-27.2c-2.4-14.4-5.2-28.9-9.1-43.1c-3.4-12.4-7.7-24.5-14.9-35.2
				c-1.2-2.7-3-5.1-5.1-7.3c-0.1-0.1-0.2-0.3-0.3-0.4c-1.5-1.9-3.3-3.3-5.1-4.5c-1.4-1.4-3.3-2.6-5.3-3.2c-0.1,0-0.2-0.1-0.3-0.1
				c-3.8-1.5-7.8-1.6-11.8-1.3c-2,0-4.1,0-6.1,0.2c5.7-1.5,12.2-2.9,17.7-1c0.3,0.1,0.6,0.2,0.8,0.3l0,0c1.8,1,3.6,2,5.3,3
				c1.5,1.1,2.9,2.3,4.2,3.6c0.9-4.5,2-9,3-13.6c1.5-13.4,2.9-26.7,2.6-40.2c-0.3-12-1.6-23.9-4.1-35.6
				c-8.3-38.6-30.4-78.2-70.6-90.2c-6.3-1.9-12.7-3-19.2-3.5c4.1,0.8,8.2,1.8,12.2,3.3c16.1,5.9,29.7,16.2,40.2,29.6
				C359.4,71,365.8,87.2,369,104c1.7,9.1,2.3,18.2,2.1,27.4c-0.1,5.9,1.8,14.2-1.7,19.4c-0.3,0.4-1,0.6-1.3,0
				c-3.3-7.7-4.5-16.2-7.4-24c-3.1-8.4-6.5-16.9-10.6-24.9c-7.7-14.8-18.2-28.5-32.5-37.5c-13.8-8.7-29.6-14-46-13.7
				c-6.5,0.1-13.2,0.6-19.6,1.8c5.4,0,10.8,0.4,16.1,1c11.1,1.2,22.8,3.5,32.6,9.2c9.3,5.4,17,13.5,22.6,22.7
				c3.4,5.5,6.2,11.2,9.3,16.9c2.6,4.7,5.1,9.5,5.2,15.1c0,0.8-1,1-1.4,0.4c-9-12.7-18.8-25.1-31.9-33.8
				c-12.8-8.5-27.8-14-43.2-15.2c-15.9-1.3-32.1,1.8-45.4,10.9c-6.4,4.4-12,9.8-16.9,15.9c-1.1,1.4-2.3,2.9-3.4,4.3
				c0,0.3-0.1,0.6-0.2,0.9c0.3-0.3,0.5-0.5,0.8-0.8c2.8-3.6,5.9-6.9,9.4-9.9c-1.5,1.7-2.9,3.5-4.4,5.3c2.6-2.2,5.2-4.1,8.1-5.9
				c0.6-0.3,1.3,0.2,1.1,0.8c-1.6,6-3.7,12.1-6,17.9c-1.9,4.6-4.4,9.3-1,13.7c2.1,2.7,4.4,5.1,5.1,8.6c0.8,4.3-1.2,10-2.2,14.2
				c-2.6,11-4.8,21.6-3.4,33c0.3,2.2,0.7,4.4,1.1,6.5c0,0.1,0.1,0.1,0.1,0.2c1.2,3,2.6,6,4,8.8c3.2,6.1,7.2,11.8,11.6,17.1
				c0.3,0.3,0.6,0.6,0.9,0.9c0.8,1,1.7,1.9,2.7,2.8c0.9,1,1.8,1.9,2.7,3c0.9-0.9,1.8-1.7,2.7-2.5c-0.8,1.2-1.5,2.5-2.2,3.8
				c-0.1,0.2-0.3,0.3-0.4,0.5c-3.9,4.1-7.4,8.6-10.7,13.3c0.2,0.1,0.3,0.3,0.3,0.6c-0.2,5.2-2.6,9.8-3.7,14.8
				c-1.2,5.6-1.9,11.2-2,17c-0.1,11.5,0.6,23.4,5.8,33.9c8.5,16.9,22.7,28.7,40.6,34.5c0.5,0.2,0.8,1.1,0.2,1.4
				c-10.1,4.3-22.8,0.6-32-4.4c-9.2-4.9-17-12.1-22.6-20.9c-5.6-8.8-9.1-18.7-10.8-29c-0.9,2.8-1.2,5.9-1.4,8.6
				c-0.5,5.8,0,11.5,1.3,17.2c1.4,5.7,2.8,11.7,5.5,16.9c2,3.8,5.8,7.1,7.3,11.2c0.9,2.4,1.6,5.9-0.3,8.1c-2,2.4-5.2,2.6-7.9,3.6
				c-9.2,3.1-17.7,8.5-23.7,16.3c4.1-2.7,8.1-5.9,12.7-7.6c5.7-2.2,11.7-3.6,17.8-4.5c7.8-1.1,16.9-2.5,23.5,2.7
				c0.5,0.4,0.1,1.3-0.5,1.3c-23.3,0.3-45.7,8.8-61.6,25.7c0.6-0.2,1.3-0.5,1.9-0.9c1.7-1,3.5-2,5.2-3c9-5.5,17.3-10,27.7-12.4
				c11.4-2.6,23.1-4.3,34.7-5.2c22.5-1.8,45.2,0.5,67.5,3.8c11.2,1.7,22.2,4.5,33.3,6.4c11.3,1.9,22.8,5.1,34.3,4.5
				c6.1-0.3,12.2-1.1,18.2-2c5.4-0.9,10.7-2.1,15.6-4.6c8.3-4.3,16.5-11,17.3-20.9c0,0,0-0.1,0-0.1C420,343.2,419.7,341.6,419.2,340
				z M311.2,280.3c-2.9,7.4-7.9,15.4-13.2,21.4c-6.1,6.8-13.6,12.1-22.3,15c-14.6,4.9-32.1,3.8-43.3-7.9
				c-9.1-9.5-12.7-22.9-13.8-35.7c-0.8-8.7-0.5-17.6,0.5-26.3c-0.2-7.5,0.8-15.1,4.8-21.5c0.3-0.5,1.2-0.5,1.4,0.2
				c0.7,2.5,0.6,4.9,0.7,7.4c0.1,3.6,0.7,7.1,1.6,10.6c1.5,5.8,3.2,11.6,5.8,17c4.7,10,12,19.9,22.4,24.7c19,8.8,40.1-0.6,55.9-11.9
				c0.5-0.3,1.1,0.1,1.1,0.6C312.6,276.2,312,278.3,311.2,280.3z M314.5,231c-2.4,5.4-5,10.9-7.9,16.1c-5.8,10.2-14.2,20.7-26,23.8
				c-20.2,5.4-37.3-12.1-44.9-29.7c-2.9-4.8-7.4-12-5.7-17.7c0.2-0.6,0.8-0.7,1.2-0.3c2.9,2.4,4.3,5.6,6.5,8.6
				c2.9,3.8,6.2,7.1,10.3,9.5c8.6,5,19.1,7.8,28.8,4.9c16.7-5,28.4-17.2,39.4-30.1c0.3-0.4,1.1-0.2,1.2,0.3
				C318.3,221.4,316.5,226.5,314.5,231z M393.2,346.7c-0.3,0.7-1.1,0.7-1.4,0c-4.8-11.8-4.9-24.7-7.7-36.9c0,1-0.1,2-0.2,3
				c-0.4,5.4-0.7,10.9-2,16.2c-1.3,5.2-3.4,10.1-5.5,15.1c-1.6,3.8-3.4,7.7-6.5,10.7c-0.5,0.5-1.2,0.1-1.3-0.5
				c-0.4-6.6-2.3-13.1-4.2-19.4c-1.8-6-3.5-11.9-5.5-17.8c-4-12.2-8.4-24.4-10.9-37c-2.5-12.5-4.1-25.4-1.7-38
				c0.9-4.7,2.3-9.3,4.2-13.7c0.5-1.1,1-2.3,1.6-3.4c2.8-6.4,6.9-13.9,13.3-16.5c5.1-2.2,14.4,1.3,13.8,1.1
				c-10.8-3.3-14.9,8.3-16.2,16.8c-0.4,2.6-0.7,5.3-0.8,7.9c0.4,6,1.7,11.9,3.5,17.3c3.9,11.6,11.1,21.3,16.9,31.9
				c5.9,10.9,9.7,21.9,11.5,34.2C395.6,327.1,396.8,337.5,393.2,346.7z"/>
			<path class="st6" d="M330.5,81.1c-7.5-9.2-17.3-16.3-27.9-21.4c-7.1-3.4-14.6-4.4-22.2-4.4c7.1,1.5,14.1,3.7,20.3,7.4
				c4.5,2.6,8.7,5.9,12.4,9.6c2.2,1.6,4.3,3.3,6.2,5.2c7,7.1,12.2,15.4,16.5,24.4c4.6,9.7,6.9,20.1,9.6,30.5
				c0.8,3.2,1.7,6.4,2.4,9.6c1.1-9.6-1.8-19.6-4.1-28.7C340.7,102,338.1,90.5,330.5,81.1z"/>
			<path class="st6" d="M383.2,156.3c0,9.4-1.1,18.5-1.8,27.9c-0.4,4.2,0.3,10.9-5,12.2c-3.4,0.8-6.8,0.4-10.2,1.4
				c-3.8,1.1-7.5,2.4-10.7,4.7c-0.4,0.3-1-0.2-0.9-0.7c2.2-9.7,7.9-19,15.4-25.6c-15,3.2-23.2,16.4-28.1,30.3
				c-1.5,4.4-2.8,8.8-3.9,13.3c-0.9,6.2-1.5,12.5-2.3,18.8c-2.1,15.6-5.6,30.9-11.1,45.6c-4.3,11.4-9.9,22.6-18.1,31.7
				c-8.7,9.6-19.7,16.6-31.8,21.1c3.7,0.1,7.4-0.9,10.9-2.2c3.8-1.4,7.6-2.8,11.2-4.7c7.2-3.8,14.2-8.8,19.6-15
				c10.3-11.7,15-22.7,17.8-37.8c3.1-17.2,3.3-40,10.4-56.2c3-6.8,7.5-14.2,15-16.6c11.1-3.6,21.5,3.9,28.5,12
				c2,2.3,3.9,4.7,5.6,7.2c-1-1.7-2-3.4-3.1-5.1c-1.2-2.7-3-5.1-5.1-7.3c-0.1-0.1-0.2-0.3-0.3-0.4c-1.5-1.9-3.3-3.3-5.1-4.5
				c-1.4-1.4-3.3-2.6-5.3-3.2c-0.1,0-0.2-0.1-0.3-0.1c-3.8-1.5-7.8-1.6-11.8-1.3c-2,0-4.1,0-6.1,0.2c5.7-1.5,12.2-2.9,17.7-1
				c0.3,0.1,0.6,0.2,0.8,0.3l0,0c1.8,1,3.6,2,5.3,3c1.5,1.1,2.9,2.3,4.2,3.6c0.9-4.5,2-9,3-13.6c1.5-13.4,2.9-26.7,2.6-40.2
				c-0.3-12-1.6-23.9-4.1-35.6c-5.2-24.3-16-49.1-33.3-67.1c16.7,23.2,26.2,51.1,29.1,79.4C382.8,139.1,383.3,147.7,383.2,156.3z"/>
			<path class="st6" d="M218.8,242.9c-2.1,9.2-2,19.1-0.4,28.7c-0.6-8.2-0.3-16.5,0.6-24.7c0-1.7,0-3.4,0.1-5
				C219,242.2,218.9,242.5,218.8,242.9z"/>
			<path class="st6" d="M243.1,254.1c-3-4-5.5-8.5-7.4-12.9c-1.1-1.8-2.4-3.9-3.5-6.2c0.7,13.4,6.4,27,16.2,36.1
				c12.5,11.5,31.2,13.4,44.9,3.8c-8.7,3.4-19.7,2.2-27.8-1.5C256.3,269.3,248.5,262.5,243.1,254.1z"/>
			<path class="st6" d="M204.1,109.3c-1.8,4.2-3.6,8.5-0.6,12.6c0.1,0.1,0.2,0.2,0.3,0.4c-0.6-1-1.1-2.1-1.1-3.3
				c-0.2-2.9,0.4-5.8,1.1-8.6C203.9,110,204,109.7,204.1,109.3z"/>
			<path class="st6" d="M336.3,149.6c3.2,2.4,6.2,5.1,8.9,8c-0.7-3.4-1.5-6.7-2.6-10c-2.7-8.3-6.4-16.7-11.6-23.8
				c-5-6.8-11.4-12.4-17.7-18.1c-6.3-5.8-12.8-11.6-20-16.3c-7.5-4.8-15.9-8.4-24.4-10.9c-15.9-4.7-36-6-49.9,4.6
				c-3.1,2.4-5.8,5.2-8.1,8.2c-1.9,7-4.7,13.7-6.2,20.8c-0.8,3.9-1.6,8,1.5,11.1c1.7,1.7,3.8,3.4,4.4,5.8c1.7,7.3-0.1,15.8-1,23.1
				c-1,8.4-2.6,17-1.7,25.4c1.9,17.7,15,32.9,28.8,43.2c7.6,5.7,16,10.5,24.8,13.3c5.7,1.1,11.5,1.1,17.2,0
				c14.1-2.7,24.9-11.7,34.5-21.9c4.4-4.7,8.5-9.4,12.2-14.6c1.5-2.1,3.3-3.8,5.8-0.9c1,1.2-1.9,18.3-1.7,20
				c1.1-5.9,6.2-29.1,6.9-35c1.3-10.7,1.2-20.7-0.9-31.3C335.4,149.8,335.9,149.3,336.3,149.6z"/>
			<path class="st6" d="M220.3,299.2c7.4,15.1,21.3,30.4,38.8,32.5c-10.9-5.5-20.2-13.4-27.1-23.2c-6.7-7.2-10.4-16.5-12.2-26.1
				c-2.8-9.6-4.2-19.7-3.6-29.6C212.9,268.3,213.1,284.4,220.3,299.2z"/>
			<path class="st6" d="M419.2,340c-0.1-0.3-0.2-0.6-0.4-1c-0.1,0.8-0.2,1.5-0.3,2.3c-0.1,0.5-0.9,1.1-1.1,0.7
				c0.4-6.1,0.5-12.2,0-18.2c-0.4-9.1-1.4-18.1-2.9-27.2c-0.9-5.4-1.9-10.8-2.9-16.3c0.6,5.7,0.9,11.5,1.1,17.2
				c0.6,18.7-0.3,38.2-12.9,53c4.2-1,7.6-4.9,11-7.2c0.4-0.3,1,0.2,0.9,0.7c-3.1,10.6-12.4,18.5-22.4,22.4
				c-5.2,2.1-10.8,3.4-16.5,3.1c-7.5-0.4-15-2.2-22.3-4.1c-8-2.1-15.9-4.5-24-6c-8.5-1.6-17.3-2.2-26-2.1c-7,0.1-13.9,0.6-20.8,1.5
				c7.2,0.8,14.4,1.7,21.5,2.8c11.2,1.7,22.2,4.5,33.3,6.4c11.3,1.9,22.8,5.1,34.3,4.5c6.1-0.3,12.2-1.1,18.2-2
				c5.4-0.9,10.7-2.1,15.6-4.6c8.3-4.3,16.5-11,17.3-20.9c0,0,0-0.1,0-0.1C420,343.2,419.7,341.6,419.2,340z"/>
			<path class="st6" d="M323.7,189c-7,17.5-18.3,36.4-36.7,43.8c-18.8,7.5-39.1-1.4-52-15.6c-0.1-0.1-0.3,0.1-0.2,0.2
				c11.8,17.1,33.8,24.2,53.2,16.5c8.7-3.4,15.8-10.7,21.8-17.6c6.9-8,11.4-17.4,14.5-27.4C324.4,188.5,323.8,188.7,323.7,189z"/>
			<path class="st6" d="M332,181.8c0-0.3-0.5,0.1-0.5,0.3c-0.2,32.5-2.7,74.9-36.5,91c-33.1,15.8-56.3-22.1-65.8-48
				c0-0.2-0.3,0.1-0.3,0.2c5.2,16.3,12.5,32.4,25.8,43.7c12.3,10.5,28,11.9,42.2,4.7c14.2-7.2,23.8-21.6,29-36.3
				C332.2,219.9,332.6,200.2,332,181.8z"/>
			<path class="st6" d="M352.4,190c-12.4,17.4-12.8,41.5-15.2,61.9c-1.4,12.1-2.7,24.3-6.2,36c-1.8,6.1-4,12.1-7.3,17.5
				c-3.4,5.5-8,9.8-12.8,14c-0.2,0.2-0.2,0.7,0.2,0.4c8.3-6.6,14.7-14.3,18.6-24.2c4.2-10.8,6.5-22,7.9-33.4
				c1.5-11.9,2.6-23.9,4.1-35.8c1.6-12,3.9-26,11-36.2C352.8,190,352.6,189.8,352.4,190z"/>
			<path class="st8" d="M332.7,159.7c-0.2-7.5-0.5-14.9-1.8-22.3c-0.1-0.4-0.2-0.9-0.2-1.3c-0.4-4.9-1.3-9.8-3.7-14.1
				c-0.2-0.6-0.4-1.2-0.7-1.8c-0.8-0.8-1.6-1.6-2.4-2.4c-0.1-0.1-0.1-0.1-0.2-0.2c0,0,0,0,0,0c-3-2.9-6.2-5.6-9.7-8.1
				c-13.9-10.1-29.6-18.5-45.4-24.2c-15.3-5.6-28.9-6.6-40.4-2.9c-3,1-5.8,2.4-8.3,4.4c-2,2.1-3.5,4-4.8,5.9
				c-0.4,0.8-0.8,1.5-1.2,2.3c-2.8,4.8-4.5,10.6-5.4,17c0,0.3,0.3,0.1,0.3-0.1c0.5-2.4,1-4.8,1.7-7.1c-0.1-0.1-0.1-0.2,0-0.4
				c0.5-1.5,1-3,1.6-4.4c-2.3,9.3-2.6,19-0.8,29.6c1.2,7.2,2.5,14.6,0.2,22.4c-1.1,4-2,7.3-2.6,10.9c-0.1,2.6-0.1,4.8,0.2,7
				c0.5,4.1,1.3,9.6,3.2,14.3c3.6,8.6,8.5,16,14.7,21.9c6.2,5.9,13.5,10.5,20.6,14.9l0.7,0.4c1.7,1,3.3,2.1,5.1,3.3
				c4.4,2.1,9.6,4.3,15.8,4.3c0.8,0,1.5,0,2.3-0.1c7.4-0.6,14.9-3.1,22.2-7.3c13.4-7.8,23.8-16.3,31.6-25.8c1.3-2.2,2.3-4.7,3.3-7.1
				c-0.3,0.5-0.7,1-1,1.5c1.6-3.2,2.9-6.4,3.8-10C333.1,173.6,332.9,166.5,332.7,159.7z"/>
			<g>
				<path class="st9" d="M323.5,195.5c-7.6,9.2-17.6,17.3-30.6,24.9c-7.1,4.1-14.4,6.5-21.6,7.1c-6.9,0.6-12.6-1.8-17.2-4
					c-1.7-1.1-3.3-2.2-5-3.2l-0.7-0.4c-7-4.4-14.3-8.9-20.4-14.7c-6-5.8-10.9-13-14.3-21.4c-1.7-4.1-2.4-8.7-3.1-13.9
					c-0.3-2.1-0.3-4.3-0.2-6.7c0.6-3.4,1.4-6.7,2.6-10.6c2.3-8.1,1.1-15.7-0.2-23.1c-1.9-11.1-1.5-21.3,1.3-30.9
					c0.7-1.7,1.5-3.3,2.4-4.9c1.1-1.6,2.4-3.3,4-5.1c4.7-3.5,10.4-5.2,15.9-5.9c13.8-1.7,27.8,2.9,40.5,8.4
					c12.9,5.7,25.6,12.9,37.2,21.4c4.2,3.1,7.9,6.5,11.2,10.1c4.8,10.7,5.4,23.7,5.7,35.1c0.2,6.7,0.4,13.4-0.7,20
					C329.4,184.2,326.4,189.7,323.5,195.5z"/>
				<path class="st9" d="M288.1,181.3c5-6.5,8.7-14.3,15.5-18.6C295.8,165.4,288.6,173.2,288.1,181.3z"/>
				<path class="st9" d="M247.3,177.3c-0.9,2.3-2.4,4.5-4.2,6.5c2.8-0.1,4.7-1.6,4.4-4.9C247.4,178.3,247.3,177.8,247.3,177.3z"/>
				<path class="st9" d="M256.4,209.9c2.6,3.4,6,1.6,9-0.5C262.2,210.1,259.3,210.4,256.4,209.9z"/>
				<path class="st9" d="M253.6,203.5c-2.9-0.5-8-3.7-11.4-3.1c4.7,0.9,8.9,4,13.8,4.4c5.4,0.4,11.2,0.3,15.5-3.3
					C265.7,203.5,259.7,204.4,253.6,203.5z"/>
				<path class="st9" d="M215.1,119.3c0.7-3,1.5-5.9,2.1-8.9c0.6-3,0.1-5.9-0.2-8.9C214.9,107.2,213.6,113.4,215.1,119.3z"/>
				<path class="st9" d="M224,180.7c-1-7.1-4.6-14.9-12.4-13C218.1,168.2,221.8,174.6,224,180.7z"/>
				<path class="st10" d="M260.6,213.5c2.2,2.7,6.2,3.8,9.6,2.8c3.6-1,5.5-3.9,6.8-7.2C271.9,212.4,266.3,214.8,260.6,213.5z"/>
				<path class="st10" d="M300.4,161.5c-0.5,0.1-0.8-0.2-0.7-0.7c1-6.6,0.1-12.7-2.2-18.9c-0.1-0.3,0.1-0.5,0.3-0.7
					c2.6-1.7,4.3-4.7,4.5-7.8c-3.4,2.7-9.7-1-13.2-2.3c-7.2-2.7-15-1.4-20.8,3.9c-3.2,2.9-3.8,5.5-3,9.7c0.7,3.9,1.4,8,2.6,11.8
					c1.3,4.1,3.2,8.5,6.7,11.3c3.5,2.8,7.6,3,11.9,3c0.4,0,0.6,0.4,0.6,0.7c-0.8,3.2-1.9,6.3-1.2,9.7c0.1,0.3,0.1,0.6,0.2,0.9
					c2.2-10.7,12-18.9,22.7-20.7C306.4,160.3,302.9,161.1,300.4,161.5z"/>
				<path class="st10" d="M218.8,165.8c-1.5,0.2-2.8,0.6-4.1,1.1c4.7,0.9,8.6,4.6,10.7,9.1c0.1-0.1,0.2-0.3,0.4-0.3
					c4-1.1,7.8-1.7,10-5.6c1.8-3.2,2.7-6.8,3.3-10.4c1-6.1,1.4-13-1.7-18.7c-1.7-3.1-4.3-5.8-7.7-6.9c-3.8-1.2-5.9,0.4-8.7,2.8
					c-1.5,1.3-3.7,3.4-5.9,2.5c-0.3-0.1-0.5-0.2-0.7-0.3c0.1,2.3,1.2,4,3.2,5.5c0.8,0.7,0.7,2.1,0.6,3c-0.8,5.8-0.6,11.8,1.1,17.5
					C219.3,165.4,219.2,165.8,218.8,165.8z"/>
				<path class="st10" d="M271.3,202.3c-3.5,1.8-7.4,3.5-11.4,3.7c-4.1,0.3-7.7-0.7-11.4-2.4c-2.1-1-4.3-2.3-6.6-3
					c-0.8-0.2-1.5-0.1-2.1,0.1c1,0.5,1.9,1.1,2.8,1.9c2.3,1.9,4.8,3.5,7.7,4.5c4.8,1.5,10,2,14.7,0c5.4-2.3,9.9-6.2,15.3-8.3
					C277.2,199.1,274.3,200.7,271.3,202.3z"/>
				<path class="st10" d="M243.6,186.5c-0.1-0.1-0.2-0.1-0.3-0.2c1.8,2.9,5,4.6,8.8,4.1c4-0.5,8.9-3,9.9-7.2
					C256.6,186.5,249.7,189.4,243.6,186.5z"/>
				<path class="st10" d="M331.1,157.7c-0.4-11.4-1-24.4-5.7-35.1c-3.4-3.7-7-7.1-11.2-10.1c-11.6-8.4-24.3-15.7-37.2-21.4
					c-12.7-5.6-26.7-10.2-40.5-8.4c-5.5,0.7-11.3,2.3-15.9,5.9c-1.6,1.8-2.9,3.4-4,5.1c-0.9,1.6-1.7,3.3-2.4,4.9
					c-0.6,1.9-1,3.9-1.3,5.8c0.8-2.6,1.9-5.1,3.5-7.3c4.8-6.5,14.7-7.5,22.1-7.2c19.2,0.8,38.6,8.9,54,20.2
					c11.8,8.6,23.1,19.7,22.8,35.4c-0.1,4.5-0.8,8.9-1,13.4c-0.2,4.5,0.6,8.7,1.2,13.1c1,7.3,1.1,14.8-2.2,21.5
					c-6.3,12.5-19.9,21.7-32.5,27.1c-7.6,3.2-15.7,5-23.5,4.2c4,1.7,8.7,3,14.1,2.6c7.2-0.6,14.4-3,21.6-7.1
					c13-7.5,23.1-15.7,30.6-24.9c2.9-5.7,5.9-11.3,6.9-17.7C331.5,171.1,331.3,164.4,331.1,157.7z"/>
				<path class="st10" d="M213.8,99.8c-0.4,1.5-0.7,3.1-1,4.6c0.8-2.6,1.9-5.1,3.5-7.3c0.2-0.3,0.4-0.5,0.7-0.8
					C215.7,97.3,214.7,98.5,213.8,99.8z"/>
				<path class="st10" d="M331.1,157.7c-0.4-11.4-1-24.4-5.7-35.1c-3.4-3.7-7-7.1-11.2-10.1c-11.6-8.4-24.3-15.7-37.2-21.4
					c-12.7-5.6-26.7-10.2-40.5-8.4c-5.5,0.7-11.3,2.3-15.9,5.9c-1.6,1.8-2.9,3.4-4,5.1c-0.5,0.9-1,1.8-1.4,2.7
					c4.4-4.1,10.2-7.1,16-8.7c13-3.7,26.5-0.4,38.6,4.9c12.9,5.6,25.6,12.6,35.9,22.4c10.7,10.3,16.9,23.2,18.9,37.9
					c2,15,0.6,33.1-7.9,46.1c-2.6,4-5.7,7.9-8.8,11.6c6.1-4.7,11.4-9.7,15.7-15c2.9-5.7,5.9-11.3,6.9-17.7
					C331.5,171.1,331.3,164.4,331.1,157.7z"/>
				<path class="st9" d="M232.6,123.8c-2-3.4-6.5-8.9-10.7-6.9c-5.1,2.5-5.6,9.2-5.8,14.7c0,0.2,0.2,0.1,0.3,0
					c0,0.1,0.1,0.2,0.2,0.4c0,0.1,0.2,0.1,0.2,0.1c1.2-0.1,1.7-2.1,2.1-3.1c1.5-3.8,4.7-6.3,8.4-4.8c1.2,0.5,2.4,2.1,3.5,2.9
					C234,129.3,233.9,125.9,232.6,123.8z"/>
				<path class="st9" d="M294.5,122.2c-2-7.8-14.3-11.8-22.7-11.8c-7.8,0-11.5,7.8-12.1,13.4c-0.1,0.4-0.2,0.9-0.3,1.3
					c0,0.2,0,0.3,0.2,0.3c1.7,0.1,2.4-0.3,3.7-1.4c0.6-0.5,1.2-1.3,1.6-1.9c2.8-4.4,6.8-5.4,11.9-4.9c5.1,0.5,9.2,2.5,13.1,5.2
					c1.6,1.2,2.6,1,4.2,0.1c0,0,0,0,0,0C294.4,122.5,294.6,122.3,294.5,122.2z"/>
				<g>
					<path class="st11" d="M284,198.8c-0.9-1-2-0.8-3.2-0.6c0,0,0,0,0,0c0.3,0.2,0.6,0.4,0.9,0.6c-5.5,1.3-10.7,5.2-16.1,7.1
						c-9.9,3.5-17.1-0.5-25.5-5.1c-0.2-0.1-0.5,0.1-0.7,0.3c-0.2,0.3-0.5,0.6-0.7,1c0,0,0,0.1-0.1,0.1c1.1-0.7,1.7-0.6,3,0.1
						c2.4,1.2,4.7,2.5,7.1,3.7c1.3,0.7,2.7,1.2,4.1,1.6c2.3,0.4,4.6,0.5,7,0.3c3.4-0.3,6.7-1.6,9.9-2.9c4.3-1.8,8.4-4.9,13-5.7
						c0,0,0,0,0,0c0.6,0.4,0.9,1,1.6,1.2c0.1,0,0.2,0,0.3-0.1C284.6,200,284.4,199.3,284,198.8z"/>
					<path class="st11" d="M268.9,213.7c-1.7,0.2-3.3,0.3-5,0.1c-1.5-0.2-3,0.1-4.6-0.3c-0.1,0-0.3,0.2-0.2,0.3c1,0.7,2.7,1.7,4,1.7
						c1.9-0.1,3.8-0.5,5.6-1.1C269.1,214.2,269.4,213.6,268.9,213.7z"/>
				</g>
				<g>
					<path class="st12" d="M232.6,120.7c-2-3.5-6.5-8.9-10.7-6.9c-5.1,2.4-5.6,9.2-5.8,14.7c0,0.2,0.2,0.1,0.3,0
						c0,0.1,0.1,0.2,0.2,0.4c0,0.1,0.2,0.1,0.2,0.1c1.2-0.2,1.7-2,2.1-3.1c1.5-3.8,4.7-6.3,8.4-4.8c1.2,0.5,2.4,2,3.5,2.9
						C234,126.2,233.9,122.9,232.6,120.7z"/>
					<path class="st12" d="M222.9,119.1c-3.4,1.3-6.2,6-5.5,9.7c0.9-0.5,1.3-2,1.7-2.9c1.5-3.8,4.7-6.3,8.4-4.8
						c1.2,0.5,2.4,2,3.5,2.9c1,0.7,1.6,0.9,2,0.7C230.8,121.1,227.1,117.5,222.9,119.1z"/>
					<path class="st12" d="M294.5,119.1c-2-7.8-14.3-11.8-22.7-11.8c-7.8,0-11.5,7.8-12.1,13.3c-0.1,0.5-0.2,0.9-0.3,1.4
						c0,0.1,0,0.3,0.2,0.3c1.7,0.1,2.4-0.3,3.7-1.3c0.6-0.5,1.2-1.3,1.6-1.9c2.8-4.4,6.8-5.4,11.9-4.9c5.1,0.4,9.2,2.5,13.1,5.2
						c1.6,1.1,2.6,1,4.2,0.1c0,0,0,0,0,0C294.4,119.4,294.6,119.2,294.5,119.1z"/>
					<path class="st12" d="M274.8,112c-6.6,0.1-11.1,4.9-14.2,10.3c1.1-0.1,1.7-0.5,2.7-1.3c0.6-0.5,1.2-1.3,1.6-1.9
						c2.8-4.4,6.8-5.4,11.9-4.9c5.1,0.4,9.2,2.5,13.1,5.2c0.5,0.3,0.9,0.6,1.3,0.7C286.6,116,281,111.9,274.8,112z"/>
					<path class="st11" d="M220.8,139c-0.5,0.4-1,0.7-1.5,1c-0.9,4.5-0.9,9.5-1,13.3c-0.1,3.9,0.8,10.7,3.1,15.2
						c-1.1-0.9-2.4-1.5-3.7-1.9c0.3,0.3,0.6,0.5,0.9,0.9c1.8,1,3.3,2.5,4.5,4.3c0.7,0.6,1.3,1.3,1.8,2c0.3,0.5,0.7,1.1,1,1.7
						c-0.3-1.1-0.7-2.2-1.3-3.1c0.8,0.4,1.7,0.6,2.7,0.5c0.8,0.1,1.7,0,2.5-0.3c0.7-0.3,1.2-0.7,1.7-1.2c1.5-2,2.8-4,4-6.2
						c2.5-6.9,1.9-15.6,0.2-23.1C231.3,138,226.7,134.6,220.8,139z"/>
					<path class="st13" d="M220.8,139c-0.2,0.1-0.4,0.3-0.6,0.4c-0.8,4-0.9,8.2-1,12c-0.1,5.5,0.9,17.1,5.6,20.1
						c1,0.5,2.1,0.7,3.1,0.6c1-0.2,2.2-0.6,3.4-1.4c0.1,0,0.1,0,0.1,0c1.1-1.1,1.9-2.7,2.7-4.1c0,0,0.1-0.1,0.1-0.1
						c3-7.6,2.9-17.4,0.7-25C230.8,137.6,226.4,134.8,220.8,139z"/>
					<path class="st14" d="M225.1,141.5c5.5-0.8,9,2.6,11.3,7c-0.3-2.5-0.7-4.9-1.3-7.1c-4.3-3.8-8.7-6.6-14.2-2.4
						c-0.2,0.1-0.4,0.3-0.6,0.4c-0.5,2.3-0.7,4.8-0.9,7.2C220.3,144,222,141.9,225.1,141.5z"/>
					<path class="st11" d="M297.2,161.6c2.7-4,1.9-9.5,0.9-14.1c0,0,0,0,0,0c-0.8-4.4-2.5-8.6-4.7-12.4c-0.8-0.3-1.5-0.6-2.1-0.8
						c-4-1.5-8.2-2.6-12.4-2.1c-4.1,0.6-9.3,3-11.2,7.2c0.1,9.2,3.4,19.2,7.7,24.8c3.3,4.3,9.7,6.4,14.6,4.8c0.1,0,0.2-0.1,0.3-0.1
						c-1.8,2.1-3.2,4.6-4,7.3c1.8-3.8,4.3-7.2,7.4-9.6c1.8-1.4,3.8-2.3,5.8-3.3c1.1-0.5,2.3-1.1,3.4-1.5c0.3-0.1,0.6-0.2,0.9-0.3
						c-2.6,0.2-5.3,1.1-7.8,2.5C296.5,163.2,296.9,162.4,297.2,161.6z"/>
					<path class="st13" d="M297.5,147c-1.1-4.4-2.8-8.6-5.2-12.4c-0.3-0.1-0.7-0.3-1-0.4c-4-1.5-8.2-2.6-12.4-2.1
						c-3.5,0.5-7.8,2.3-10.2,5.5c-0.2,6.8,1.3,13.9,3.7,19.4c2.2,5.1,5.4,10.2,10.8,11.3c2.4,0.5,5.3,0.9,7.6-0.2
						c1.2-1.3,2.6-2.5,4.1-3.4c0.3-0.4,0.6-0.8,0.8-1.2c0.4-0.7,0.7-1.4,0.9-2.1c0.5-0.8,0.8-1.7,1.1-2.6c0.5-2.2,0.6-4.6,0.4-6.9
						C298.1,150.2,297.9,148.6,297.5,147z"/>
					<path class="st14" d="M276.9,138c5.5-1.3,11.4-1.3,16.3,1.9c1,0.7,1.9,1.4,2.8,2.2c-1-2.6-2.2-5.2-3.7-7.5
						c-0.3-0.1-0.7-0.3-1-0.4c-4-1.5-8.2-2.6-12.4-2.1c-3.5,0.5-7.8,2.3-10.2,5.5c-0.1,3.4,0.2,6.9,0.9,10.2
						C269.6,143.2,271.4,139.3,276.9,138z"/>
					<path class="st15" d="M291.3,134.2c-4-1.5-8.2-2.6-12.4-2.1c-3.5,0.5-7.8,2.3-10.2,5.5c0,0.6,0,1.3,0,1.9
						c2-2.8,5.1-4.8,8.5-5.4c6.6-1.2,11.9,0.8,17.1,4c-0.6-1.2-1.3-2.4-2-3.6C291.9,134.5,291.6,134.3,291.3,134.2z"/>
					<path class="st15" d="M220.8,139c-0.2,0.1-0.4,0.3-0.6,0.4c-0.2,0.8-0.3,1.6-0.4,2.5c1.7-1.5,3.6-2.8,5.8-2.9
						c3.7-0.2,6.6,1.1,9.6,3c0-0.2-0.1-0.4-0.1-0.6C230.8,137.6,226.4,134.8,220.8,139z"/>
					<path class="st12" d="M291.3,134.2c-4-1.5-8.2-2.6-12.4-2.1c-5.5,0.7-12.8,4.8-11.9,11.9c0.3,0.7,0.7,1.4,1.3,2
						c0,0.1,0,0.1,0.1,0.2c0,0,0.1,0,0.1,0.1c0.3,0.1,0.6-0.4,0.5-0.7c-0.4-0.9-0.7-1.8-0.9-2.8c2.8-10,12.2-9.7,20-7
						c2.6,0.9,4.7,2.4,6.9,3.1c0,0,0,0,0,0c0.5,0.8,0.6,1.9,1.3,2.6c0.2,0.2,0.5-0.1,0.7-0.2c0.1-0.1,0.1-0.1,0.2-0.2
						c0-0.1,0.1-0.3,0.2-0.4c0.1-0.1,0.3-0.3,0.4-0.4c0.2-0.2,0.4-0.4,0.5-0.6c0,0,0.1,0,0.1-0.1c0.9-1,1.6-2.1,2.2-3.3
						C297.6,136.7,293.9,135.2,291.3,134.2z"/>
					<path class="st12" d="M220.8,139c-0.6,0.4-1.2,0.8-1.7,1.1c-0.3,0.4-0.7,0.7-1.5,0.7c-0.7,0.2-1.5,0.2-2.3,0
						c0.8,1.3,1.7,2.6,2.9,3.6c0.1,0,0.2,0.1,0.3,0.1c0.4,0.2,0.8-0.4,0.9-0.7c2.1-7.9,12.9-4.4,16.3-0.3c-0.1-0.6-0.2-1.1-0.3-1.7
						C231.1,137.8,226.6,134.7,220.8,139z"/>
					<path class="st12" d="M299.1,155.8c-2.1,7-7.3,13.3-14.4,12.7c-4.5-0.4-8.3-3-11.6-6.2c-0.1-0.1-0.3,0.1-0.3,0.3
						c3.9,5.9,9.4,9,15.8,6.7c5.5-2,9.6-7.4,10.7-13.5C299.4,155.5,299.1,155.6,299.1,155.8z"/>
				</g>
				<g>
					<defs>
						<path id="SVGID_1_" d="M234.3,166.4c0,0-0.1,0-0.1,0.1c-0.8,1.4-1.6,3-2.7,4.1c0,0-0.1,0-0.1,0c-1.3,0.8-2.4,1.3-3.4,1.4
							c-1.1,0-2.2-0.2-3.1-0.6c-4.8-2.9-5.8-14.6-5.6-20.1c0.2-7.2,0.5-16.2,5.4-21.4c0.1-0.1,0.1-0.1,0.2-0.2
							c0.1-0.1,0.3-0.3,0.4-0.4c0.1,0,0.1,0,0.2,0c0.7-0.5,1.6-0.6,2.6-0.1c0.4,0.2,0.7,0.4,1,0.7c3.4,1.7,4.9,7.4,6,11
							C237.2,148.6,237.4,158.7,234.3,166.4z"/>
					</defs>
					<clipPath id="SVGID_00000130621702757007238160000009784115477533202864_">
						<use xlink:href="#SVGID_1_"  style="overflow:visible;"/>
					</clipPath>
					<g style="clip-path:url(#SVGID_00000130621702757007238160000009784115477533202864_);">
						<path class="st17" d="M237.2,157.2c1.7,7.9-0.6,15.2-5.3,16.5c-4.6,1.3-9.7-4.1-11.4-11.9c-1.7-7.9,0.7-15.2,5.3-16.5
							C230.3,144.1,235.5,149.4,237.2,157.2z"/>
						<g>
							<path class="st18" d="M236.4,157.7c1.5,7.1-0.6,13.8-4.8,14.9c-4.2,1.1-8.8-3.7-10.3-10.8c-1.5-7.1,0.6-13.8,4.8-14.9
								C230.2,145.8,234.9,150.6,236.4,157.7z"/>
							<path class="st19" d="M232.6,169.3c-2.5-0.1-4.4-0.7-6.2-2.6c-1.9-1.9-2.5-4.8-3.9-7.1c0-0.1-0.1,0-0.1,0.1
								c-0.8,6.1,4.4,14.6,10.2,10.2C232.6,169.8,232.8,169.3,232.6,169.3z"/>
							<path class="st17" d="M233.4,160.2c1,4.6-0.4,8.9-3.1,9.6c-2.7,0.7-5.7-2.4-6.7-6.9c-1-4.6,0.4-8.9,3.1-9.6
								C229.4,152.6,232.4,155.7,233.4,160.2z"/>
							<path class="st20" d="M232.9,160.4c0.9,4.1-0.3,8-2.7,8.6c-2.4,0.7-5.1-2.1-6-6.2c-0.9-4.1,0.3-8,2.7-8.6
								C229.3,153.5,232,156.3,232.9,160.4z"/>
							<path class="st13" d="M233,152.4c0.6,2,0.1,3.9-1.1,4.3c-1.1,0.4-2.5-0.8-3.1-2.8c-0.6-2-0.1-3.9,1.1-4.3
								C231.1,149.2,232.5,150.5,233,152.4z"/>
							<path class="st13" d="M233.9,157.9c0.2,0.7,0,1.5-0.4,1.6c-0.4,0.1-0.9-0.3-1.2-1.1c-0.2-0.7,0-1.5,0.4-1.6
								C233.2,156.7,233.7,157.2,233.9,157.9z"/>
						</g>
					</g>
				</g>
				<path class="st11" d="M258.7,188c-3.7,1.9-6.8,2.6-10.9,1.3c-1.9-0.6-3.5-1.8-4.7-3.5c-1.1-1.8,2.1-5.9,3-7.1
					c0.2-0.2,0-0.4-0.2-0.3c-1.7,1.4-3.3,3.2-4.1,5.2c-1.1,2.6,0.1,4.4,2.1,6c4.7,3.8,10.6,2.6,14.9-1
					C258.9,188.5,259.1,187.8,258.7,188z"/>
				<g>
					<defs>
						<path id="SVGID_00000005974171987453790890000009022193491654688657_" d="M297.5,147c-1.1-4.4-2.8-8.6-5.2-12.4
							c-0.3-0.1-0.7-0.3-1-0.4c-4-1.5-8.2-2.6-12.4-2.1c-3.5,0.5-7.8,2.3-10.2,5.5c-0.2,6.8,1.3,13.9,3.7,19.4
							c2.2,5.1,5.4,10.2,10.8,11.3c2.4,0.5,5.3,0.9,7.6-0.2c1.2-1.3,2.6-2.5,4.1-3.4c0.3-0.4,0.6-0.8,0.8-1.2
							c0.4-0.7,0.7-1.4,0.9-2.1c0.5-0.8,0.8-1.7,1.1-2.6c0.5-2.2,0.6-4.6,0.4-6.9C298.1,150.2,297.9,148.6,297.5,147z"/>
					</defs>
					<clipPath id="SVGID_00000125563824900472369820000010319207919830978183_">
						<use xlink:href="#SVGID_00000005974171987453790890000009022193491654688657_"  style="overflow:visible;"/>
					</clipPath>
					<g style="clip-path:url(#SVGID_00000125563824900472369820000010319207919830978183_);">
						<path class="st17" d="M293.2,153.8c1.9,8.4-0.7,16.3-5.9,17.6c-5.2,1.3-11-4.4-12.9-12.8c-1.9-8.4,0.7-16.3,5.9-17.6
							C285.5,139.7,291.3,145.4,293.2,153.8z"/>
						<g>
							<path class="st18" d="M292.3,154.3c1.7,7.6-0.7,14.7-5.4,15.9c-4.7,1.2-9.9-3.9-11.7-11.5c-1.7-7.6,0.7-14.7,5.4-15.9
								C285.4,141.5,290.6,146.7,292.3,154.3z"/>
							<path class="st19" d="M288,166.6c-2.8-0.1-4.9-0.8-7.1-2.7c-2.2-2-2.9-5.1-4.4-7.6c0-0.1-0.1,0.1-0.1,0.1
								c-0.9,6.5,5,15.6,11.5,10.9C288.1,167.2,288.3,166.6,288,166.6z"/>
							<path class="st17" d="M288.9,157c1.1,4.9-0.4,9.5-3.5,10.3c-3,0.8-6.4-2.5-7.5-7.4c-1.1-4.9,0.4-9.5,3.5-10.3
								C284.4,148.8,287.8,152.1,288.9,157z"/>
							<path class="st20" d="M288.3,157.1c1,4.4-0.4,8.5-3.1,9.2c-2.7,0.7-5.7-2.3-6.7-6.6c-1-4.4,0.4-8.5,3.1-9.2
								C284.3,149.8,287.3,152.7,288.3,157.1z"/>
							<path class="st13" d="M288.5,148.6c0.6,2.1,0.1,4.2-1.2,4.6c-1.3,0.5-2.9-0.9-3.5-3c-0.6-2.1-0.1-4.2,1.2-4.6
								C286.3,145.2,287.9,146.5,288.5,148.6z"/>
							<path class="st13" d="M289.5,154.5c0.2,0.8,0,1.6-0.5,1.7c-0.5,0.2-1.1-0.3-1.3-1.1c-0.2-0.8,0-1.6,0.5-1.7
								C288.7,153.2,289.3,153.7,289.5,154.5z"/>
						</g>
					</g>
				</g>
				<path class="st12" d="M234.8,165.5c-1.6,2.9-3,6.1-6.2,6.9c-3.8,1-7.1-4-8.4-7.3c-0.1-0.2-0.3,0.1-0.3,0.2c1,4.6,3.8,9,8.4,8.5
					c3.3-0.3,6.1-5.1,7-8.3C235.3,165.2,234.9,165.3,234.8,165.5z"/>
			</g>
			<path class="st22" d="M207.2,117.3c0,0,0.1-21.5,10.6-30.2c10.5-8.7,31-14.2,72.3,7.1c44.2,22.7,50,44.9,53.5,56
				c0,0-13.5-29-52-51C252.7,77.1,213.4,72.3,207.2,117.3z"/>
		</g>
		<g>
			<g>
				<path class="st23" d="M384.6,303.3c0,0-104,5.6-121,48.3l-0.3,1c-21.9-38.5-104.7-52.5-104.7-52.5s9.7,14.5,10.8,16.3l85.2,61.3
					l-3.9,11.2l11.5-5.8l16.5,11.9l-6-17.2l107.5-54C381.3,322.1,384.6,303.3,384.6,303.3z"/>
				<path class="st13" d="M186.2,307.5c10.4,3.4,20.8,6.3,30.7,11c9.6,4.5,19.1,9.6,27.9,15.4c2.9,1.9,5.8,4,8.5,6.2
					c-30.1-29.2-94.9-40.1-94.9-40.1s1,1.6,2.5,3.8C169.5,303.4,178.3,305,186.2,307.5z"/>
				<path class="st13" d="M265.9,347.6c3.3-3.8,6.7-7.5,10.8-10.5c10.8-8,23.8-13.1,36.4-17.4c13.2-4.5,26.7-8.1,40.5-10.3
					c10.1-1.7,20.3-2.4,30.5-3.3c0.3-1.7,0.5-2.8,0.5-2.8s-99.3,5.3-119.7,45.4C265.4,348.3,265.7,347.9,265.9,347.6z"/>
				<path class="st24" d="M278.7,395.8c-0.2,0-0.3-0.1-0.4-0.1L262.1,384l-11.1,5.6c-0.3,0.1-0.6,0.1-0.8-0.1
					c-0.2-0.2-0.3-0.5-0.2-0.8l3.7-10.7l-84.7-61c-0.1,0-0.2-0.1-0.2-0.2c-1.1-1.7-10.7-16.1-10.8-16.3c-0.2-0.2-0.2-0.6,0-0.8
					c0.2-0.3,0.5-0.4,0.7-0.3c0.8,0.1,81.5,14.1,104.4,51.5c7.4-17.7,30-31.2,67.2-40.1c27.9-6.7,54-8.1,54.3-8.1
					c0.2,0,0.5,0.1,0.6,0.2c0.2,0.2,0.2,0.4,0.2,0.6c-0.6,3.2-3.4,19.1-4.6,20.9c-0.1,0.1-0.2,0.2-0.3,0.3l-106.9,53.7l5.7,16.6
					c0.1,0.3,0,0.6-0.3,0.8C279,395.8,278.8,395.8,278.7,395.8z M262.1,382.4c0.2,0,0.3,0,0.4,0.1l14.6,10.5l-5.2-15
					c-0.1-0.4,0-0.7,0.4-0.9l107.3-53.9c0.8-1.8,2.8-12.2,4.1-19.2c-10.4,0.7-103.7,8.1-119.4,47.8l-0.3,0.9
					c-0.1,0.3-0.3,0.5-0.6,0.5c-0.3,0-0.6-0.1-0.7-0.4c-19.7-34.7-90.5-49.5-102.5-51.8c2.4,3.6,8.6,12.9,9.7,14.7l85.1,61.3
					c0.3,0.2,0.4,0.5,0.3,0.9l-3.3,9.5l9.8-5C261.9,382.5,262,382.4,262.1,382.4z"/>
			</g>
			<g>
				<path class="st13" d="M388.5,308.7c0,0-107.8,5.6-124.9,48.3l-0.3,1c-21.9-38.5-104.7-52.5-104.7-52.5s9.7,14.5,10.8,16.3
					l85.2,61.3l-3.9,11.2l11.5-5.8l16.5,11.9l-6-17.2l111.9-59.5C385.7,322.1,388.5,308.7,388.5,308.7z"/>
				<path class="st25" d="M275.1,382c-1.1-2-2.3-4-3.6-5.9c-2.6-4.1-5.2-8.3-8.1-12.3c-1.2,2.7-1.9,5.5-2,8.4c0,1-1.5,1-1.5,0
					c0.1-3.4,1-6.7,2.4-9.9c-0.5-0.6-0.9-1.2-1.4-1.8c-8.1-9.7-19.2-16.3-30.1-22.4c-11.8-6.5-24-12.3-36.4-17.6
					c-6.4-2.7-12.7-5-19.5-6.4c-4-0.8-8-1.5-11.9-2.2c2.7,4.1,5.9,8.9,6.5,9.8l85.2,61.3l-3.9,11.2l11.5-5.8l16.5,11.9l-6-17.2
					L275.1,382z"/>
				<path class="st25" d="M383.4,314.4c-16.9,1.4-33.8,4.7-50.1,8.9c-15.5,4-32,8.4-46.1,16.1c-6.4,3.5-12.4,8-17,13.8
					c-2.2,2.7-4.3,5.8-6,9.1c4.4,6,8.8,12.3,12.4,18.9l108.1-57.5c0.6-1,1.8-5.8,2.7-9.7C386,314.2,384.7,314.3,383.4,314.4z"/>
				<path class="st24" d="M278.7,401.2c-0.2,0-0.3,0-0.4-0.1l-16.2-11.6L251,395c-0.3,0.1-0.6,0.1-0.8-0.1c-0.2-0.2-0.3-0.5-0.2-0.8
					l3.7-10.7l-84.7-61c-0.1-0.1-0.2-0.1-0.2-0.2c-1.1-1.7-10.7-16.1-10.8-16.3c-0.2-0.2-0.2-0.6,0-0.8c0.2-0.2,0.5-0.4,0.7-0.3
					c0.8,0.1,81.5,14.1,104.4,51.5C280.7,314,384,308.2,388.4,308c0.2,0,0.4,0.1,0.6,0.3c0.2,0.2,0.2,0.4,0.2,0.6
					c-0.3,1.4-2.8,13.5-3.9,15.3c-0.1,0.1-0.2,0.2-0.3,0.3l-111.4,59.2l5.7,16.6c0.1,0.3,0,0.6-0.3,0.8
					C279,401.2,278.8,401.2,278.7,401.2z M262.1,387.8c0.2,0,0.3,0.1,0.4,0.1l14.6,10.5l-5.2-15c-0.1-0.4,0-0.7,0.4-0.9l111.7-59.4
					c0.8-1.5,2.4-8.8,3.5-13.7c-10.7,0.7-107.5,8.1-123.3,47.8l-0.3,1c-0.1,0.3-0.3,0.5-0.6,0.5c-0.3,0-0.6-0.1-0.7-0.4
					c-19.7-34.7-90.5-49.5-102.5-51.8c2.4,3.7,8.6,12.9,9.7,14.7l85.1,61.3c0.3,0.2,0.4,0.5,0.3,0.9l-3.3,9.5l9.8-4.9
					C261.9,387.9,262,387.8,262.1,387.8z"/>
			</g>
			<g>
				<path class="st26" d="M156,308.7l97.8,42.2c0,0,2.1,7.8,9.5,8.5c7.4,0.7,13.9-10.6,13.9-10.6s116.6-36.9,114.9-37.8
					c-1.7-0.8-8.1,68.8-8.1,68.8l-91.2,38.1c0,0-8.2,8.6-14.6,1.5l-70.3-38L156,308.7z"/>
				<path class="st27" d="M324.1,336.4c8.2-2,16.4-4.1,24.5-6.4c13.9-4.1,27.6-9.2,41.9-11.7c0.5-3.8,1-6.4,1.3-7.1
					c-3.9,2.1-60,20.2-92.3,30.5C307.8,341,316.2,338.3,324.1,336.4z"/>
				<path class="st27" d="M173.1,319.6c7.2,2.4,14.5,4.6,21.8,7c3.5,1.2,7,2.3,10.5,3.4L156,308.7l4.3,6
					C164.5,316.4,168.8,318.2,173.1,319.6z"/>
				<path class="st28" d="M388.4,312.5c-2.4,10.4-6.2,20.7-10.6,30.2c-4.5,9.8-10.9,19.7-19.3,26.5c-3.3,2.7-7.2,5.4-11.6,5.8
					c-4.2,0.4-7.1-1.3-10.5-3.5c-2.5-1.7-5.4-3.3-8.5-2.2c-2.6,1-4.5,2.9-6,5.3c-2.2,3.6-3.6,7.6-6.2,11c-0.4,0.5-1.2,0.5-1.4-0.2
					c-1.7-7.4,0.9-18.4-5.5-23.9c-6.4-5.5-15.7,2.8-21.1,6.3c-0.3,0.2-0.8,0.1-1-0.3c-3.5-6.1-3.2-13.7-5.6-20.2
					c-2.6,0.8-4,1.3-4,1.3s-6.5,11.3-13.9,10.6c-7.4-0.7-9.5-8.5-9.5-8.5l-3.1-1.4c0.6,2.4,1.3,4.8,1.8,7.3
					c1.2,5.6,2.6,11.1,3.7,16.7c0.2,0.8-0.9,1.3-1.4,0.6c-5.7-7.9-14.7-25.4-26.9-19c-2.4,1.3-3.5,3.8-6.3,4.5
					c-2.7,0.6-6.6-1.5-9.3-1.8c-6.8-0.9-13.8-0.8-20.3,1.3l16,22.4l70.3,38c6.4,7.1,14.6-1.5,14.6-1.5l91.2-38.1
					c0,0,5.9-64.6,7.9-68.6C391.4,311.4,390.2,311.9,388.4,312.5z"/>
				<path class="st29" d="M284,422.9c-2.4,0-4.5-1-6.3-3l-70.2-37.9c-0.1-0.1-0.2-0.1-0.2-0.2l-52-72.7c-0.2-0.3-0.2-0.6,0-0.9
					c0.2-0.2,0.6-0.3,0.9-0.2l97.8,42.2c0.2,0.1,0.4,0.3,0.4,0.5c0.1,0.3,2,7.3,8.8,7.9c6.9,0.6,13.1-10.1,13.2-10.3
					c0.1-0.2,0.2-0.3,0.4-0.3c1.1-0.3,107.2-34,114.4-37.5c0.4-0.5,0.8-0.4,1.1-0.3c0.2,0.1,0.4,0.4,0.4,0.7c0,0.3-0.2,0.6-0.4,0.7
					c-1.6,4.5-6.1,50.5-7.7,68.1c0,0.3-0.2,0.5-0.5,0.6l-91,38.1C292.5,419.2,288.6,422.9,284,422.9z M208.5,380.9l70.1,37.9
					c0.1,0,0.1,0.1,0.2,0.2c1.5,1.7,3.3,2.6,5.3,2.6c4.3,0,8.2-4.1,8.3-4.1c0.1-0.1,0.2-0.1,0.3-0.2l90.8-37.9
					c0.5-5.7,5.3-56.5,7.4-66.8c-13.7,5.4-106.1,34.7-113.1,36.9c-1.1,1.7-7.3,11.3-14.5,10.7c-6.9-0.6-9.5-7.1-10-8.7l-95-41
					L208.5,380.9z"/>
			</g>
			<g>
				<path class="st26" d="M285.7,385.2c-2.9-12.1-5.8-24.2-8.8-36.2c-0.9,1.5-7,11-13.8,10.4c-3.9-0.4-6.3-2.7-7.7-4.8
					c2.6,10.7,17.3,53.6,22,64.4l0.8,0.4c6.4,7.1,14.6-1.5,14.6-1.5l1-0.4C291.6,406.6,288.4,395.9,285.7,385.2z"/>
				<path class="st28" d="M285.7,385.2c-2.9-12.1-5.8-24.2-8.8-36.2c-0.6,1-3.4,5.3-7.1,8.1c4.9,13.2,9,27,12.2,40.7
					c1.8,7.5,4.3,14.8,6.2,22.3c0.1,0.3,0.2,0.7,0.3,1c2.5-1.3,4.3-3.1,4.3-3.1l1-0.4C291.6,406.6,288.4,395.9,285.7,385.2z"/>
				<path class="st27" d="M260,368.8c-0.5-4,0.8-6.1,4.6-7.4c3.5-1.1,5.8-3.4,7.5-6.2c-2.4,2.4-5.6,4.5-8.9,4.2
					c-3.9-0.4-6.3-2.7-7.7-4.8c0.8,3.1,2.5,9,4.8,16C260.2,370,260.1,369.4,260,368.8z"/>
				<path class="st28" d="M285.7,385.2c-2.9-12.1-5.8-24.2-8.8-36.2c-0.2,0.4-0.8,1.3-1.7,2.5c0.3,1.9,0.6,3.8,0.8,5.7
					c0.8,6,1.8,12.9,0.1,18.8c-1.1,3.9-4,6.3-8.1,4.3c-4-1.9-5.3-5.7-6.7-9.6c-1.8-5.2-3.9-10.3-5.6-15.5c-0.1-0.2-0.3-0.4-0.4-0.6
					c0.3,1.3,0.8,3.1,1.5,5.3c0.2,0.1,0.4,0.3,0.4,0.6c0,0.3,0,0.7,0.1,1c4.9,16.2,16,48.2,20,57.4l0.8,0.4
					c6.4,7.1,14.6-1.5,14.6-1.5l1-0.4C291.6,406.6,288.4,395.9,285.7,385.2z"/>
				<path class="st29" d="M284,422.9L284,422.9c-2.4,0-4.5-1-6.3-3l-0.6-0.3c-0.1-0.1-0.3-0.2-0.3-0.4c-4.9-11.3-19.5-54.1-22-64.5
					c-0.1-0.3,0.1-0.7,0.4-0.9c0.3-0.1,0.7,0,0.9,0.3c1.8,2.7,4.2,4.2,7.2,4.5c6.4,0.6,12.4-9,13.1-10c0.2-0.3,0.4-0.4,0.7-0.3
					c0.3,0,0.5,0.3,0.6,0.6c1.8,7.3,3.6,14.8,5.4,22c1.1,4.7,2.3,9.5,3.4,14.2c1,4,2,8,3.1,11.9c1.8,6.6,3.6,13.5,5,20.3
					c0.1,0.3-0.1,0.7-0.4,0.8l-0.8,0.3C292.5,419.2,288.6,422.9,284,422.9z M278.1,418.4l0.5,0.3c0.1,0,0.1,0.1,0.2,0.2
					c1.5,1.7,3.3,2.6,5.3,2.6l0,0c4.3,0,8.2-4.1,8.3-4.1c0.1-0.1,0.2-0.1,0.3-0.2l0.4-0.2c-1.4-6.6-3.1-13.2-4.8-19.6
					c-1-3.9-2.1-8-3.1-12c-1.2-4.7-2.3-9.5-3.4-14.2c-1.6-6.7-3.3-13.6-4.9-20.4c-2.1,3.1-7.1,9.3-12.8,9.3l0,0c-0.2,0-0.5,0-0.7,0
					c-2.3-0.2-4.4-1.1-6.1-2.6C261,371.3,273.5,407.8,278.1,418.4z"/>
			</g>
		</g>
		<g>
			<path class="st30" d="M422.3,362.3c-0.4-3.7-1.3-7.3-2.3-10.9c-4.1,5.6-9.8,11-15.8,14.3c-5.4,2.9-11.5,3.5-17.2,5.4
				c-0.6,0.3-1.1,0.6-1.6,1l0,0c-0.5,0.2-0.9,0.4-1.4,0.6c0,0-0.1,0.1-0.1,0.1c-0.9,0.3-1.8,0.7-2.6,1.1c-7.6,3.2-14.9,5.7-23,7.3
				c-5.3,1.1-12.6,3.1-17.8,0.5c-2.9-3.1-6.7-6.2-11-4.9c-3.9,1.1-5.8,6.3-6.3,9.9c-0.2,1.6-0.3,3.2-0.4,4.8c0,0,0,0,0,0.1
				c0,0.1,0,0.2,0,0.3c0,1.3,0,2.6,0,3.9c0,0.4,0.3,3.1,0.7,5.4c0.7,4.8,1.8,9.5,3.8,14.1c3.3,7.5,8.5,14.1,14.5,19.6
				c3.5,3.2,10.6,6.5,13.9,1.2c1.5-2.4,2.2-5.2,2.3-8.2c9-3.8,17.9-8.1,26.4-12.8c5.7-3.1,11.1-6.6,16.4-10.4
				c5-3.6,10.1-7.6,13.8-12.5c3.1-4,5.3-8.8,7-13.5C423.7,373.4,423,367.7,422.3,362.3z"/>
			<path class="st31" d="M420.3,379.3c-2.1,5.6-5.1,10.9-9.4,15.1c-8.6,8.4-19.4,15.1-30,20.6c-7.4,3.9-15,7.5-22.7,11
				c0-2-0.2-4-0.5-5.9c0,0.1,0,0.2,0,0.3c0.1,1.7,0.1,3.3-0.1,5c0,0.1,0,0.2,0,0.4c0,0.2-0.1,0.4-0.1,0.7c-0.1,0.5-0.2,1-0.3,1.5
				c0,0.1,0,0.1,0,0.2c0,0,0.1,0,0.1,0c-0.2,4.4-1.6,8.4-6.1,9c-5.5,0.8-10.9-6.1-14.1-9.7c-7.4-8.3-11.6-18.2-13.2-28.9
				c-0.8-9.5,0.5-24.5,10.9-19.5c1.4,0.7,2.8,1.6,4,2.6c0.5,0.5,1,1,1.6,1.4c3.4,3.3,6.2,7.5,8.7,11.7c-0.4-1-0.8-2-1.2-3
				c-1.6-2.6-3.3-5.2-5.2-7.6c0-0.1-0.1-0.1-0.1-0.2c4.4,1.4,10.3-0.1,14.3-0.8c9.2-1.8,17.3-4.6,26-8.2c0.2-0.1,0.5-0.2,0.7-0.3
				c0.9-0.4,1.8-0.7,2.7-1c0,0,0.1-0.1,0.1-0.1c0.1,0,0.2-0.1,0.3-0.1c0.3,0,0.6,0,0.9,0c2.1-0.3,4.4-0.3,6.9,0
				c6,0.8,11.7,2.6,17.1,5.2c-0.9-0.8-1.8-1.6-2.9-2.1c-2.7-1.4-5.7-2.1-8.6-3c-2.6-0.8-5.8-1.7-8.9-1.9c0.9-0.3,1.8-0.7,2.6-1.1
				c0.4-0.1,0.9-0.2,1.3-0.4c4.3-1.3,7.9-2.6,11.8-5c3.5-2.1,6.5-4.9,9.3-7.8c0.7-0.8,2-2.1,2.9-3.5c0.5,1.9,1,3.8,1.5,5.8
				C422,365.8,422.5,373.2,420.3,379.3z"/>
			<path class="st31" d="M420.5,359.5c-0.5-1.9-1-3.9-1.5-5.8c-0.9,1.4-2.1,2.8-2.9,3.5c-2.8,2.9-5.9,5.7-9.3,7.8
				c-3.9,2.4-7.4,3.6-11.8,5c-0.4,0.1-0.9,0.3-1.3,0.4c-0.9,0.4-1.8,0.7-2.6,1.1c3.1,0.2,6.2,1.1,8.9,1.9c2.9,0.9,5.8,1.6,8.6,3
				c1.1,0.6,2,1.3,2.9,2.1c-5.4-2.6-11.1-4.4-17.1-5.2c-2.2-0.3-4.3-0.3-6.2-0.1c2.9,0.8,6.1,1.2,8.8,2.3c3.4,1.3,7.2,2.8,9.8,5.4
				c1.9,1.9,3.1,4.4,0.9,6.5c-1.5,1.5-4.1,2.1-5.9,3.1c-2.9,1.7-5.8,3.3-8.8,4.8c-6.2,3.1-13,4.7-19.5,7.2
				c-4.8,1.9-10.6,4.2-15.7,2.5c-2.4-0.8-4.1-2.5-5.4-4.6c1.4,6.4,1.7,12.9,0.7,19.1c-0.2,0.9-1.4,0.6-1.5-0.2
				c-0.8-10.8-6.1-21.6-12.4-30.3c-2.8-3.9-10.1-11-14.1-5.2c-1.4,4.3-1.5,10.1-1.1,14.7c1.7,10.7,5.9,20.6,13.2,28.9
				c3.2,3.6,8.6,10.5,14.1,9.7c4.5-0.6,5.9-4.5,6.1-9c0,0-0.1,0-0.1,0c0-0.1,0-0.1,0-0.2c0.1-0.5,0.2-1,0.3-1.5
				c0-0.2,0.1-0.4,0.1-0.7c0-0.1,0-0.2,0-0.4c0.1-1.6,0.1-3.3,0.1-5c0-0.1,0-0.2,0-0.3c0.3,1.9,0.5,3.9,0.5,5.9
				c7.6-3.5,15.2-7.1,22.7-11c10.6-5.5,21.4-12.1,30-20.6c4.2-4.2,7.3-9.5,9.4-15.1C422.5,373.2,422,365.8,420.5,359.5z"/>
			<g>
				<path class="st32" d="M344.6,419.5c0.1,0,0.1,0,0.2-0.1C344.7,419.4,344.6,419.5,344.6,419.5z"/>
				<g>
					<path class="st8" d="M346.9,417.5C346.9,417.4,346.9,417.4,346.9,417.5c-1.3-4-2.1-8.1-3.6-12c-1.5-4-3.4-7.5-5.7-10.9
						c-0.2-0.1-0.4-0.3-0.6-0.4c-0.6-0.4-1.1-0.8-1.6-1.2c0.4,0.6,0.7,1.1,1.1,1.7c-0.6,0.2-1.6,0.5-1.8,0.5
						c-1.1,0.3-2.1,0.7-3.1,1.1c-1.6,0.5-3.2,0.9-4.7,1.6c-2.4-0.6-5.3-0.8-5.8-0.8c-4.7-0.4-9.2-1-14-0.5
						c-5.5,0.6-10.9,1.2-16.5,0.6c-3.8-0.4-7.9-1.3-11.7-0.5c-5.1,1.1-2.6,6.2,0.5,8c3.1,1.8,7,2,10.6,2.2c4,0.2,7.6,0.7,11.3,1.5
						c-1.2,0.3-2.1,0.4-2.3,0.5c-2.4,0.5-4.9,0.7-7.4,1c-3,0.3-5.7,0.7-8.7,0.2c-2.5-0.4-4.9-1.4-7.3-2.1
						c-2.9-0.9-14.4-4.2-16.7,0.1c-2-0.5-4.6,0.7-4.4,3.1c0,0.3,0.1,0.6,0.2,0.9c0.6,1.2,1.4,2.2,2.5,3.3c1,1,1.6,2,2.2,3.2
						c0.2,4.3,4.5,8.1,8.6,10.9c1.2,1.2,2.5,2.3,3.9,3.1c0,0,0,0.1,0.1,0.1c2.3,1,4.2,3.5,6.5,4.7c2.2,1.1,4.6,1.6,7,1.7
						c7.1,0.3,14.4-1.2,21.3-2.7c3.1-0.7,6-1.7,9-2.6c3.6-1.1,7-1.8,10.5-3.5c3.3-1.6,7.7-4,10.2-7.2c3.5-0.9,7.1-2.2,10.4-3.5
						c0.5,2,1,4,1.4,6C348.3,422.9,347.6,420.1,346.9,417.5z"/>
					<path class="st9" d="M345.7,418.4c-4.4,1.3-8.3,3.1-12.2,5.3c0.6-0.1,1.2-0.2,1.8-0.3c-3.5,3.3-8.2,5.6-12.4,7.4
						c-2.7,1.1-5.5,1.5-8.2,2.3c-3.5,1.1-6.9,2.1-10.4,2.8c-5.7,1.2-11.3,1.8-17.1,2.1c-3.6,0.1-7-0.9-10-2.8
						c-0.6-0.4-1.1-0.8-1.8-1.3c3,0.8,6.2,1.1,9.3,1.4c2.5,0.3,4.8,0.4,7.2,0.3c0.7-0.1,1.3-0.3,2-0.4c0,0,0.1,0,0.1-0.1
						c0.5-0.1,0.9-0.3,1.4-0.6c-6.9,0.7-14.7,0-21.1-2.2c-0.7-0.2-1.3-0.5-1.9-0.9c-0.3-0.2-0.6-0.4-0.9-0.7c-0.9-0.4-1.7-1-2.5-1.6
						c-1.8-1.5-3.6-2.9-5.1-4.7c-1.1-1.3-2-2.6-2.8-4.1c-0.7-1.3-0.9-1.7-0.3-1.9c1.6,1.2,3.3,2.2,5.1,3c0.2,0.1,0.3,0.2,0.5,0.3
						c0.1,0,0.1,0.1,0.2,0.1c5,3,10.1,5.8,15.9,6.9c5.4,1.1,11.2,0.4,16.5-1.3c0.4-0.2,0.7-0.5,1.1-0.7c-8.1,1.7-16.3,2-24.1-1.3
						c-4.1-1.7-8.1-4.2-11.9-6.5c-1.9-1.1-3.7-2.3-5.4-3.6c-0.4-0.4-0.8-0.7-1.3-1.1c-0.5-0.6-1-1.3-1.4-2c-0.5-1.6,0.5-3.5,2.5-3.8
						c-1.3,5.5,15.5,9.4,18.7,10.4c4.6,1.5,8.6,2.9,13.5,2.6c3-0.2,6.2-0.7,9.3-1.4c0.6-0.3,1.1-0.6,1.7-0.9
						c0.6-0.3,1.3-0.6,1.9-0.9c-3.3,0.5-6.6,1.4-9.9,1.9c-4.8,0.8-8.9,0.2-13.4-1.4c-3.8-1.3-7.6-2.5-11.4-3.9
						c-2.4-0.9-4.6-1.9-6.8-3.2c-0.6-0.3-1.1-0.7-1.6-1.1c-3.5-2.8,1-3.6,2-3.7c8-1.1,14.7,4.1,22.4,4.2c4.1,0.1,8.4-0.7,12.5-1.3
						c1.9-0.3,3.8-0.7,5.6-1.4h0c0.6-0.4,1.2-0.8,1.7-1.3c-0.4,0.1-0.9,0.3-1.4,0.4c-5.3-2.2-11.3-1.6-16.9-2.2
						c-3.1-0.3-6.2-1.3-8.6-3.4c-2.5-2.2,0.7-5,3.1-5.1c2.1-0.1,4.2,0.2,6.3,0.5c14.4,1.9,29.7-3.3,43.5,2.7c0.1,0,0.2-0.1,0.2-0.2
						c0,0,0-0.1,0-0.1c0-0.1-0.2,0-0.2,0.1c0.1-0.8-0.8-1.4-2.1-1.8c1-0.3,2-0.6,2.9-0.9c1.8-0.5,3.7-1.4,5.3-2.6
						c2,3.3,3.7,6.7,5.3,10.4c1.6,3.8,3,7.8,4.2,12c0,0.1,0.1,0.1,0.1,0.2C346.3,417.8,346.2,418.3,345.7,418.4z"/>
					<path class="st33" d="M286.2,405.6c5.6,0.5,11.6-0.1,16.9,2.2c0.5-0.1,1-0.3,1.4-0.4c-0.2,0.2-0.4,0.3-0.6,0.5
						c1.3-0.3,2.6-0.7,3.9-1c-4.9-2.1-10-3.3-15.3-3.9c-3.1-0.3-6.3-0.4-9.3-1.3c-2.5-0.8-4.4-2.1-4.8-3.6c-1.5,1-2.4,2.7-0.7,4.3
						C279.9,404.3,283.1,405.3,286.2,405.6z"/>
					<path class="st33" d="M346.1,417.3c0-0.1-0.1-0.1-0.1-0.2c-1.2-4.1-2.6-8.2-4.2-12c-1.6-3.7-3.3-7.1-5.3-10.4
						c-1.5,1.1-3.4,2.1-5.3,2.6c-0.9,0.2-1.9,0.6-2.9,0.9c1.3,0.5,2.2,1,2.1,1.8c0-0.1,0.2-0.2,0.2-0.1c0,0,0,0.1,0,0.1
						c0,0.1-0.1,0.2-0.2,0.2c-5.8-2.6-12-3.1-18.2-3c2.6,0.5,5.2,1.2,7.6,2.5c3.9,2.1,10.5,6.8,9.9,12.1c-0.6,5.1-6.1,7.6-10.4,9.1
						c-6.6,2.3-13.6,3.5-20.5,3.3c-0.7,0-1-1-0.4-1.4c2.6-1.6,4.9-3.4,6.8-5.7c-4.5,0.9-8.5,2.1-13.4,1.5c-4.4-0.5-8.8-1.5-13.1-2.6
						c-6.4-1.5-13-3.6-17.1-8.9c-1.5,0.3-4.4,1.2-1.4,3.6c0.5,0.4,1,0.8,1.6,1.1c2.2,1.3,4.5,2.3,6.8,3.2c3.8,1.4,7.6,2.5,11.4,3.9
						c4.5,1.6,8.7,2.2,13.4,1.4c3.3-0.5,6.6-1.4,9.9-1.9c-0.7,0.3-1.3,0.6-1.9,0.9c-0.6,0.3-1.1,0.6-1.7,0.9
						c-3.1,0.7-6.3,1.2-9.3,1.4c-4.9,0.4-8.9-1.1-13.5-2.6c-3.1-1-20-4.9-18.7-10.4c-2,0.3-3,2.1-2.5,3.8c0.4,0.7,0.9,1.4,1.4,2
						c0.4,0.4,0.8,0.8,1.3,1.1c1.7,1.3,3.5,2.5,5.4,3.6c3.8,2.3,7.8,4.8,11.9,6.5c7.8,3.3,15.9,3,24.1,1.3c-0.4,0.2-0.7,0.5-1.1,0.7
						c-5.2,1.7-11.1,2.4-16.5,1.3c-5.8-1.2-10.9-3.9-15.9-6.9c-0.1,0-0.1-0.1-0.2-0.1c-0.2-0.1-0.3-0.2-0.5-0.3
						c-1.7-0.8-3.5-1.8-5.1-3c-0.5,0.2-0.4,0.6,0.3,1.9c0.8,1.5,1.7,2.8,2.8,4.1c1.5,1.8,3.4,3.2,5.1,4.7c0.8,0.6,1.6,1.2,2.5,1.6
						c0.3,0.2,0.6,0.5,0.9,0.7c0.6,0.3,1.2,0.6,1.9,0.9c6.4,2.1,14.2,2.8,21.1,2.2c-0.4,0.3-0.9,0.5-1.4,0.6c-0.1,0-0.1,0-0.1,0.1
						c-0.7,0.1-1.4,0.2-2,0.4c-2.4,0.1-4.7,0-7.2-0.3c-3.1-0.4-6.2-0.6-9.3-1.4c0.6,0.5,1.2,0.9,1.8,1.3c3,1.9,6.4,2.9,10,2.8
						c5.8-0.2,11.4-0.9,17.1-2.1c3.6-0.8,7-1.7,10.4-2.8c2.7-0.9,5.6-1.2,8.2-2.3c4.2-1.7,8.9-4.1,12.4-7.4
						c-0.6,0.1-1.2,0.2-1.8,0.3c3.9-2.2,7.8-4,12.2-5.3C346.2,418.3,346.3,417.8,346.1,417.3z"/>
				</g>
			</g>
			<path class="st31" d="M330.3,380.1c6-0.2,11.5,6.7,14.6,11c3.3,4.7,6.1,9.9,7.9,15.5c-0.2-1.7-0.4-3.4-0.8-5
				c-0.7-3.3-2.2-6.2-3.2-9.3c-1.4-4.5,3.1-5.6,6.7-5.9c8.8-0.9,17.3-4.5,25.2-8.1c3.8-1.8,7.8-4.2,12-5c-1.9-0.2-3.7-0.2-5.4,0.1
				c-0.3,0-0.6,0-0.9,0c-0.1,0-0.2,0.1-0.3,0.1c0,0-0.1,0.1-0.1,0.1c-0.9,0.2-1.8,0.5-2.7,1c-0.2,0.1-0.5,0.2-0.7,0.3
				c-8.6,3.6-16.8,6.5-26,8.2c-3.9,0.8-9.9,2.2-14.3,0.8c0,0.1,0.1,0.1,0.1,0.2c1.9,2.4,3.7,4.9,5.2,7.6c0.4,1,0.8,2,1.2,3
				c-2.4-4.2-5.2-8.4-8.7-11.7c-0.6-0.4-1.1-0.8-1.6-1.4c-1.3-1-2.6-1.9-4-2.6c-5.7-2.7-8.7,0.6-10.1,5.7
				C325.8,382,327.5,380.2,330.3,380.1z"/>
		</g>
		<g>
			<path class="st30" d="M235.7,383c-0.8-5-1.8-12.5-6.2-15.6c-2.1-1.5-5.3-0.3-8.2,1.3c-1.1-0.2-2.2-0.4-3.2-0.6
				c-3.5-0.7-6.9-1.8-10.5-2.5c-5.9-1.1-11.7-0.5-17.5,0.9c-4.5,1.1-9.1,2.9-12.7,5.8c-3,1.7-8.6,4.7-11.2,6.7
				c-0.6,0.5-1.1,1.1-1.6,1.6c0,0.1-0.1,0.1-0.1,0.2c0.9,7.1,3.2,14,7.3,20.2c9.1,13.8,27.2,18.8,42.8,21c3.3,3.7,7.5,6.6,12.5,8.3
				c6.2,2.1,7.6-4.8,7.9-9.8C236.5,407.8,237.7,395.6,235.7,383z"/>
			<path class="st31" d="M235.1,408.2c-0.5,4.8-1.5,9.5-1.5,14.3c-0.2,1.1-0.4,2.3-0.7,3.4c-1.7,5.8-8.2,1.6-11.1-0.1
				c-1.9-1.1-3.7-2.4-5.3-3.9c0.1-0.1,0.1-0.2,0-0.2c-0.1,0-0.2,0-0.2-0.1c-2.5-2.3-4.7-4.9-6.6-7.6c-0.1-0.1-0.3,0.1-0.2,0.2
				c1.2,2.5,2.8,4.8,4.5,6.9c-15.1-3.4-30.3-7.4-40.2-20.4c-4.6-6-7.1-13.1-8-20.5c2.8-2.1,6-3.7,9-5.6c-2.3,2.6-3.9,5.8-4.4,9.6
				c0,0.3,0.3,0,0.4-0.1c2.6-12.1,14.3-16,25.1-17.8c8.3-1.4,16.1,1.5,24,3.2c-1.4,0.9-2.6,1.7-3.5,2.3c-0.1,0.1-0.2,0.4,0,0.3
				c1.5-0.7,3.5-2.6,7.2-3.2c3-0.8,5.9-0.5,7.8,3c2.7,5,3.3,11.7,3.9,17.2C235.8,395.5,235.7,401.8,235.1,408.2z"/>
			<path class="st31" d="M182.6,372.4c4.3-1.9,8.8-2.8,13.4-3.2c3.2-0.3,6.6-0.6,9.9-0.2c3.1,0.3,6.1,1.1,9.2,1.3
				c0.5,0,0.9,0.5,0.7,0.9c-1.3,3.6-3.8,6.6-5.2,10.2c-0.7,1.7-1.2,3.4-1.6,5.2c2.4-5.7,5.9-11.1,11.6-13.7
				c2.7-1.2,7.1-1.7,10.7-0.6c-0.1-0.1-0.1-0.2-0.2-0.4c-1.9-3.5-4.8-3.8-7.8-3c-3.8,0.6-5.7,2.5-7.2,3.2c-0.2,0.1-0.1-0.2,0-0.3
				c0.8-0.5,2.1-1.4,3.5-2.3c-8-1.7-15.8-4.5-24-3.2c-9.1,1.5-18.9,4.5-23.2,12.8C175.3,376.3,179.1,374,182.6,372.4z"/>
			<path class="st31" d="M171,380.5c0.8-2.2,2-4.1,3.5-5.8c-3,1.9-6.2,3.5-9,5.6c0.3,2.6,0.9,5.2,1.6,7.8
				C167.7,385.3,169.1,382.8,171,380.5z"/>
			<path class="st31" d="M235.1,389.2c-0.6-5.5-1.3-12.2-3.9-17.2c-1.9-3.5-4.8-3.8-7.8-3c-3.8,0.6-5.7,2.5-7.2,3.2
				c-0.2,0.1-0.1-0.2,0-0.3c0.2-0.1,0.4-0.3,0.7-0.5c-1,0.6-1.9,1.2-2.8,2c-3,2.8-5,6.6-6.4,10.4c-3.1,8.4-3.1,16.8-0.9,25.4
				c0.1,0.5-0.2,0.9-0.7,0.9c-8.6,0.1-17.7-6-22.8-12.6c-3.9-5-4.6-11.6-2.8-17.4c-3.4,4.9-5.1,10.8-5.7,16.7
				c-0.1,0.8-1.2,1-1.5,0.2c-1.6-5.1-2.8-10.7-1.7-16.1c-0.4,1-0.8,2.1-1,3.2c0,0.2-0.4,0.4-0.4,0.1c0.3-2.6,1.2-4.9,2.4-6.9
				c0.3-0.7,0.6-1.4,0.9-2.1c-2.7,1.6-5.5,3.1-7.9,4.9c0.9,7.4,3.4,14.4,8,20.5c10,13,25.1,17,40.2,20.4c-1.7-2.1-3.3-4.4-4.5-6.9
				c-0.1-0.1,0.1-0.3,0.2-0.2c1.9,2.8,4.1,5.4,6.6,7.6c0.1,0,0.2,0,0.2,0.1c0.1,0,0.1,0.1,0,0.2c1.7,1.4,3.4,2.8,5.3,3.9
				c2.9,1.7,9.3,5.9,11.1,0.1c0.3-1.1,0.5-2.3,0.7-3.4c0.1-4.9,1.1-9.5,1.5-14.3C235.7,401.8,235.8,395.5,235.1,389.2z"/>
			<g>
				<path class="st8" d="M308.3,377.3c0.6-1.7,0.7-3.4-0.1-4.6c-1.8-2.8-6.8,0-8.9,1.5c-0.6-0.8-1.4-1.4-2.3-1.6
					c-2.3-0.7-5.1,1-7.1,1.8c-3.3,1.4-6.4,3.3-9.6,4.9c-3.2,1.5-5.9,3.8-9.3,4.9c-3.3,1-6.8,1.1-10.1,2.1c-1.5,0.5-3.1,0.7-4.6,1.2
					c-2.4,0.6-4.2-0.5-6.4-1.1c-1-0.3-1.9-0.7-2.8-1.1c-1.5-1.8-1.6-4.9-2.1-7c-0.7-3.6-1.6-7.2-3.3-10.5c-1.6-3-9.9-9.8-12.6-4.4
					c-0.9,1.9-0.9,3.9-0.2,5.9c1.9,5.7,5.1,10.7,4.6,17c0,0.2-0.1,0.5-0.1,0.7c-1.9,0-3.9-0.1-5.8-0.3c-2.2-0.2-4.5-1-6.7-1.4
					c-1.4-0.4-2.8-0.8-4.1-1.2c-1.5,2.5-2.4,5.1-3,7.8c-0.7,4.3-0.7,8.7,0.1,13.1c1,1.4,2.4,2.5,4.3,3.4c3.6,1.7,7.3,2.6,11.1,3.6
					c1.8,0.5,3.6,1,5.4,1.3c2.3,2.3,5,3.9,8,5.1c10.5,5.2,23.4,4.6,34.3,0.4c6.4-2.5,12-6.4,17.6-10.3c5.7-4.1,8.6-9,11.5-15.3
					c0.2-0.3,0.1-0.5-0.1-0.6c1.4-2.7,2.4-5.7,3.3-8.5C309.9,381.6,311.5,377.8,308.3,377.3z"/>
				<path class="st9" d="M305.6,390.5c-1.9,4.6-5.1,8.4-9.2,11.3c-3,2.1-6.5,3.7-9.8,5.3c-3.2,1.6-6.2,3.6-9.3,5.5
					c-0.2,0.1-0.3,0.6,0,0.5c4.4-1.8,8.5-4.4,12.8-6.5c4.6-2.2,8.7-4.8,12.1-8.6c0.3-0.3,0.5-0.6,0.7-0.9c-0.5,0.9-0.9,1.8-1.4,2.7
					c-2.1,3.7-4.9,5.9-8.3,8.3c-5.2,3.6-10.4,7-16.3,9.5c-7.8,3.3-17,4.2-25.6,2.6c0,0,0,0,0,0c-4.3-1.3-8.3-2.4-12.2-4.5
					c-1.1-0.6-2.2-1.3-3.1-2.2c0.1,0,0.2,0,0.2,0c-1.9-1.3-3.6-2.7-5.1-4.4c0.5,0.8,1,1.6,1.6,2.4c-2.8-0.6-5.6-1.3-8.5-2.1
					c-3.6-1-6.9-2.4-9-4.8c-1.5-6-1.4-11.8,1.2-17.3c2.5-1.6,6.7,0,9.2,0.4c2.5,0.4,5.1,0.5,7.6,0.4c-0.2,1.3-0.5,2.6-0.8,3.9
					c0.5-1.7,1.1-3.4,1.8-5c0-0.3,0.1-0.6,0.1-0.9c0.4-3.2-0.4-6.2-1.5-9.2c-0.9-2.3-6.9-12.9-1.4-14c3.7-0.8,7.5,3.2,9.2,6
					c1.7,2.8,2.4,6.1,3.1,9.3c0.5,2.2,0.8,4.5,1.8,6.6c-0.6-0.3-1.2-0.5-1.7-0.8c1.7,1.6,3.6,3,5.7,4.1c0.3,0.1,0.5,0.2,0.8,0.3
					c0.5,0.1,1.1,0.2,1.6,0.2c0.6,0.2,1.2,0.4,1.8,0.5c1.5,0.3,3.3-0.5,4.8-0.8c3.3-0.8,6.5-1.7,9.8-2.3c5-0.9,8.6-3.8,13.1-6
					c2.1-1,4-2.2,6.1-3.2c1.3-0.7,9.9-4.3,11.2-1.7c-0.1,0.1-0.1,0.3-0.1,0.4c0.8,4.7-5,7.7-8.2,9.9c-2.8,1.9-5.6,3.8-8.3,5.8
					c-3,2.2-5.9,2.9-9.4,3.8c-2.9,0.8-5.8,1.8-8.8,2.4c-0.5,0.2-1.1,0.5-1.6,0.7c3.4,0.1,7-1.1,10.2-1.9c2.2-0.5,4.8-0.9,6.8-1.9
					c2.1-1.2,4-2.8,6-4.2c3.9-2.7,7.8-5.2,11.5-8.3c1.9-1.7,3.7-3.5,3.2-5.8c0-0.2,0-0.4-0.1-0.6c0.2-0.2,0.5-0.4,0.7-0.5
					c0.4-0.1,0.8-0.3,1.1-0.7c0.9-0.4,1.8-0.6,2.8-0.7c4.9-0.6,1.7,5.9,0.8,7.7c-2.1,4.1-5,7.7-7.9,11.2c-2.7,3.3-6.6,5-10.4,6.8
					c-4.1,2-8.3,3.8-12.3,6c-0.1,0.1-0.2,0.3,0,0.2c6.1-1.9,12.1-5,17.8-7.9c4.7-2.4,8.2-7.4,11.1-11.7c1-1.5,2.9-4.1,4.2-6.7
					C310.1,381,306.6,388.2,305.6,390.5z"/>
				<path class="st33" d="M232.3,363.6c4.4,2.3,5.9,8.1,7.1,12.5c1,3.6,1.9,7.5,4.7,10.2c3.2,3.1,7.2,4.9,11.8,4.6
					c8.3-0.4,17-3.5,24.5-7c0.5-0.2,1.3,0.2,1.1,0.8c-2.2,6.4-9.8,9.2-16.1,12c2.4-0.6,4.8-1.4,7.2-2c3.5-0.9,6.4-1.7,9.4-3.8
					c2.7-2,5.6-3.8,8.3-5.8c3.2-2.2,9-5.3,8.2-9.9c0-0.1,0-0.3,0.1-0.4c-1.3-2.6-9.9,1.1-11.2,1.7c-2,1-4,2.2-6.1,3.2
					c-4.5,2.2-8.1,5.1-13.1,6c-3.3,0.6-6.5,1.5-9.8,2.3c-1.5,0.4-3.2,1.2-4.8,0.8c-0.6-0.1-1.3-0.3-1.8-0.5c-0.5,0-1.1-0.1-1.6-0.2
					c-0.3-0.1-0.5-0.2-0.8-0.3c-2.1-1.1-4-2.5-5.7-4.1c0.6,0.3,1.2,0.5,1.7,0.8c-1-2.1-1.3-4.3-1.8-6.6c-0.7-3.1-1.4-6.5-3.1-9.3
					c-1.7-2.8-5.5-6.7-9.2-6c-0.4,0.1-0.8,0.3-1.1,0.4C231,363.1,231.7,363.3,232.3,363.6z"/>
				<path class="st33" d="M286.7,407.1c3.3-1.7,6.7-3.2,9.8-5.3c4.1-2.9,7.3-6.7,9.2-11.3c0.9-2.2,4.5-9.5,2-11.7
					c-1.2,2.6-3.2,5.2-4.2,6.7c-2.9,4.3-6.3,9.3-11.1,11.7c-5.7,2.9-11.7,6-17.8,7.9c-0.2,0-0.1-0.2,0-0.2c4-2.2,8.2-4,12.3-6
					c3.8-1.9,7.6-3.5,10.4-6.8c2.9-3.5,5.8-7.1,7.9-11.2c1-1.9,4.1-8.3-0.8-7.7c-1,0.1-1.9,0.3-2.8,0.7c-0.4,0.4-0.7,0.7-1.1,0.7
					c-0.2,0.2-0.4,0.3-0.7,0.5c0.1,0.2,0.1,0.4,0.1,0.6c0.5,2.4-1.2,4.2-3.2,5.8c-3.6,3.1-7.6,5.6-11.5,8.3c-2,1.4-3.9,3-6,4.2
					c-2,1.1-4.6,1.4-6.8,1.9c-1.9,0.5-3.9,1.1-5.9,1.5c4.7-0.5,9.3-1.7,13.8-3.1c1.3-0.4,4.6-1,4,1.6c-0.6,2.4-3.5,4.2-5.4,5.5
					c-2.8,1.9-5.8,3.7-8.9,5c-7.8,3.4-18.5,4.7-26.4,1.5c-3.9-1.5-7-4.8-8.4-8.6c-1-2.7-1.5-5.5-1.3-8.3c0.1-1.3,0.2-2.5,0.2-3.7
					c-0.6,1.5-1.1,3-1.6,4.6c0.3-1.3,0.6-2.6,0.8-3.9c-2.6,0.1-5.1,0-7.6-0.4c-2.5-0.4-6.6-2-9.2-0.4c-2.6,5.5-2.7,11.3-1.2,17.3
					c2.2,2.4,5.5,3.8,9,4.8c2.8,0.8,5.6,1.5,8.5,2.1c-0.6-0.7-1.1-1.5-1.6-2.4c1.5,1.7,3.2,3.1,5.1,4.4c-0.1,0-0.2,0-0.2,0
					c1,0.8,2,1.6,3.1,2.2c4,2.1,8,3.2,12.2,4.5c0,0,0,0,0,0c8.6,1.6,17.8,0.6,25.6-2.6c5.8-2.5,11.1-5.8,16.3-9.5
					c3.4-2.4,6.2-4.6,8.3-8.3c0.5-0.9,1-1.8,1.4-2.7c-0.2,0.3-0.5,0.6-0.7,0.9c-3.4,3.8-7.5,6.4-12.1,8.6c-4.3,2.1-8.4,4.6-12.8,6.5
					c-0.3,0.1-0.2-0.4,0-0.5C280.5,410.7,283.4,408.7,286.7,407.1z"/>
			</g>
			<path class="st30" d="M226.7,427.7c-2.4-3.3-5.1-6.3-7.3-9.9c-2.4-3.9-4.1-8.3-5.3-12.7c-2.7-9.8,0.6-19.3,6.3-27.3
				c0.1-0.1,0-0.3-0.1-0.2c-14,14.2-9.3,38.9,6,50.5C226.5,428.3,226.9,427.8,226.7,427.7z"/>
		</g>
	</g>
</g>
</svg>
