<svg xmlns="http://www.w3.org/2000/svg" xmlns:xlink="http://www.w3.org/1999/xlink" version="1.1" x="0px" y="0px" viewBox="0 0 64 80" style="enable-background:new 0 0 64 64;" xml:space="preserve"><g><g><polygon points="38.8,50.4 43.8,56.5 50.2,56.5 43.5,48.3   "/><path d="M54.8,11.5v25.9c0,0.2-0.1,0.4-0.3,0.5L32.2,48.1c-0.1,0.1-0.3,0.1-0.4,0L9.5,37.8c-0.2-0.1-0.3-0.3-0.3-0.5V11.5l-4.7-2    v30.9L32,52.2l27.5-11.8V9.5L54.8,11.5z"/><polygon points="13.8,56.5 20.2,56.5 25.2,50.4 20.5,48.3   "/><path d="M31.5,17.6L10.2,7.8V37l21.3,9.8V17.6z M29.5,43.2c-0.1,0.2-0.3,0.3-0.5,0.3c-0.1,0-0.1,0-0.2,0l-16.3-7.5    c-0.3-0.1-0.4-0.4-0.2-0.7c0.1-0.3,0.4-0.4,0.7-0.3l16.3,7.5C29.5,42.6,29.6,42.9,29.5,43.2z M29.5,40.3c-0.1,0.2-0.3,0.3-0.5,0.3    c-0.1,0-0.1,0-0.2,0L12.5,33c-0.3-0.1-0.4-0.4-0.2-0.7c0.1-0.3,0.4-0.4,0.7-0.3l16.3,7.5C29.5,39.7,29.6,40,29.5,40.3z M29.5,37.4    c-0.1,0.2-0.3,0.3-0.5,0.3c-0.1,0-0.1,0-0.2,0l-16.3-7.5c-0.3-0.1-0.4-0.4-0.2-0.7c0.1-0.3,0.4-0.4,0.7-0.3l16.3,7.5    C29.5,36.8,29.6,37.1,29.5,37.4z M29.5,34.5c-0.1,0.2-0.3,0.3-0.5,0.3c-0.1,0-0.1,0-0.2,0l-16.3-7.5c-0.3-0.1-0.4-0.4-0.2-0.7    c0.1-0.3,0.4-0.4,0.7-0.2l16.3,7.5C29.5,33.9,29.6,34.2,29.5,34.5z M29.5,31.6c-0.1,0.2-0.3,0.3-0.5,0.3c-0.1,0-0.1,0-0.2-0.1    l-16.3-7.5c-0.3-0.1-0.4-0.4-0.2-0.7c0.1-0.3,0.4-0.4,0.7-0.2l16.3,7.5C29.5,31,29.6,31.3,29.5,31.6z M29.5,28.7    C29.4,28.9,29.2,29,29,29c-0.1,0-0.1,0-0.2,0l-16.3-7.5c-0.3-0.1-0.4-0.4-0.2-0.7c0.1-0.3,0.4-0.4,0.7-0.2L29.2,28    C29.5,28.1,29.6,28.4,29.5,28.7z M29.5,25.8c-0.1,0.2-0.3,0.3-0.5,0.3c-0.1,0-0.1,0-0.2,0l-16.3-7.5c-0.3-0.1-0.4-0.4-0.2-0.7    c0.1-0.3,0.4-0.4,0.7-0.2l16.3,7.5C29.5,25.3,29.6,25.5,29.5,25.8z M29.5,22.9c-0.1,0.2-0.3,0.3-0.5,0.3c-0.1,0-0.1,0-0.2,0    l-16.3-7.5c-0.3-0.1-0.4-0.4-0.2-0.7c0.1-0.3,0.4-0.4,0.7-0.3l16.3,7.5C29.5,22.3,29.6,22.6,29.5,22.9z M29.5,20    c-0.1,0.2-0.3,0.3-0.5,0.3c-0.1,0-0.1,0-0.2,0l-16.3-7.5c-0.3-0.1-0.4-0.4-0.2-0.7c0.1-0.3,0.4-0.4,0.7-0.3l16.3,7.5    C29.5,19.5,29.6,19.8,29.5,20z"/><path d="M53.8,7.8l-21.3,9.8v29.3L53.8,37V7.8z M51.5,35.9l-16.3,7.5c-0.1,0-0.1,0-0.2,0c-0.2,0-0.4-0.1-0.5-0.3    c-0.1-0.3,0-0.5,0.2-0.7L51.1,35c0.3-0.1,0.5,0,0.7,0.3C51.9,35.5,51.8,35.8,51.5,35.9z M51.5,33l-16.3,7.5c-0.1,0-0.1,0-0.2,0    c-0.2,0-0.4-0.1-0.5-0.3c-0.1-0.3,0-0.5,0.2-0.7l16.3-7.5c0.3-0.1,0.5,0,0.7,0.3C51.9,32.6,51.8,32.9,51.5,33z M51.5,30.1    l-16.3,7.5c-0.1,0-0.1,0-0.2,0c-0.2,0-0.4-0.1-0.5-0.3c-0.1-0.3,0-0.6,0.2-0.7l16.3-7.5c0.3-0.1,0.5,0,0.7,0.3    C51.9,29.7,51.8,30,51.5,30.1z M51.5,27.2l-16.3,7.5c-0.1,0-0.1,0-0.2,0c-0.2,0-0.4-0.1-0.5-0.3c-0.1-0.3,0-0.5,0.2-0.7l16.3-7.5    c0.3-0.1,0.5,0,0.7,0.2C51.9,26.8,51.8,27.1,51.5,27.2z M51.5,24.3l-16.3,7.5c-0.1,0-0.1,0.1-0.2,0.1c-0.2,0-0.4-0.1-0.5-0.3    c-0.1-0.3,0-0.5,0.2-0.7l16.3-7.5c0.3-0.1,0.5,0,0.7,0.2C51.9,23.9,51.8,24.2,51.5,24.3z M51.5,21.4l-16.3,7.5c-0.1,0-0.1,0-0.2,0    c-0.2,0-0.4-0.1-0.5-0.3c-0.1-0.3,0-0.5,0.2-0.7l16.3-7.5c0.3-0.1,0.5,0,0.7,0.2C51.9,21,51.8,21.3,51.5,21.4z M51.5,18.5L35.2,26    c-0.1,0-0.1,0-0.2,0c-0.2,0-0.4-0.1-0.5-0.3c-0.1-0.3,0-0.5,0.2-0.7l16.3-7.5c0.3-0.1,0.5,0,0.7,0.2    C51.9,18.1,51.8,18.4,51.5,18.5z M51.5,15.6l-16.3,7.5c-0.1,0-0.1,0-0.2,0c-0.2,0-0.4-0.1-0.5-0.3c-0.1-0.3,0-0.5,0.2-0.7    l16.3-7.5c0.3-0.1,0.5,0,0.7,0.3C51.9,15.2,51.8,15.5,51.5,15.6z M51.5,12.7l-16.3,7.5c-0.1,0-0.1,0-0.2,0c-0.2,0-0.4-0.1-0.5-0.3    c-0.1-0.3,0-0.5,0.2-0.7l16.3-7.5c0.3-0.1,0.5,0,0.7,0.3C51.9,12.3,51.8,12.6,51.5,12.7z"/></g></g><text x="0" y="79" fill="#000000" font-size="5px" font-weight="bold" font-family="'Helvetica Neue', Helvetica, Arial-Unicode, Arial, Sans-serif">Created by farra nugraha</text><text x="0" y="84" fill="#000000" font-size="5px" font-weight="bold" font-family="'Helvetica Neue', Helvetica, Arial-Unicode, Arial, Sans-serif">from the Noun Project</text></svg>