<svg xmlns="http://www.w3.org/2000/svg" xmlns:xlink="http://www.w3.org/1999/xlink" version="1.1" x="0px" y="0px" viewBox="0 0 64 80" style="enable-background:new 0 0 64 64;" xml:space="preserve"><g><g><path d="M49,4.5H9.5V54H49V4.5z M31.9,21c0.1-0.2,0.3-0.3,0.5-0.3s0.4,0.1,0.4,0.3l1.2,2.5l2.7,0.4c0.2,0,0.3,0.2,0.4,0.3    s0,0.4-0.1,0.5l-2,1.9l0.5,2.7c0,0.2,0,0.4-0.2,0.5c-0.1,0.1-0.2,0.1-0.3,0.1c-0.1,0-0.2,0-0.2,0l-2.4-1.3L30,29.8    c-0.2,0.1-0.4,0.1-0.5,0c-0.1-0.1-0.2-0.3-0.2-0.5l0.5-2.7l-2-1.9c-0.1-0.1-0.2-0.3-0.1-0.5s0.2-0.3,0.4-0.3l2.7-0.4L31.9,21z     M30,39.3c-5.2,0-9.5-4.3-9.5-9.5c0-4.3,2.8-8,6.9-9.1c0.2-0.1,0.5,0,0.6,0.3c0.1,0.2,0.1,0.5-0.1,0.6c-1.5,1.2-2.3,3-2.3,4.9    c0,3.6,2.9,6.5,6.5,6.5c3,0,5.6-2.1,6.3-5c0.1-0.2,0.3-0.4,0.5-0.4c0.2,0,0.4,0.2,0.5,0.4c0.1,0.6,0.2,1.3,0.2,1.9    C39.5,35.1,35.2,39.3,30,39.3z"/><polygon points="50,5.2 50,54.3 54.5,58.8 54.5,9.7   "/><path d="M30.7,26.5l-0.3,2l1.8-0.9c0.2-0.1,0.3-0.1,0.5,0l1.8,0.9l-0.3-2c0-0.2,0-0.3,0.1-0.4l1.4-1.4l-2-0.3    c-0.2,0-0.3-0.1-0.4-0.3l-0.9-1.8l-0.9,1.8c-0.1,0.2-0.2,0.3-0.4,0.3l-2,0.3l1.4,1.4C30.7,26.1,30.7,26.3,30.7,26.5z"/><polygon points="10.2,55 14.7,59.5 53.8,59.5 49.3,55   "/><path d="M32.1,33.9c-4.1,0-7.5-3.3-7.5-7.5c0-1.4,0.4-2.8,1.2-4c-2.6,1.5-4.3,4.3-4.3,7.4c0,4.7,3.8,8.5,8.5,8.5    c4.6,0,8.3-3.6,8.5-8.1C37.2,32.5,34.7,33.9,32.1,33.9z"/></g></g><text x="0" y="79" fill="#000000" font-size="5px" font-weight="bold" font-family="'Helvetica Neue', Helvetica, Arial-Unicode, Arial, Sans-serif">Created by farra nugraha</text><text x="0" y="84" fill="#000000" font-size="5px" font-weight="bold" font-family="'Helvetica Neue', Helvetica, Arial-Unicode, Arial, Sans-serif">from the Noun Project</text></svg>