<svg xmlns="http://www.w3.org/2000/svg" xmlns:xlink="http://www.w3.org/1999/xlink" version="1.1" x="0px" y="0px" viewBox="0 0 64 80" style="enable-background:new 0 0 64 64;" xml:space="preserve"><g><g><path d="M10.3,53.8h43.4V52H10.9C10.6,52.6,10.4,53.2,10.3,53.8z"/><path d="M11.5,51h42.2v-1.8H15.4C13.9,49.2,12.5,49.9,11.5,51z"/><path d="M15.4,59.5h38.3v-1.8H11.5C12.5,58.8,13.8,59.5,15.4,59.5z"/><path d="M10.9,56.7h42.9v-1.9H10.3C10.4,55.5,10.6,56.1,10.9,56.7z"/><path d="M25.5,30.4c0.3,0.2,1.2,0.2,1.9,0v-2.9c-1,1-1.9,2.2-1.9,2.7C25.4,30.3,25.5,30.3,25.5,30.4z"/><path d="M17.2,4.5c-3.8,0-7,3.1-7,7V51c1.1-1.7,3-2.8,5.1-2.8h38.3V4.5H17.2z M46.2,29.5l-3.9,3.9V39c0,0.3-0.2,0.5-0.5,0.5h-5.5    l-3.9,3.9c-0.1,0.1-0.2,0.2-0.3,0.2s-0.3-0.1-0.3-0.2l-3.9-3.9h-5.5c-0.3,0-0.5-0.2-0.5-0.5v-5.5l-3.9-3.9c-0.2-0.2-0.2-0.5,0-0.7    l3.9-3.9v-5.5c0-0.3,0.2-0.5,0.5-0.5h5.5l3.9-3.9c0.2-0.2,0.5-0.2,0.7,0l3.9,3.9h5.5c0.3,0,0.5,0.2,0.5,0.5v5.5l3.9,3.9    C46.4,29,46.4,29.3,46.2,29.5z"/><path d="M41.3,25.1v-5.2h-5.2c-0.1,0-0.3,0-0.4-0.2L32,16l-3.7,3.7c-0.1,0.1-0.2,0.2-0.4,0.2h-5.2v5.2c0,0.1-0.1,0.3-0.2,0.4    l-3.7,3.7l3.7,3.7c0.1,0.1,0.2,0.2,0.2,0.3v5.2h5.2c0.1,0,0.3,0,0.4,0.1l3.7,3.7l3.7-3.7c0.1-0.1,0.2-0.1,0.4-0.1h5.2v-5.2    c0-0.1,0.1-0.3,0.2-0.3l3.7-3.7l-3.7-3.7C41.3,25.4,41.3,25.2,41.3,25.1z M36.8,31.4c0,1.4-1.2,2.6-2.6,2.6    c-0.9,0-1.6-0.4-2.1-1.1C31.6,33.6,30.9,34,30,34c-1.4,0-2.6-1.1-2.6-2.5c-0.7,0.1-1.9,0.2-2.5-0.3c-0.3-0.2-0.4-0.5-0.4-0.9    c0-1.4,2.6-3.8,3.1-4.3c0.2-0.1,0.4-0.2,0.5-0.1c0.2,0.1,0.3,0.3,0.3,0.5v4.5c0,0,0,0,0,0v0.5c0,0.9,0.7,1.6,1.6,1.6    s1.6-0.7,1.6-1.6v-6.9c0-0.3,0.2-0.5,0.5-0.5c0.3,0,0.5,0.2,0.5,0.5v6.9c0,0.9,0.7,1.6,1.6,1.6c0.9,0,1.6-0.7,1.6-1.6v-5.7    c0-0.3,0.2-0.5,0.5-0.5c0.3,0,0.5,0.2,0.5,0.5V31.4z M39.6,32.9c0,0.3-0.2,0.5-0.5,0.5c-0.3,0-0.5-0.2-0.5-0.5v-7.8    c0-0.3,0.2-0.5,0.5-0.5c0.3,0,0.5,0.2,0.5,0.5V32.9z"/></g></g><text x="0" y="79" fill="#000000" font-size="5px" font-weight="bold" font-family="'Helvetica Neue', Helvetica, Arial-Unicode, Arial, Sans-serif">Created by farra nugraha</text><text x="0" y="84" fill="#000000" font-size="5px" font-weight="bold" font-family="'Helvetica Neue', Helvetica, Arial-Unicode, Arial, Sans-serif">from the Noun Project</text></svg>