<?xml version="1.0" encoding="utf-8"?>
<!-- Generator: Adobe Illustrator 26.0.0, SVG Export Plug-In . SVG Version: 6.00 Build 0)  -->
<svg version="1.1" id="Layer_1" xmlns="http://www.w3.org/2000/svg" xmlns:xlink="http://www.w3.org/1999/xlink" x="0px" y="0px"
	 viewBox="0 0 80 80" style="enable-background:new 0 0 80 80;" xml:space="preserve">
<style type="text/css">
	.st0{fill:#D9A25A;}
	.st1{display:none;}
	.st2{display:inline;}
	.st3{fill:#FFFFFF;}
</style>
<rect class="st0" width="80" height="80"/>
<g class="st1">
	<g class="st2">
		<path class="st3" d="M25,55H55v-1.2H25.5C25.3,54.2,25.1,54.6,25,55z"/>
		<path class="st3" d="M25.9,53.1H55v-1.2H28.6C27.5,51.9,26.6,52.3,25.9,53.1z"/>
		<path class="st3" d="M28.6,58.9H55v-1.2H25.9C26.6,58.5,27.5,58.9,28.6,58.9z"/>
		<path class="st3" d="M25.5,57H55v-1.3H25C25.1,56.2,25.3,56.6,25.5,57z"/>
		<path class="st3" d="M35.5,38.9c0.2,0.1,0.8,0.1,1.3,0v-2c-0.7,0.7-1.3,1.5-1.3,1.9C35.5,38.8,35.5,38.8,35.5,38.9z"/>
		<path class="st3" d="M29.8,21.1c-2.6,0-4.8,2.1-4.8,4.8v27.2c0.8-1.2,2.1-1.9,3.5-1.9h26.4V21.1H29.8z M49.8,38.3L47.1,41v3.9
			c0,0.2-0.1,0.3-0.3,0.3H43l-2.7,2.7c-0.1,0.1-0.1,0.1-0.2,0.1s-0.2-0.1-0.2-0.1l-2.7-2.7h-3.8c-0.2,0-0.3-0.1-0.3-0.3V41l-2.7-2.7
			c-0.1-0.1-0.1-0.3,0-0.5l2.7-2.7v-3.8c0-0.2,0.1-0.3,0.3-0.3h3.8l2.7-2.7c0.1-0.1,0.3-0.1,0.5,0L43,31h3.8c0.2,0,0.3,0.1,0.3,0.3
			v3.8l2.7,2.7C49.9,37.9,49.9,38.1,49.8,38.3z"/>
		<path class="st3" d="M46.4,35.2v-3.6h-3.6c-0.1,0-0.2,0-0.3-0.1L40,29l-2.5,2.5c-0.1,0.1-0.1,0.1-0.3,0.1h-3.6v3.6
			c0,0.1-0.1,0.2-0.1,0.3l-2.5,2.5l2.5,2.5c0.1,0.1,0.1,0.1,0.1,0.2v3.6h3.6c0.1,0,0.2,0,0.3,0.1L40,47l2.5-2.5
			c0.1-0.1,0.1-0.1,0.3-0.1h3.6v-3.6c0-0.1,0.1-0.2,0.1-0.2l2.5-2.5l-2.5-2.5C46.4,35.5,46.4,35.3,46.4,35.2z M43.3,39.6
			c0,1-0.8,1.8-1.8,1.8c-0.6,0-1.1-0.3-1.4-0.8c-0.3,0.5-0.8,0.8-1.4,0.8c-1,0-1.8-0.8-1.8-1.7c-0.5,0.1-1.3,0.1-1.7-0.2
			c-0.2-0.1-0.3-0.3-0.3-0.6c0-1,1.8-2.6,2.1-3c0.1-0.1,0.3-0.1,0.3-0.1c0.1,0.1,0.2,0.2,0.2,0.3v3.1l0,0v0.3c0,0.6,0.5,1.1,1.1,1.1
			s1.1-0.5,1.1-1.1v-4.8c0-0.2,0.1-0.3,0.3-0.3s0.3,0.1,0.3,0.3v4.8c0,0.6,0.5,1.1,1.1,1.1c0.6,0,1.1-0.5,1.1-1.1v-3.9
			c0-0.2,0.1-0.3,0.3-0.3s0.3,0.1,0.3,0.3C43.3,35.7,43.3,39.6,43.3,39.6z M45.2,40.6c0,0.2-0.1,0.3-0.3,0.3s-0.3-0.1-0.3-0.3v-5.4
			c0-0.2,0.1-0.3,0.3-0.3s0.3,0.1,0.3,0.3V40.6z"/>
	</g>
</g>
<g class="st1">
	<g class="st2">
		<polygon class="st3" points="45.3,54.2 49.2,58.9 54.1,58.9 48.9,52.6 		"/>
		<path class="st3" d="M57.7,23.9v20.1c0,0.2-0.1,0.3-0.2,0.4l-17.3,7.9c-0.1,0.1-0.2,0.1-0.3,0l-17.3-8c-0.2-0.1-0.2-0.2-0.2-0.4
			V23.9l-3.7-1.6v24L40,55.6l21.4-9.2v-24L57.7,23.9z"/>
		<polygon class="st3" points="25.9,58.9 30.8,58.9 34.7,54.2 31.1,52.6 		"/>
		<path class="st3" d="M39.6,28.7l-16.6-7.6v22.7l16.6,7.6V28.7z M38.1,48.6c-0.1,0.2-0.2,0.2-0.4,0.2c-0.1,0-0.1,0-0.2,0L24.8,43
			c-0.2-0.1-0.3-0.3-0.2-0.5c0.1-0.2,0.3-0.3,0.5-0.2L37.9,48C38.1,48.1,38.1,48.4,38.1,48.6z M38.1,46.3c-0.1,0.2-0.2,0.2-0.4,0.2
			c-0.1,0-0.1,0-0.2,0l-12.7-5.9c-0.2-0.1-0.3-0.3-0.2-0.5c0.1-0.2,0.3-0.3,0.5-0.2l12.7,5.8C38.1,45.9,38.1,46.1,38.1,46.3z
			 M38.1,44.1c-0.1,0.2-0.2,0.2-0.4,0.2c-0.1,0-0.1,0-0.2,0l-12.7-5.8c-0.2-0.1-0.3-0.3-0.2-0.5c0.1-0.2,0.3-0.3,0.5-0.2l12.7,5.8
			C38.1,43.6,38.1,43.8,38.1,44.1z M38.1,41.8c-0.1,0.2-0.2,0.2-0.4,0.2c-0.1,0-0.1,0-0.2,0l-12.7-5.8c-0.2-0.1-0.3-0.3-0.2-0.5
			c0.1-0.2,0.3-0.3,0.5-0.2l12.7,5.8C38.1,41.4,38.1,41.6,38.1,41.8z M38.1,39.6c-0.1,0.2-0.2,0.2-0.4,0.2c-0.1,0-0.1,0-0.2-0.1
			l-12.7-5.8c-0.2-0.1-0.3-0.3-0.2-0.5c0.1-0.2,0.3-0.3,0.5-0.2L37.9,39C38.1,39.1,38.1,39.3,38.1,39.6z M38.1,37.3
			c-0.1,0.2-0.2,0.2-0.4,0.2c-0.1,0-0.1,0-0.2,0l-12.7-5.8c-0.2-0.1-0.3-0.3-0.2-0.5c0.1-0.2,0.3-0.3,0.5-0.2l12.6,5.8
			C38.1,36.9,38.1,37.1,38.1,37.3z M38.1,35.1c-0.1,0.2-0.2,0.2-0.4,0.2c-0.1,0-0.1,0-0.2,0l-12.7-5.8c-0.2-0.1-0.3-0.3-0.2-0.5
			c0.1-0.2,0.3-0.3,0.5-0.2l12.7,5.8C38.1,34.7,38.1,34.8,38.1,35.1z M38.1,32.8C38,33,37.8,33,37.7,33c-0.1,0-0.1,0-0.2,0
			l-12.7-5.8c-0.2-0.1-0.3-0.3-0.2-0.5c0.1-0.2,0.3-0.3,0.5-0.2l12.7,5.8C38.1,32.3,38.1,32.6,38.1,32.8z M38.1,30.6
			c-0.1,0.2-0.2,0.2-0.4,0.2c-0.1,0-0.1,0-0.2,0L24.8,25c-0.2-0.1-0.3-0.3-0.2-0.5c0.1-0.2,0.3-0.3,0.5-0.2L37.9,30
			C38.1,30.2,38.1,30.4,38.1,30.6z"/>
		<path class="st3" d="M56.9,21.1l-16.6,7.6v22.8l16.6-7.7V21.1z M55.2,42.9l-12.7,5.8c-0.1,0-0.1,0-0.2,0c-0.2,0-0.3-0.1-0.4-0.2
			c-0.1-0.2,0-0.4,0.2-0.5l12.7-5.8c0.2-0.1,0.4,0,0.5,0.2C55.5,42.6,55.4,42.8,55.2,42.9z M55.2,40.7l-12.7,5.8c-0.1,0-0.1,0-0.2,0
			c-0.2,0-0.3-0.1-0.4-0.2c-0.1-0.2,0-0.4,0.2-0.5l12.7-5.8c0.2-0.1,0.4,0,0.5,0.2C55.5,40.3,55.4,40.6,55.2,40.7z M55.2,38.4
			l-12.7,5.8c-0.1,0-0.1,0-0.2,0c-0.2,0-0.3-0.1-0.4-0.2c-0.1-0.2,0-0.5,0.2-0.5l12.7-5.8c0.2-0.1,0.4,0,0.5,0.2
			S55.4,38.3,55.2,38.4z M55.2,36.2L42.5,42c-0.1,0-0.1,0-0.2,0c-0.2,0-0.3-0.1-0.4-0.2c-0.1-0.2,0-0.4,0.2-0.5l12.7-5.8
			c0.2-0.1,0.4,0,0.5,0.2C55.5,35.8,55.4,36.1,55.2,36.2z M55.2,33.9l-12.7,5.8c-0.1,0-0.1,0.1-0.2,0.1c-0.2,0-0.3-0.1-0.4-0.2
			c-0.1-0.2,0-0.4,0.2-0.5l12.7-5.8c0.2-0.1,0.4,0,0.5,0.2C55.5,33.6,55.4,33.8,55.2,33.9z M55.2,31.6l-12.7,5.8c-0.1,0-0.1,0-0.2,0
			c-0.2,0-0.3-0.1-0.4-0.2c-0.1-0.2,0-0.4,0.2-0.5l12.7-5.8c0.2-0.1,0.4,0,0.5,0.2C55.5,31.3,55.4,31.6,55.2,31.6z M55.2,29.4
			l-12.7,5.8c-0.1,0-0.1,0-0.2,0c-0.2,0-0.3-0.1-0.4-0.2c-0.1-0.2,0-0.4,0.2-0.5l12.7-5.8c0.2-0.1,0.4,0,0.5,0.2
			C55.5,29.1,55.4,29.3,55.2,29.4z M55.2,27.1L42.5,33c-0.1,0-0.1,0-0.2,0c-0.2,0-0.3-0.1-0.4-0.2c-0.1-0.2,0-0.4,0.2-0.5l12.7-5.8
			c0.2-0.1,0.4,0,0.5,0.2C55.5,26.8,55.4,27.1,55.2,27.1z M55.2,24.9l-12.7,5.8c-0.1,0-0.1,0-0.2,0c-0.2,0-0.3-0.1-0.4-0.2
			c-0.1-0.2,0-0.4,0.2-0.5l12.7-5.8c0.2-0.1,0.4,0,0.5,0.2C55.5,24.6,55.4,24.8,55.2,24.9z"/>
	</g>
</g>
<g>
	<g>
		<path class="st3" d="M51.8,20.9H24.4v34.3h27.4V20.9z M39.9,32.4c0.1-0.1,0.2-0.2,0.3-0.2c0.1,0,0.3,0.1,0.3,0.2l0.8,1.7l1.9,0.3
			c0.1,0,0.2,0.1,0.3,0.2c0.1,0.1,0,0.3-0.1,0.3l-1.4,1.3l0.3,1.9c0,0.1,0,0.3-0.1,0.3c-0.1,0.1-0.1,0.1-0.2,0.1c-0.1,0-0.1,0-0.1,0
			l-1.7-0.9l-1.7,0.8c-0.1,0.1-0.3,0.1-0.3,0c-0.1-0.1-0.1-0.2-0.1-0.3l0.3-1.9l-1.4-1.3C37,34.9,37,34.7,37,34.6
			c0.1-0.1,0.1-0.2,0.3-0.2l1.9-0.3L39.9,32.4z M38.6,45.1c-3.6,0-6.6-3-6.6-6.6c0-3,1.9-5.5,4.8-6.3c0.1-0.1,0.3,0,0.4,0.2
			c0.1,0.1,0.1,0.3-0.1,0.4c-1,0.8-1.6,2.1-1.6,3.4c0,2.5,2,4.5,4.5,4.5c2.1,0,3.9-1.5,4.4-3.5c0.1-0.1,0.2-0.3,0.3-0.3
			c0.1,0,0.3,0.1,0.3,0.3c0.1,0.4,0.1,0.9,0.1,1.3C45.2,42.1,42.2,45.1,38.6,45.1z"/>
		<polygon class="st3" points="52.5,21.4 52.5,55.5 55.6,58.6 55.6,24.5 		"/>
		<path class="st3" d="M39.1,36.2l-0.2,1.4l1.2-0.6c0.1-0.1,0.2-0.1,0.3,0l1.2,0.6l-0.2-1.4c0-0.1,0-0.2,0.1-0.3l1-1l-1.4-0.2
			c-0.1,0-0.2-0.1-0.3-0.2l-0.6-1.2l-0.6,1.2c-0.1,0.1-0.1,0.2-0.3,0.2L38,34.9l1,1C39.1,35.9,39.1,36.1,39.1,36.2z"/>
		<polygon class="st3" points="24.9,55.9 28,59.1 55.1,59.1 52,55.9 		"/>
		<path class="st3" d="M40.1,41.3c-2.8,0-5.2-2.3-5.2-5.2c0-1,0.3-1.9,0.8-2.8c-1.8,1-3,3-3,5.1c0,3.3,2.6,5.9,5.9,5.9
			c3.2,0,5.8-2.5,5.9-5.6C43.6,40.3,41.9,41.3,40.1,41.3z"/>
	</g>
</g>
</svg>
