<!--?xml version="1.0" standalone="no"?-->
              <svg id="sw-js-blob-svg" viewBox="0 0 100 100" xmlns="http://www.w3.org/2000/svg" version="1.1">
                    <defs> 
                        <linearGradient id="sw-gradient" x1="0" x2="1" y1="1" y2="0">
                            <stop id="stop1" stop-color="rgba(5, 110, 19, 1)" offset="0%"></stop>
                            <stop id="stop2" stop-color="rgba(5, 110, 19, 1)" offset="100%"></stop>
                        </linearGradient>
                    </defs>
                <path fill="url(#sw-gradient)" d="M21.9,-23.9C30,-19.4,39.3,-14,42.4,-6C45.6,2,42.7,12.5,36.6,19.4C30.5,26.2,21.2,29.5,11.8,33.2C2.4,37,-7.1,41.2,-13.7,38.5C-20.4,35.7,-24.2,25.9,-29.6,16.9C-35,7.9,-42,-0.4,-42.2,-8.9C-42.4,-17.5,-36,-26.3,-27.8,-30.8C-19.7,-35.3,-9.8,-35.4,-1.5,-33.6C6.9,-31.9,13.9,-28.3,21.9,-23.9Z" width="100%" height="100%" transform="translate(50 50)" stroke-width="0" style="transition: all 0.3s ease 0s;" stroke="url(#sw-gradient)"></path>
              </svg>